<?xml version="1.0" encoding="UTF-8"?>
<svg width="48px" height="48px" viewBox="0 0 48 48" version="1.1" xmlns="http://www.w3.org/2000/svg" xmlns:xlink="http://www.w3.org/1999/xlink">
    <title>csomagpiac</title>
    <g id="csomagpiac" stroke="none" stroke-width="1" fill="none" fill-rule="evenodd">
        <g id="icon-csomagpiac" transform="translate(4.453938, 2.000003)" fill-rule="nonzero">
            <polygon id="Path-7" fill="#000000" points="18.9767706 0 4.15509628 8.92403692 18.9767706 2.74779294 28.1186221 6.06213884"></polygon>
            <polygon id="Path-8" fill="#000000" points="39.0460618 32.6466493 37.6571737 22.0293539 36.1060988 31.8858748 22.9635812 42.6344904"></polygon>
            <polygon id="Path-9" fill="#000000" points="16.1368592 41.7682183 0.660410864 32.9404093 0.660410864 22.0293539 2.96872236 31.5044944"></polygon>
            <path d="M17.3842723,42.1635032 C17.3842723,42.1635032 18.6464065,42.7756688 21.1706747,44 C21.6489063,35.7876672 19.8430084,28.0296215 15.7529808,20.7258628 C15.7529808,20.7258628 18.9927701,31.8987861 17.3842723,42.1635032 Z" id="Path-10" fill="#8E5B2E"></path>
            <path d="M8.64393085,22.6279592 C8.64393085,22.6279592 9.64529821,23.0916396 11.6480329,24.0190002 C13.3118274,16.8090302 12.7793638,9.491442 10.0506423,2.06623569 C10.0506423,2.06623569 11.01879,12.7807456 8.64393085,22.6279592 Z" id="Path-10" fill="#8E5B2E" transform="translate(10.618640, 13.042618) rotate(-62.000000) translate(-10.618640, -13.042618) "></path>
            <path d="M19.5463966,21.7433186 C19.5463966,21.7433186 20.3883795,22.7964553 22.0723452,24.9027287 C27.2560372,19.0045746 32.8632195,14.4398308 38.8938922,11.2084973 C38.9445696,11.1801305 35.6524529,11.0835874 28.7184938,15.0411316 C23.4405726,18.0534953 19.5463966,21.7433186 19.5463966,21.7433186 Z" id="Path-11" fill="#8E5B2E"></path>
        </g>
    </g>
</svg>