<?xml version="1.0" encoding="UTF-8"?>
<svg width="48px" height="48px" viewBox="0 0 48 48" version="1.1" xmlns="http://www.w3.org/2000/svg" xmlns:xlink="http://www.w3.org/1999/xlink">
    <title>expressone</title>
    <g id="expressone" stroke="none" stroke-width="1" fill="none" fill-rule="evenodd">
        <g id="icon-expressone" transform="translate(0.000000, 9.000003)" fill="#EE7F01" fill-rule="nonzero">
            <path d="M14.0132133,0 L15.2223136,0 C19.1225086,0.18082192 22.9330668,2.0219178 25.4887104,5.07945206 C24.6799876,6.21369864 23.8872004,7.35821918 23.1123404,8.51712328 C21.433145,6.14178082 18.7938404,4.52465754 15.9672947,4.14246576 C12.8778144,3.68424658 9.62698791,4.7630137 7.35220616,6.96164384 C5.5534952,8.6650685 4.35435456,11.0239726 4.03365416,13.5226027 C3.55559144,16.9027397 4.77465136,20.4678082 7.16496494,22.8246576 C9.49153681,25.1979452 12.9276126,26.3363014 16.1605117,25.810274 C18.8356709,25.4136986 21.1741944,23.8356164 23.1940094,22.0643836 C26.2615784,19.3520548 28.9885278,16.259589 31.609905,13.0972603 C34.8149172,9.1849315 37.6793096,4.99520548 40.4480896,0.74794521 C42.3025744,0.74794521 44.1570594,0.75 46.0115444,0.74383562 C46.5633084,0.72945205 47.1648706,0.83630137 47.5572804,1.2739726 C48.0273754,1.74452055 48.0911172,2.49452054 47.8979002,3.1109589 C47.6927316,3.73972602 47.2465396,4.2349315 46.8322186,4.7260274 C44.194906,7.8369863 41.5556014,10.9458904 38.884426,14.0280822 C35.842752,17.5212329 32.8209972,21.0760274 29.235527,23.9917808 C25.1042682,27.4068494 20.0567228,29.9732876 14.6685576,30 L14.4295263,30 C10.9376765,29.9732876 7.47769762,28.6047946 4.87823162,26.1986302 C1.93416206,23.5232876 0.13146725,19.5780822 0,15.5321918 L0,14.4739726 C0.11951568,10.6232877 1.74891276,6.85273972 4.45395096,4.19383562 C6.99565106,1.64383562 10.4695734,0.12123288 14.0132133,0 L14.0132133,0 Z" id="Path"></path>
            <path d="M31.337011,0.76232877 C33.90859,0.72534247 36.480169,0.76643836 39.051748,0.74178082 C35.4085118,6.24041096 31.5899858,11.6486301 27.1101398,16.4630137 C25.2676064,18.4705479 23.3633232,20.4369864 21.2279764,22.1157534 C19.5687004,23.4041096 17.6504738,24.4746576 15.5469979,24.6554794 C12.4296306,25.0171232 9.18876375,23.6342466 7.23468242,21.1047946 C5.53556784,18.9842466 4.80054642,16.0910959 5.25669794,13.3828767 C5.66504316,10.7219178 7.23069856,8.2890411 9.42381125,6.83424658 C11.5551742,5.38972602 14.270172,4.90684932 16.7461385,5.53356164 C19.0169364,6.09657534 21.102485,7.5410959 22.375327,9.57328768 C21.4809514,10.7794521 20.686172,12.0636986 19.773869,13.2554795 C18.9790897,10.5287671 15.9931897,8.76986302 13.3160385,9.4869863 C10.537299,10.0910959 8.5433791,13.1691781 9.16884447,16.05 C9.66284261,19.0541096 12.8399677,21.320548 15.7302552,20.4575342 C18.0249562,19.7753425 19.5786601,17.7349315 20.9032922,15.8116438 C24.4011178,10.8082192 27.8909756,5.80068494 31.337011,0.76232877 L31.337011,0.76232877 Z" id="Path"></path>
        </g>
    </g>
</svg>