<?xml version="1.0" encoding="UTF-8"?>
<svg width="48px" height="48px" viewBox="0 0 48 48" version="1.1" xmlns="http://www.w3.org/2000/svg" xmlns:xlink="http://www.w3.org/1999/xlink">
    <title>gls</title>
    <g id="gls" stroke="none" stroke-width="1" fill="none" fill-rule="evenodd">
        <g id="icon-gls" transform="translate(0.000000, 15.000003)" fill-rule="nonzero">
            <path d="M45.3188478,11.3343348 C46.7991573,11.3343348 48,12.5859607 48,14.1302135 C48,15.6744663 46.7991573,16.9260922 45.3188478,16.9260922 C43.8379621,16.9260922 42.6376956,15.6744663 42.6376956,14.1302135 C42.6376956,12.5859607 43.8379621,11.3343348 45.3188478,11.3343348" id="Path" fill="#FBC808"></path>
            <path d="M7.71166906,7.91955323 L7.71166906,11.5776898 L10.6303968,11.5776898 C10.2040516,12.2753075 9.24274353,12.6466492 8.59040474,12.6466492 C6.39356555,12.6466492 5.29494427,11.3409444 5.29494427,8.70610066 C5.29494427,5.7966563 6.74494457,4.30708327 9.62310643,4.30708327 C10.7656357,4.30708327 12.2595439,4.60511805 13.8635103,5.13208681 L13.8635103,0.75590273 C13.4020732,0.54980207 12.6989118,0.38936802 11.7981069,0.22893398 C10.8755209,0.06849993 10.0624743,0 9.35954335,0 C6.50322023,0 4.24040384,0.80217023 2.5486792,2.4059098 C0.85689693,4.0090485 0,6.16319101 0,8.88936802 C0,11.3866111 0.65908057,13.3574862 1.97741457,14.8001909 C3.29551809,16.2669306 5.07523154,17 7.3162092,17 C9.56663686,17 11.634057,15.7820232 12.3002827,14.2359678 L12.2858772,16.7247985 L15.5408294,16.7247985 L15.5408294,7.91955323 L7.71166906,7.91955323 Z M17.1466396,16.7247985 L17.1466396,0.27520147 L22.2000324,0.27520147 L22.2000324,12.4405486 L27.7146318,12.4405486 L27.7146318,16.7247985 L17.1466396,16.7247985 Z M29.3190591,16.3125972 L29.3190591,11.8222466 C30.0661285,12.0740139 30.9448641,12.2801145 31.9336579,12.4633819 C32.9222211,12.6466492 33.7788875,12.7385833 34.5043487,12.7385833 C35.7345786,12.7385833 36.3718781,12.4177153 36.3718781,11.8450799 C36.3718781,11.4785452 36.1736583,11.2946769 35.2730263,11.0891771 L33.5155549,10.6763749 C30.5054963,9.96613883 29.0993464,8.38523257 29.0993464,5.70472218 C29.0993464,3.94054856 29.6924497,2.54290965 30.8570482,1.51240634 C32.0214162,0.50413544 33.6475094,0 35.6907859,0 C37.096763,0 39.2495213,0.29803478 40.5679129,0.64173618 L40.5679129,4.92598615 C39.8868208,4.74271879 39.0737742,4.55945144 38.0855567,4.39901739 C37.096763,4.23858335 36.3275091,4.17008342 35.756475,4.17008342 C34.6800958,4.17008342 34.0646927,4.49035063 34.0646927,5.06358688 C34.0646927,5.40728828 34.3504979,5.63622226 34.9434284,5.7966563 L36.9867049,6.30019087 C39.9749824,7.03386117 41.3590632,8.63760074 41.3590632,11.3637777 C41.3590632,13.1051181 40.7436601,14.4793228 39.5353265,15.4875937 C38.3269929,16.4958646 36.657107,17 34.526245,17 C32.504692,17 30.4615883,16.7019652 29.3190591,16.3125972" id="Shape" fill="#061AB1"></path>
        </g>
    </g>
</svg>