<?xml version="1.0" encoding="UTF-8"?>
<svg width="48px" height="48px" viewBox="0 0 48 48" version="1.1" xmlns="http://www.w3.org/2000/svg" xmlns:xlink="http://www.w3.org/1999/xlink">
    <title>packeta</title>
    <g id="packeta" stroke="none" stroke-width="1" fill="none" fill-rule="evenodd">
        <g id="icon-packeta" transform="translate(2.000000, 0.000003)" fill="#BA1B02" fill-rule="nonzero">
            <path d="M23.1127503,19.2513785 L22,19.7885177 L20.8872497,19.2513785 L5.33192835,11.490107 L12.7038988,8.64871878 L28.6610467,16.4722673 L23.1127503,19.2513785 Z M38.6835265,11.4823224 L33.1197752,14.2147259 L16.9771689,6.9672397 L22,5.01329873 L38.6835265,11.4823224 Z" id="Shape"></path>
            <path d="M22.6027397,0 L43.0108887,7.97145637 L40.1440112,10.2912747 L22,3.1916964 L3.85598876,10.2912747 L0.98911135,7.97145637 L21.4127151,0 L22.6027397,0 Z M40.623112,10.9763218 L44,9.66072008 L41.4576747,30.7959779 L40.9476642,31.7379176 L23.0354759,48 L22.4559185,44.2555952 L38.4130664,29.7839766 L40.623112,10.9763218 Z M3.05233579,31.7379176 L2.54232525,30.7959779 L0,9.66072008 L3.37688795,10.9763218 L5.60238848,29.7995459 L21.5440815,44.2789491 L20.9799789,48 L3.05233579,31.7379176 Z" id="Shape"></path>
            <polygon id="Path" points="33.5525114 14.8842037 38.6989814 11.7080765 36.6743941 28.7330522 22.1081841 41.9669153 22.911837 21.4622121 29.3024236 17.4998378 28.8774148 27.5497892 32.8570425 24.7317548"></polygon>
            <polygon id="Path" points="21.088163 21.4622121 21.8918159 41.9513461 7.34106077 28.7330522 5.29329118 11.7080765"></polygon>
        </g>
    </g>
</svg>