<?xml version="1.0" encoding="UTF-8"?>
<svg width="48px" height="48px" viewBox="0 0 48 48" version="1.1" xmlns="http://www.w3.org/2000/svg" xmlns:xlink="http://www.w3.org/1999/xlink">
    <title>posta</title>
    <g id="posta" stroke="none" stroke-width="1" fill="none" fill-rule="evenodd">
        <g id="icon-mpl" transform="translate(-0.000000, 9.000003)" fill-rule="nonzero">
            <g id="Group" transform="translate(24.000000, 15.000000) scale(-1, 1) rotate(-180.000000) translate(-24.000000, -15.000000) translate(0.000000, 0.000000)">
                <path d="M13.7170145,30 L1.51797499,30 C1.51797499,30 -8.8817842e-16,30 -8.8817842e-16,28.5516815 L-8.8817842e-16,0 L15.2347871,0 L15.2347871,28.5516815 C15.2347871,28.5516815 15.2347871,30 13.7170145,30" id="Path" fill="#EF2C30"></path>
                <path d="M30.0082733,30 L17.8100432,30 C17.8100432,30 16.2920682,30 16.2920682,28.5516815 L16.2920682,0 L31.5268553,0 L31.5268553,28.5516815 C31.5268553,28.5516815 31.5268553,30 30.0082733,30" id="Path" fill="#1B5C29"></path>
                <path d="M46.482025,30 L34.2833902,30 C34.2833902,30 32.7648082,30 32.7648082,28.5516815 L32.7648082,0 L48,0 L48,28.5516815 C48,28.5516815 48,30 46.482025,30" id="Path" fill="#3DB94D"></path>
            </g>
            <polyline id="Path" fill="#FFFFFF" transform="translate(7.386966, 15.558791) scale(-1, 1) rotate(-180.000000) translate(-7.386966, -15.558791) " points="1.97571466 20.924153 5.16767086 20.924153 7.37259934 13.9219521 7.40052263 13.9219521 9.61840105 20.924153 12.7982167 20.924153 12.7982167 10.1934298 10.6873776 10.1934298 10.6873776 18.4247064 10.6608707 18.4247064 8.14413208 10.1934298 6.53449585 10.1934298 4.11306067 18.4247064 4.08594675 18.4247064 4.08594675 10.1934298 1.97571466 10.1934298"></polyline>
            <path d="M19.8833477,20.924153 L23.9259527,20.924153 C26.1855137,20.924153 28.0608259,20.2117638 28.0608259,17.6660349 C28.0608259,15.1498309 26.3233091,14.3773944 24.0333967,14.3773944 L22.2813112,14.3773944 L22.2813112,10.1934298 L19.8833477,10.1934298 L19.8833477,20.924153 Z M22.2813112,16.3779092 L23.8800209,16.3779092 C24.7245994,16.3779092 25.5703919,16.6657775 25.5703919,17.6660349 C25.5703919,18.7728215 24.4334282,18.9236381 23.5111501,18.9236381 L22.2813112,18.9236381" id="Shape" fill="#FFFFFF" transform="translate(23.972087, 15.558791) scale(-1, 1) rotate(-180.000000) translate(-23.972087, -15.558791) "></path>
            <polygon id="Path" fill="#FFFFFF" transform="translate(40.596139, 15.558791) scale(-1, 1) rotate(-180.000000) translate(-40.596139, -15.558791) " points="37.1755352 20.924153 39.5747127 20.924153 39.5747127 12.3760816 44.0167422 12.3760816 44.0167422 10.1934298 37.1755352 10.1934298"></polygon>
        </g>
    </g>
</svg>