<?xml version="1.0" encoding="UTF-8"?>
<svg width="48px" height="48px" viewBox="0 0 48 48" version="1.1" xmlns="http://www.w3.org/2000/svg" xmlns:xlink="http://www.w3.org/1999/xlink">
    <title>transsped</title>
    <g id="transsped" stroke="none" stroke-width="1" fill="none" fill-rule="evenodd">
        <g id="icon-transsped" transform="translate(-93.000000, 4.000003)" fill="#28367B" fill-rule="nonzero">
            <path d="M132.501246,8.0321285 C132.020901,8.0321285 131.508533,8.1606426 131.028188,8.2891566 C125.2,9.8634538 123.342665,16.1285141 125.488207,20.8514056 C126.384851,22.8433735 127.729818,24.6425703 128.658485,26.6345382 C129.395014,28.2409639 130.291659,30.0401606 130.131544,31.6787149 C129.907383,34.313253 127.825887,35.5662651 124.975839,35.5662651 C94.6820709,35.5662651 33.3580058,35.5662651 25,35.5662651 L25,40 L125.968552,40 C132.501246,40 136.247939,33.7349398 134.358581,28.2409639 C133.429914,25.6064257 131.764717,23.2289157 130.579866,20.6586345 C129.971429,19.2771084 129.202876,17.6706827 129.362991,16.2891566 C129.683222,13.62249 131.572579,12.4016064 134.294535,12.4016064 L192,12.4016064 L192,8 C192,8 142.460403,8 132.501246,8.0321285" id="Path"></path>
            <path d="M107.501246,0.03212851 C107.020901,0.03212851 106.508533,0.16064257 106.028188,0.28915663 C100.2,1.86345382 98.3426654,8.1285141 100.488207,12.8514056 C101.384851,14.8433735 102.729818,16.6425703 103.658485,18.6345382 C104.395014,20.2409639 105.291659,22.0401606 105.131544,23.6787149 C104.907383,26.313253 102.825887,27.5662651 99.9758389,27.5662651 C69.6820709,27.5662651 8.3580058,27.5662651 0,27.5662651 L0,32 L100.968552,32 C107.501246,32 111.247939,25.7349398 109.358581,20.2409639 C108.429914,17.6064257 106.764717,15.2289157 105.579866,12.6586345 C104.971429,11.2771084 104.202876,9.6706827 104.362991,8.2891566 C104.683222,5.62248996 106.572579,4.40160643 109.294535,4.40160643 L167,4.40160643 L167,0 C167,0 117.460403,0 107.501246,0.03212851" id="Path"></path>
            <rect id="Rectangle" x="113" y="19" width="8" height="4"></rect>
        </g>
    </g>
</svg>