<?xml version="1.0" encoding="UTF-8"?>
<svg width="24px" height="24px" viewBox="0 0 24 24" version="1.1" xmlns="http://www.w3.org/2000/svg" xmlns:xlink="http://www.w3.org/1999/xlink">
    <title>Group 28</title>
    <g id="Page-1" stroke="none" stroke-width="1" fill="none" fill-rule="evenodd">
        <g id="Group-28">
            <rect id="Rectangle" fill="#FFD100" x="0" y="0" width="24" height="24" rx="12"></rect>
            <g id="Group" transform="translate(4, 5)">
                <path d="M8.68,8.95466667 C9.06066667,8.95466667 9.36866667,8.64666667 9.36866667,8.266 C9.36866667,7.88533333 9.06066667,7.57666667 8.68,7.57666667 C8.29933333,7.57666667 7.99066667,7.88533333 7.99066667,8.266 C7.99066667,8.64666667 8.29933333,8.95466667 8.68,8.95466667 Z" id="Path" stroke="#0619B1" stroke-width="0.846666667"></path>
                <line x1="8.194" y1="8.754" x2="5.92466667" y2="11.25" id="Path" stroke="#0619B1" stroke-width="0.846666667"></line>
                <line x1="1.83666667" y1="4.134" x2="1.11022302e-16" y2="4.134" id="Path" stroke="#0619B1" stroke-width="0.846666667"></line>
                <path d="M3.226,4.134 L8.68,4.134 C10.5,4.134 12.0466667,5.31133333 12.5973333,6.946" id="Path" stroke="#0619B1" stroke-width="0.846666667"></path>
                <path d="M10.058,1.14866667 L7.302,1.14866667 L7.302,0.459333333 C7.302,0.205333333 7.50733333,2.22044605e-16 7.76133333,2.22044605e-16 L9.598,2.22044605e-16 C9.85266667,2.22044605e-16 10.058,0.205333333 10.058,0.459333333 L10.058,1.14866667 Z" id="Path" stroke="#0619B1" stroke-width="0.846666667"></path>
                <path d="M12.2906667,13.9426667 C12.784,13.9426667 13.184,13.5426667 13.184,13.0493333 C13.184,12.556 12.784,12.156 12.2906667,12.156 C11.7973333,12.156 11.3973333,12.556 11.3973333,13.0493333 C11.3973333,13.5426667 11.7973333,13.9426667 12.2906667,13.9426667 Z" id="Path" fill="#0619B1" fill-rule="nonzero"></path>
                <path d="M10.2786667,14.0446667 C9.76533333,14.188 9.224,14.264 8.666,14.264 C5.36133333,14.264 2.68133333,11.5853333 2.68133333,8.27933333 C2.68133333,7.45333333 2.848,6.666 3.15133333,5.95066667" id="Path" stroke="#0619B1" stroke-width="0.846666667"></path>
                <path d="M1.71733333,2.29733333 L8.666,2.29733333 C11.9706667,2.29733333 14.6506667,4.976 14.6506667,8.282 C14.6506667,9.29133333 14.4013333,10.242 13.9606667,11.0753333" id="Path" stroke="#0619B1" stroke-width="0.846666667"></path>
                <polyline id="Path" stroke="#0619B1" stroke-width="0.846666667" stroke-linecap="square" points="13.3933333 10.4366667 13.5806667 11.7133333 14.784 11.2513333"></polyline>
            </g>
        </g>
    </g>
</svg>