<?xml version="1.0" encoding="UTF-8"?>
<svg width="378.316111px" height="270.21154px" viewBox="0 0 378.316111 270.21154" version="1.1" xmlns="http://www.w3.org/2000/svg" xmlns:xlink="http://www.w3.org/1999/xlink">
    <title>Group 10</title>
    <defs>
        <rect id="path-1" x="0" y="0" width="151.785997" height="178.105056" rx="4.8"></rect>
        <filter x="-16.5%" y="-12.9%" width="132.9%" height="128.1%" filterUnits="objectBoundingBox" id="filter-2">
            <feOffset dx="0" dy="2" in="SourceAlpha" result="shadowOffsetOuter1"></feOffset>
            <feGaussianBlur stdDeviation="8" in="shadowOffsetOuter1" result="shadowBlurOuter1"></feGaussianBlur>
            <feColorMatrix values="0 0 0 0 0   0 0 0 0 0   0 0 0 0 0  0 0 0 0.210855551 0" type="matrix" in="shadowBlurOuter1"></feColorMatrix>
        </filter>
        <rect id="path-3" x="0" y="0" width="151.785997" height="178.105056" rx="4.8"></rect>
        <filter x="-16.5%" y="-12.9%" width="132.9%" height="128.1%" filterUnits="objectBoundingBox" id="filter-4">
            <feOffset dx="0" dy="2" in="SourceAlpha" result="shadowOffsetOuter1"></feOffset>
            <feGaussianBlur stdDeviation="8" in="shadowOffsetOuter1" result="shadowBlurOuter1"></feGaussianBlur>
            <feColorMatrix values="0 0 0 0 0   0 0 0 0 0   0 0 0 0 0  0 0 0 0.210855551 0" type="matrix" in="shadowBlurOuter1"></feColorMatrix>
        </filter>
        <rect id="path-5" x="0" y="0" width="151.785997" height="178.105056" rx="4.8"></rect>
        <filter x="-16.5%" y="-12.9%" width="132.9%" height="128.1%" filterUnits="objectBoundingBox" id="filter-6">
            <feOffset dx="0" dy="2" in="SourceAlpha" result="shadowOffsetOuter1"></feOffset>
            <feGaussianBlur stdDeviation="8" in="shadowOffsetOuter1" result="shadowBlurOuter1"></feGaussianBlur>
            <feColorMatrix values="0 0 0 0 0   0 0 0 0 0   0 0 0 0 0  0 0 0 0.210855551 0" type="matrix" in="shadowBlurOuter1"></feColorMatrix>
        </filter>
    </defs>
    <g id="Page-1" stroke="none" stroke-width="1" fill="none" fill-rule="evenodd">
        <g id="Group-10" transform="translate(17.993096, 16.330588)">
            <g id="Group-2" transform="translate(88.889514, 99.828424) rotate(-9.000000) translate(-88.889514, -99.828424) translate(12.996516, 10.775896)">
                <g id="Rectangle">
                    <use fill="black" fill-opacity="1" filter="url(#filter-2)" xlink:href="#path-1"></use>
                    <use fill="#FFFFFF" fill-rule="evenodd" xlink:href="#path-1"></use>
                </g>
                <rect id="Rectangle" fill="#D8D8D8" x="13.9802892" y="57.5279172" width="123.825418" height="1.59735476"></rect>
                <g id="icon-foxpost" transform="translate(14.000000, 14.000000)" fill-rule="nonzero">
                    <path d="M3.77140599,9.42467687 L4.16977442,4.75823535 L6.67706158,7.53875912 C5.60827574,8.01921837 4.63161068,8.655021 3.77140599,9.42467687 M18.8403928,4.75884935 L19.2455393,9.51432169 C18.3779403,8.72286862 17.3898757,8.06373375 16.308766,7.56669631 L18.8403928,4.75884935 Z M13.9915743,19.7160225 C16.0533542,17.6624812 19.3065423,17.1764959 22.9562503,18.0100082 L23,17.9642649 C23,17.9172935 22.9929138,17.8724711 22.9929138,17.8258066 C22.9682661,15.8192367 22.4229358,13.939459 21.4912528,12.3071256 L20.441877,0 L14.2645475,6.851994 C13.3769223,6.63340806 12.4554064,6.50538787 11.5003081,6.50538787 C10.5455179,6.50538787 9.62246157,6.628803 8.73452824,6.84002087 L2.56890639,0 L1.52815731,12.1818684 C0.588155706,13.816965 0.0354310656,15.723759 0.00801050389,17.8037025 C0.00708621056,17.8571209 0,17.9102324 0,17.9642649 L0.0268043725,17.9909741 C3.64292987,17.1838639 6.86222742,17.6766034 8.90860259,19.7160225 C10.9703826,21.7701777 11.4556342,25.0115126 10.6188448,28.647346 L11.5,29.5355049 L12.2995097,28.7305437 C11.4352998,25.060633 11.9143894,21.7867559 13.9915743,19.7160225" id="Shape" fill="#B72328"></path>
                    <g id="Group" transform="translate(7.148757, 19.793387)" fill="#151819">
                        <path d="M2.11446449,1.05332637 C2.11446449,1.63478962 1.64061249,2.10665275 1.05615393,2.10665275 C0.473543933,2.10665275 0,1.63478962 0,1.05332637 C0,0.47094225 0.473235861,0 1.05615393,0 C1.64061249,0 2.11446449,0.47094225 2.11446449,1.05332637" id="Path"></path>
                        <path d="M8.63686174,1.05332637 C8.63686174,1.63478962 8.16331781,2.10665275 7.57855111,2.10665275 C6.99655732,2.10665275 6.52239724,1.63478962 6.52239724,1.05332637 C6.52239724,0.47094225 6.99655732,0 7.57855111,0 C8.16331781,0 8.63686174,0.47094225 8.63686174,1.05332637" id="Path"></path>
                        <path d="M5.35810159,9.1529795 C5.35810159,9.73474963 4.88517387,10.2066129 4.30194773,10.2066129 C3.71779724,10.2066129 3.24486952,9.73474963 3.24486952,9.1529795 C3.24486952,8.57090238 3.71810538,8.09965273 4.30194773,8.09965273 C4.88517387,8.09934613 5.35810159,8.57059538 5.35810159,9.1529795" id="Path"></path>
                    </g>
                </g>
                <rect id="Rectangle" fill="#D8D8D8" x="13.9802892" y="68.7094005" width="66.7059512" height="3.9933869"></rect>
                <rect id="Rectangle" fill="#D8D8D8" x="13.9802892" y="78.6928677" width="51.9267883" height="3.9933869"></rect>
                <rect id="Rectangle" fill="#D8D8D8" x="13.9802892" y="88.6763349" width="51.9267883" height="3.9933869"></rect>
                <rect id="Rectangle" fill="#D8D8D8" x="13.9802892" y="98.6598022" width="38.345936" height="3.9933869"></rect>
                <g id="icons8-barcode-2" transform="translate(13.980289, 132.181106)" fill="#D8D8D8" fill-rule="nonzero">
                    <path d="M0,0 L0,31.9470952 L6.63350455,31.9470952 L6.63350455,0 L0,0 Z M11.0558409,0 L11.0558409,31.9470952 L28.7451864,31.9470952 L28.7451864,0 L11.0558409,0 Z M33.1675228,0 L33.1675228,31.9470952 L37.5898591,31.9470952 L37.5898591,0 L33.1675228,0 Z M42.0121955,0 L42.0121955,31.9470952 L48.6457001,31.9470952 L48.6457001,0 L42.0121955,0 Z M53.0680364,0 L53.0680364,31.9470952 L57.4903728,31.9470952 L57.4903728,0 L53.0680364,0 Z M61.9127092,0 L61.9127092,31.9470952 L70.7573819,31.9470952 L70.7573819,0 L61.9127092,0 Z M75.1797183,0 L75.1797183,31.9470952 L79.6020547,31.9470952 L79.6020547,0 L75.1797183,0 Z M84.024391,0 L84.024391,31.9470952 L88.4467274,31.9470952 L88.4467274,0 L84.024391,0 Z M92.8690638,0 L92.8690638,31.9470952 L110.558409,31.9470952 L110.558409,0 L92.8690638,0 Z M114.980746,0 L114.980746,31.9470952 L123.825418,31.9470952 L123.825418,0 L114.980746,0 Z" id="Shape"></path>
                </g>
            </g>
            <g id="Group-2" transform="translate(264.889514, 91.828424) rotate(2.000000) translate(-264.889514, -91.828424) translate(188.996516, 2.775896)">
                <g id="Rectangle">
                    <use fill="black" fill-opacity="1" filter="url(#filter-4)" xlink:href="#path-3"></use>
                    <use fill="#FFFFFF" fill-rule="evenodd" xlink:href="#path-3"></use>
                </g>
                <rect id="Rectangle" fill="#D8D8D8" x="13.9802892" y="57.5279172" width="123.825418" height="1.59735476"></rect>
                <g id="icon-packeta" transform="translate(14.000000, 14.000000)" fill="#BA1B02" fill-rule="nonzero">
                    <path d="M14.7081138,12.0321116 L14,12.3678236 L13.2918862,12.0321116 L3.39304531,7.18131687 L8.08429924,5.40544924 L18.2388479,10.2951671 L14.7081138,12.0321116 Z M24.6167896,7.1764515 L21.0762206,8.88420369 L10.8036529,4.35452481 L14,3.13331171 L24.6167896,7.1764515 Z" id="Shape"></path>
                    <path d="M14.3835616,0 L27.3705655,4.98216023 L25.5461889,6.43204669 L14,1.99481025 L2.45381103,6.43204669 L0.629434495,4.98216023 L13.6262732,0 L14.3835616,0 Z M25.8510713,6.86020112 L28,6.03795005 L26.3821566,19.2474862 L26.0576045,19.8361985 L14.6589392,30 L14.29013,27.659747 L24.4446786,18.6149854 L25.8510713,6.86020112 Z M1.9423955,19.8361985 L1.61784334,19.2474862 L0,6.03795005 L2.1489287,6.86020112 L3.56515631,18.6247162 L13.70987,27.6743432 L13.3508957,30 L1.9423955,19.8361985 Z" id="Shape"></path>
                    <polygon id="Path" points="21.3515982 9.30262731 24.6266245 7.31754781 23.3382508 17.9581576 14.0688444 26.2293221 14.5802599 13.4138826 18.6469968 10.9373986 18.3765367 17.2186182 20.909027 15.4573467"></polygon>
                    <polygon id="Path" points="13.4197401 13.4138826 13.9311556 26.2195913 4.67158413 17.9581576 3.36845802 7.31754781"></polygon>
                </g>
                <rect id="Rectangle" fill="#D8D8D8" x="35.002396" y="68.9759019" width="66.7059512" height="3.9933869"></rect>
                <rect id="Rectangle" fill="#D8D8D8" x="35.002396" y="78.9593691" width="51.9267883" height="3.9933869"></rect>
                <rect id="Rectangle" fill="#D8D8D8" x="35.002396" y="88.9428363" width="51.9267883" height="3.9933869"></rect>
                <rect id="Rectangle" fill="#D8D8D8" x="35.002396" y="98.9263036" width="38.345936" height="3.9933869"></rect>
                <g id="icons8-barcode-2" transform="translate(13.980289, 132.181106)" fill="#D8D8D8" fill-rule="nonzero">
                    <path d="M0,0 L0,31.9470952 L6.63350455,31.9470952 L6.63350455,0 L0,0 Z M11.0558409,0 L11.0558409,31.9470952 L28.7451864,31.9470952 L28.7451864,0 L11.0558409,0 Z M33.1675228,0 L33.1675228,31.9470952 L37.5898591,31.9470952 L37.5898591,0 L33.1675228,0 Z M42.0121955,0 L42.0121955,31.9470952 L48.6457001,31.9470952 L48.6457001,0 L42.0121955,0 Z M53.0680364,0 L53.0680364,31.9470952 L57.4903728,31.9470952 L57.4903728,0 L53.0680364,0 Z M61.9127092,0 L61.9127092,31.9470952 L70.7573819,31.9470952 L70.7573819,0 L61.9127092,0 Z M75.1797183,0 L75.1797183,31.9470952 L79.6020547,31.9470952 L79.6020547,0 L75.1797183,0 Z M84.024391,0 L84.024391,31.9470952 L88.4467274,31.9470952 L88.4467274,0 L84.024391,0 Z M92.8690638,0 L92.8690638,31.9470952 L110.558409,31.9470952 L110.558409,0 L92.8690638,0 Z M114.980746,0 L114.980746,31.9470952 L123.825418,31.9470952 L123.825418,0 L114.980746,0 Z" id="Shape"></path>
                </g>
            </g>
            <g id="Group-2" transform="translate(101.996516, 57.775896)">
                <g id="Rectangle">
                    <use fill="black" fill-opacity="1" filter="url(#filter-6)" xlink:href="#path-5"></use>
                    <use fill="#FFFFFF" fill-rule="evenodd" xlink:href="#path-5"></use>
                </g>
                <rect id="Rectangle" fill="#D8D8D8" x="13.9802892" y="57.5279172" width="123.825418" height="1.59735476"></rect>
                <g id="icon-foxpost" transform="translate(14.322268, 20.105056)" fill-rule="nonzero">
                    <g id="icon-gls">
                        <path d="M45.3188478,11.3343348 C46.7991573,11.3343348 48,12.5859607 48,14.1302135 C48,15.6744663 46.7991573,16.9260922 45.3188478,16.9260922 C43.8379621,16.9260922 42.6376956,15.6744663 42.6376956,14.1302135 C42.6376956,12.5859607 43.8379621,11.3343348 45.3188478,11.3343348" id="Path" fill="#FBC808"></path>
                        <path d="M7.71166906,7.91955323 L7.71166906,11.5776898 L10.6303968,11.5776898 C10.2040516,12.2753075 9.24274353,12.6466492 8.59040474,12.6466492 C6.39356555,12.6466492 5.29494427,11.3409444 5.29494427,8.70610066 C5.29494427,5.7966563 6.74494457,4.30708327 9.62310643,4.30708327 C10.7656357,4.30708327 12.2595439,4.60511805 13.8635103,5.13208681 L13.8635103,0.75590273 C13.4020732,0.54980207 12.6989118,0.38936802 11.7981069,0.22893398 C10.8755209,0.06849993 10.0624743,0 9.35954335,0 C6.50322023,0 4.24040384,0.80217023 2.5486792,2.4059098 C0.85689693,4.0090485 0,6.16319101 0,8.88936802 C0,11.3866111 0.65908057,13.3574862 1.97741457,14.8001909 C3.29551809,16.2669306 5.07523154,17 7.3162092,17 C9.56663686,17 11.634057,15.7820232 12.3002827,14.2359678 L12.2858772,16.7247985 L15.5408294,16.7247985 L15.5408294,7.91955323 L7.71166906,7.91955323 Z M17.1466396,16.7247985 L17.1466396,0.27520147 L22.2000324,0.27520147 L22.2000324,12.4405486 L27.7146318,12.4405486 L27.7146318,16.7247985 L17.1466396,16.7247985 Z M29.3190591,16.3125972 L29.3190591,11.8222466 C30.0661285,12.0740139 30.9448641,12.2801145 31.9336579,12.4633819 C32.9222211,12.6466492 33.7788875,12.7385833 34.5043487,12.7385833 C35.7345786,12.7385833 36.3718781,12.4177153 36.3718781,11.8450799 C36.3718781,11.4785452 36.1736583,11.2946769 35.2730263,11.0891771 L33.5155549,10.6763749 C30.5054963,9.96613883 29.0993464,8.38523257 29.0993464,5.70472218 C29.0993464,3.94054856 29.6924497,2.54290965 30.8570482,1.51240634 C32.0214162,0.50413544 33.6475094,0 35.6907859,0 C37.096763,0 39.2495213,0.29803478 40.5679129,0.64173618 L40.5679129,4.92598615 C39.8868208,4.74271879 39.0737742,4.55945144 38.0855567,4.39901739 C37.096763,4.23858335 36.3275091,4.17008342 35.756475,4.17008342 C34.6800958,4.17008342 34.0646927,4.49035063 34.0646927,5.06358688 C34.0646927,5.40728828 34.3504979,5.63622226 34.9434284,5.7966563 L36.9867049,6.30019087 C39.9749824,7.03386117 41.3590632,8.63760074 41.3590632,11.3637777 C41.3590632,13.1051181 40.7436601,14.4793228 39.5353265,15.4875937 C38.3269929,16.4958646 36.657107,17 34.526245,17 C32.504692,17 30.4615883,16.7019652 29.3190591,16.3125972" id="Shape" fill="#061AB1"></path>
                    </g>
                </g>
                <rect id="Rectangle" fill="#D8D8D8" x="13.9802892" y="68.7094005" width="66.7059512" height="3.9933869"></rect>
                <rect id="Rectangle" fill="#D8D8D8" x="13.9802892" y="78.6928677" width="51.9267883" height="3.9933869"></rect>
                <rect id="Rectangle" fill="#D8D8D8" x="13.9802892" y="88.6763349" width="51.9267883" height="3.9933869"></rect>
                <rect id="Rectangle" fill="#D8D8D8" x="13.9802892" y="98.6598022" width="38.345936" height="3.9933869"></rect>
                <g id="icons8-barcode-2" transform="translate(13.980289, 132.181106)" fill="#D8D8D8" fill-rule="nonzero">
                    <path d="M0,0 L0,31.9470952 L6.63350455,31.9470952 L6.63350455,0 L0,0 Z M11.0558409,0 L11.0558409,31.9470952 L28.7451864,31.9470952 L28.7451864,0 L11.0558409,0 Z M33.1675228,0 L33.1675228,31.9470952 L37.5898591,31.9470952 L37.5898591,0 L33.1675228,0 Z M42.0121955,0 L42.0121955,31.9470952 L48.6457001,31.9470952 L48.6457001,0 L42.0121955,0 Z M53.0680364,0 L53.0680364,31.9470952 L57.4903728,31.9470952 L57.4903728,0 L53.0680364,0 Z M61.9127092,0 L61.9127092,31.9470952 L70.7573819,31.9470952 L70.7573819,0 L61.9127092,0 Z M75.1797183,0 L75.1797183,31.9470952 L79.6020547,31.9470952 L79.6020547,0 L75.1797183,0 Z M84.024391,0 L84.024391,31.9470952 L88.4467274,31.9470952 L88.4467274,0 L84.024391,0 Z M92.8690638,0 L92.8690638,31.9470952 L110.558409,31.9470952 L110.558409,0 L92.8690638,0 Z M114.980746,0 L114.980746,31.9470952 L123.825418,31.9470952 L123.825418,0 L114.980746,0 Z" id="Shape"></path>
                </g>
            </g>
        </g>
    </g>
</svg>