<svg height="48" viewBox="0 0 48 48" width="48" xmlns="http://www.w3.org/2000/svg"><g fill="none" transform="translate(8)"><path d="m30.2125652 7.35704361c.986873 0 1.7874348.8124223 1.7874348 1.81478683 0 1.00236456-.8005618 1.81478686-1.7874348 1.81478686-.9872571 0-1.7874348-.8124223-1.7874348-1.81478686 0-1.00236453.8001777-1.81478683 1.7874348-1.81478683" fill="#fbc808"/><path d="m15.9998656 15.969578c8.7117182 0 15.773872 7.1702216 15.773872 16.015172 0 8.8450284-7.0621538 16.01525-15.773872 16.01525-8.71156467 0-15.77387207-7.1702216-15.77387207-16.01525 0-8.8449504 7.0623074-16.015172 15.77387207-16.015172zm-.0000001 5.1966946c-3.6091739 0-6.53514277 2.9704312-6.53514277 6.6351071 0 2.889267 1.81943417 5.3456451 4.35795277 6.2564318l-2.5764722 5.4240791c-.3222992.6786047.1646068 1.4656364.9066631 1.4656364h7.8127381c.7418642 0 1.2288086-.7870317.906471-1.4656364l-2.593874-5.4603515c2.4856983-.9392584 4.2568069-3.3694269 4.2568069-6.2201594 0-3.6646759-2.9258153-6.6351071-6.5351429-6.6351071zm-9.76016993-21.1662726c.46862061 0 1.01065167.04446286 1.62570902.14859957.6005366.1041367 1.06931087.20827341 1.37693558.34205202v2.84055285c-1.06931087-.34205201-2.06524972-.53550447-2.82693588-.53550447-1.91877458 0-2.88544144.96687224-2.88544144 2.85537382 0 1.71026009.73241418 2.55778465 2.19697364 2.55778465.43489253 0 1.07576455-.24103551 1.35999472-.69385466h-1.94581851v-2.37447286h5.2194402v5.71542798h-2.1699681l.00960367-1.61548404c-.44415046 1.00353464-1.82243056 1.79411554-3.32271567 1.79411554-1.49398511 0-2.68046074-.4758307-3.55919642-1.42788197-.87888933-.93645028-1.31827638-2.21573263-1.31827638-3.83667698 0-1.76954392.57126462-3.16778393 1.69911946-4.20837092 1.12781643-1.04097701 2.6363607-1.56166053 4.54057611-1.56166053zm17.55416173 0c.937318 0 2.3724902.19345245 3.251418.41654681v2.78087903c-.4540615-.11895766-.9960925-.23791532-1.6549042-.34205202-.6591958-.10413671-1.1720317-.14859957-1.5527211-.14859957-.7175861 0-1.1278549.20788338-1.1278549.57996734 0 .22309436.1905368.37169392.5858238.47583063l1.3621844.32684104c1.992185.47622066 2.9149055 1.51719767 2.9149055 3.28674158 0 1.13029276-.4102687 2.02228019-1.2158245 2.67674236-.8055557.6544621-1.918813.9816932-3.3393876.9816932-1.347702 0-2.7097711-.1934525-3.4714573-.4461888v-2.9146576c.4980462.16342052 1.08387.29719913 1.7430658.41615679.6590422.11895765 1.2301532.1786315 1.7137939.1786315.8201533 0 1.2450196-.20827341 1.2450196-.57996734 0-.23791531-.1321465-.357263-.7325678-.49065158l-1.1716476-.26794725c-2.0067058-.46100968-2.9441391-1.48716574-2.9441391-3.22706775 0-1.14511371.3954023-2.05231212 1.1718013-2.72120517.7762453-.65446213 1.8603074-.9816932 3.2224918-.9816932zm-8.9938357.1786315v7.89644834h3.6763996v2.78087906h-7.0453281v-10.6773274z" fill="#061ab1"/></g></svg>