<?xml version="1.0" encoding="UTF-8"?>
<svg width="48px" height="48px" viewBox="0 0 48 48" version="1.1" xmlns="http://www.w3.org/2000/svg" xmlns:xlink="http://www.w3.org/1999/xlink">
    <title>Artboard</title>
    <g id="Artboard" stroke="none" stroke-width="1" fill="none" fill-rule="evenodd">
        <g id="icon-gls" transform="translate(0, 5)" fill-rule="nonzero">
            <path d="M45.3188478,11.3343348 C46.7991573,11.3343348 48,12.5859607 48,14.1302135 C48,15.6744663 46.7991573,16.9260922 45.3188478,16.9260922 C43.8379621,16.9260922 42.6376956,15.6744663 42.6376956,14.1302135 C42.6376956,12.5859607 43.8379621,11.3343348 45.3188478,11.3343348" id="Path" fill="#FBC808"></path>
            <path d="M7.71166906,7.91955323 L7.71166906,11.5776898 L10.6303968,11.5776898 C10.2040516,12.2753075 9.24274353,12.6466492 8.59040474,12.6466492 C6.39356555,12.6466492 5.29494427,11.3409444 5.29494427,8.70610066 C5.29494427,5.7966563 6.74494457,4.30708327 9.62310643,4.30708327 C10.7656357,4.30708327 12.2595439,4.60511805 13.8635103,5.13208681 L13.8635103,0.75590273 C13.4020732,0.54980207 12.6989118,0.38936802 11.7981069,0.22893398 C10.8755209,0.06849993 10.0624743,0 9.35954335,0 C6.50322023,0 4.24040384,0.80217023 2.5486792,2.4059098 C0.85689693,4.0090485 0,6.16319101 0,8.88936802 C0,11.3866111 0.65908057,13.3574862 1.97741457,14.8001909 C3.29551809,16.2669306 5.07523154,17 7.3162092,17 C9.56663686,17 11.634057,15.7820232 12.3002827,14.2359678 L12.2858772,16.7247985 L15.5408294,16.7247985 L15.5408294,7.91955323 L7.71166906,7.91955323 Z M17.1466396,16.7247985 L17.1466396,0.27520147 L22.2000324,0.27520147 L22.2000324,12.4405486 L27.7146318,12.4405486 L27.7146318,16.7247985 L17.1466396,16.7247985 Z M29.3190591,16.3125972 L29.3190591,11.8222466 C30.0661285,12.0740139 30.9448641,12.2801145 31.9336579,12.4633819 C32.9222211,12.6466492 33.7788875,12.7385833 34.5043487,12.7385833 C35.7345786,12.7385833 36.3718781,12.4177153 36.3718781,11.8450799 C36.3718781,11.4785452 36.1736583,11.2946769 35.2730263,11.0891771 L33.5155549,10.6763749 C30.5054963,9.96613883 29.0993464,8.38523257 29.0993464,5.70472218 C29.0993464,3.94054856 29.6924497,2.54290965 30.8570482,1.51240634 C32.0214162,0.50413544 33.6475094,0 35.6907859,0 C37.096763,0 39.2495213,0.29803478 40.5679129,0.64173618 L40.5679129,4.92598615 C39.8868208,4.74271879 39.0737742,4.55945144 38.0855567,4.39901739 C37.096763,4.23858335 36.3275091,4.17008342 35.756475,4.17008342 C34.6800958,4.17008342 34.0646927,4.49035063 34.0646927,5.06358688 C34.0646927,5.40728828 34.3504979,5.63622226 34.9434284,5.7966563 L36.9867049,6.30019087 C39.9749824,7.03386117 41.3590632,8.63760074 41.3590632,11.3637777 C41.3590632,13.1051181 40.7436601,14.4793228 39.5353265,15.4875937 C38.3269929,16.4958646 36.657107,17 34.526245,17 C32.504692,17 30.4615883,16.7019652 29.3190591,16.3125972" id="Shape" fill="#061AB1"></path>
        </g>
        <path d="M4.5,32.5 C5.8802923,32.5 7,33.6191704 7,35 C7,36.3808296 5.8802923,37.5 4.5,37.5 C3.11917043,37.5 2,36.3808296 2,35 C2,33.6191704 3.11917043,32.5 4.5,32.5" id="Path" fill="#FD860E" fill-rule="nonzero"></path>
        <g id="XXL" transform="translate(11, 29)" fill="#000000" fill-rule="nonzero">
            <path d="M0,12 L5.07509881,4.66308725 L5.07509881,7.15167785 L0.4743083,0 L4.18181818,0 L5.12252964,1.56241611 C5.33539196,1.91233221 5.51766304,2.25 5.66934289,2.57541946 C5.82102273,2.90083893 5.96280056,3.21231124 6.09467638,3.50983641 C6.22655221,3.80736158 6.36627141,4.09035235 6.51383399,4.35880872 L5.54940711,4.35880872 C5.70750988,4.09035235 5.85346673,3.80736158 5.98727767,3.50983641 C6.1210886,3.21231124 6.26550148,2.90083893 6.4205163,2.57541946 C6.57553113,2.25 6.7594697,1.91233221 6.97233202,1.56241611 L7.92885375,0 L11.541502,0 L7.08300395,6.95838926 L7.08300395,4.63087248 L12,12 L8.18181818,12 L6.90118577,9.93825503 C6.71385046,9.63338926 6.56015316,9.36828859 6.44009387,9.14295302 C6.32003458,8.91761745 6.21140069,8.70912332 6.11419219,8.51747064 C6.0169837,8.32581795 5.90513834,8.12797819 5.77865613,7.92395134 L6.2055336,7.92395134 C6.08432148,8.12797819 5.9741642,8.32678272 5.87506176,8.52036493 C5.77595932,8.71394715 5.66602849,8.92340604 5.54526927,9.14874161 C5.42451005,9.37407718 5.26515152,9.63724832 5.06719368,9.93825503 L3.71541502,12 L0,12 Z" id="Path"></path>
            <path d="M13,12 L18.0750988,4.66308725 L18.0750988,7.15167785 L13.4743083,0 L17.1818182,0 L18.1225296,1.56241611 C18.335392,1.91233221 18.517663,2.25 18.6693429,2.57541946 C18.8210227,2.90083893 18.9628006,3.21231124 19.0946764,3.50983641 C19.2265522,3.80736158 19.3662714,4.09035235 19.513834,4.35880872 L18.5494071,4.35880872 C18.7075099,4.09035235 18.8534667,3.80736158 18.9872777,3.50983641 C19.1210886,3.21231124 19.2655015,2.90083893 19.4205163,2.57541946 C19.5755311,2.25 19.7594697,1.91233221 19.972332,1.56241611 L20.9288538,0 L24.541502,0 L20.083004,6.95838926 L20.083004,4.63087248 L25,12 L21.1818182,12 L19.9011858,9.93825503 C19.7138505,9.63338926 19.5601532,9.36828859 19.4400939,9.14295302 C19.3200346,8.91761745 19.2114007,8.70912332 19.1141922,8.51747064 C19.0169837,8.32581795 18.9051383,8.12797819 18.7786561,7.92395134 L19.2055336,7.92395134 C19.0843215,8.12797819 18.9741642,8.32678272 18.8750618,8.52036493 C18.7759593,8.71394715 18.6660285,8.92340604 18.5452693,9.14874161 C18.42451,9.37407718 18.2651515,9.63724832 18.0671937,9.93825503 L16.715415,12 L13,12 Z" id="Path"></path>
            <polygon id="Path" points="26 12 26 0 29.1933607 0 29.1933607 9.31635906 34 9.31635906 34 12"></polygon>
        </g>
    </g>
</svg>