<?xml version="1.0" encoding="UTF-8"?>
<svg width="48px" height="48px" viewBox="0 0 48 48" version="1.1" xmlns="http://www.w3.org/2000/svg" xmlns:xlink="http://www.w3.org/1999/xlink">
    <title>Artboard Copy</title>
    <g id="Artboard-Copy" stroke="none" stroke-width="1" fill="none" fill-rule="evenodd">
        <path d="M39.5012464,12.0321285 C39.0209012,12.0321285 38.5085331,12.1606426 38.0281879,12.2891566 C32.2,13.8634538 30.3426654,20.1285141 32.4882071,24.8514056 C33.3848514,26.8433735 34.7298178,28.6425703 35.6584851,30.6345382 C36.3950144,32.2409639 37.2916587,34.0401606 37.1315436,35.6787149 C36.9073826,38.313253 34.8258869,39.5662651 31.9758389,39.5662651 C1.68207095,39.5662651 -59.6419942,39.5662651 -68,39.5662651 L-68,44 L32.9685523,44 C39.5012464,44 43.2479386,37.7349398 41.358581,32.2409639 C40.4299137,29.6064257 38.7647172,27.2289157 37.5798658,24.6586345 C36.9714286,23.2771084 36.2028763,21.6706827 36.3629914,20.2891566 C36.6832215,17.62249 38.5725791,16.4016064 41.294535,16.4016064 L99,16.4016064 L99,12 C99,12 49.4604027,12 39.5012464,12.0321285" id="Path" fill="#28367B"></path>
        <path d="M14.5012464,4.03212851 C14.0209012,4.03212851 13.5085331,4.16064257 13.0281879,4.28915663 C7.2,5.86345382 5.34266539,12.1285141 7.48820709,16.8514056 C8.38485139,18.8433735 9.72981783,20.6425703 10.6584851,22.6345382 C11.3950144,24.2409639 12.2916587,26.0401606 12.1315436,27.6787149 C11.9073826,30.313253 9.82588686,31.5662651 6.97583893,31.5662651 C-23.3179291,31.5662651 -84.6419942,31.5662651 -93,31.5662651 L-93,36 L7.96855225,36 C14.5012464,36 18.2479386,29.7349398 16.358581,24.2409639 C15.4299137,21.6064257 13.7647172,19.2289157 12.5798658,16.6586345 C11.9714286,15.2771084 11.2028763,13.6706827 11.3629914,12.2891566 C11.6832215,9.62248996 13.5725791,8.40160643 16.294535,8.40160643 L74,8.40160643 L74,4 C74,4 24.4604027,4 14.5012464,4.03212851" id="Path" fill="#28367B"></path>
        <rect id="Rectangle" fill="#28367B" x="20" y="23" width="8" height="4"></rect>
    </g>
</svg>