<?xml version="1.0" encoding="UTF-8"?>
<svg width="48px" height="48px" viewBox="0 0 48 48" version="1.1" xmlns="http://www.w3.org/2000/svg" xmlns:xlink="http://www.w3.org/1999/xlink">
    <title>Artboard</title>
    <g id="Artboard" stroke="none" stroke-width="1" fill="none" fill-rule="evenodd">
        <g id="Group-4" transform="translate(4.500000, 2.000000)">
            <polygon id="Path-7" fill="#000000" points="18.9307088 0 4.10903453 8.92403692 18.9307088 2.74779294 28.0725603 6.06213884"></polygon>
            <polygon id="Path-8" fill="#000000" points="39 32.6466493 37.6111119 22.0293539 36.060037 31.8858748 22.9175194 42.6344904"></polygon>
            <polygon id="Path-9" fill="#000000" points="16.0907974 41.7682183 0.614349112 32.9404093 0.614349112 22.0293539 2.92266061 31.5044944"></polygon>
            <path d="M17.3382105,42.1635032 C17.3382105,42.1635032 18.6003447,42.7756688 21.1246129,44 C21.6028445,35.7876672 19.7969466,28.0296215 15.706919,20.7258628 C15.706919,20.7258628 18.9467083,31.8987861 17.3382105,42.1635032 Z" id="Path-10" fill="#8E5B2E"></path>
            <path d="M8.59786892,22.6279596 C8.59786892,22.6279596 9.59923628,23.09164 11.601971,24.0190006 C13.2657655,16.8090306 12.7333019,9.49144239 10.0045804,2.06623608 C10.0045804,2.06623608 10.9727281,12.780746 8.59786892,22.6279596 Z" id="Path-10" fill="#8E5B2E" transform="translate(10.572578, 13.042618) rotate(-62.000000) translate(-10.572578, -13.042618) "></path>
            <path d="M19.5003348,21.7433186 C19.5003348,21.7433186 20.3423177,22.7964553 22.0262834,24.9027287 C27.2099754,19.0045746 32.8171577,14.4398308 38.8478304,11.2084973 C38.8985078,11.1801305 35.6063911,11.0835874 28.672432,15.0411316 C23.3945108,18.0534953 19.5003348,21.7433186 19.5003348,21.7433186 Z" id="Path-11" fill="#8E5B2E"></path>
        </g>
    </g>
</svg>