<?xml version="1.0" encoding="UTF-8"?>
<svg width="48px" height="48px" viewBox="0 0 48 48" version="1.1" xmlns="http://www.w3.org/2000/svg" xmlns:xlink="http://www.w3.org/1999/xlink">
    <title>Artboard</title>
    <g id="Artboard" stroke="none" stroke-width="1" fill="none" fill-rule="evenodd">
        <g id="elta">
            <path d="M48,44.25 C48,46.321875 46.321875,48 44.25,48 L3.75,48 C1.678125,48 0,46.321875 0,44.25 L0,3.75 C0,1.678125 1.678125,0 3.75,0 L44.25,0 C46.321875,0 48,1.678125 48,3.75 L48,44.25 Z" id="Path" fill="#A82035" fill-rule="nonzero"></path>
            <path d="M35.45625,13.48125 C34.790625,13.621875 34.33125,13.96875 33.778125,14.2125 C34.734375,15.253125 36.028125,15.95625 36.3,17.68125 C37.434375,19.35 39.328125,20.259375 40.396875,21.99375 C40.2375,22.575 39.646875,22.715625 39.346875,23.146875 C40.10625,23.9625 39.09375,24.7875 39.975,25.35 C39.271875,26.765625 41.146875,28.509375 39.553125,29.55 C37.715625,30.759375 35.746875,30.178125 33.5625,30.703125 C28.40625,31.959375 26.840625,39.6375 20.634375,39.215625 C25.63125,37.66875 26.49375,31.96875 31.565625,30.496875 C29.85,30.009375 28.275,29.371875 27.571875,27.871875 C30,30.046875 36.6,29.85 39.028125,27.76875 C39.065625,26.428125 38.04375,25.303125 37.875,23.878125 C37.78125,23.146875 38.0625,22.396875 37.978125,21.675 C37.809375,20.221875 36.609375,19.415625 35.775,18.628125 C34.678125,18.6375 33.58125,18.646875 32.625,18.525 C33.05625,17.6625 33.890625,17.203125 34.725,16.734375 C34.490625,15.80625 34.0125,15.13125 33.459375,14.53125 C30.43125,16.753125 29.04375,20.625 24,20.840625 C28.275,19.6875 29.146875,15.13125 32.30625,12.853125 C31.36875,11.55 28.828125,11.2875 27.2625,10.959375 C30.80625,10.565625 34.003125,11.428125 35.45625,13.48125 Z" id="Path" fill="#FFFFFF"></path>
            <path d="M7.603125,8.75625 C9.15,9.1125 10.6125,9.590625 12.440625,9.703125 C15.459375,9.890625 18.328125,8.653125 21.684375,8.971875 C24.515625,9.234375 26.0625,10.78125 27.571875,12.54375 C25.996875,11.64375 24.2625,10.978125 21.9,10.96875 C19.33125,10.959375 16.55625,11.559375 14.015625,11.390625 C11.165625,11.19375 9.309375,9.99375 7.603125,8.75625 Z" id="Path" fill="#FFFFFF"></path>
            <path d="M9.290625,10.640625 C10.940625,11.49375 12.796875,12.271875 15.28125,12.43125 C20.325,12.740625 26.925,10.828125 29.053125,15.159375 C27.065625,14.278125 24.525,14.203125 22.0125,14.315625 C16.659375,14.56875 11.840625,13.36875 9.290625,10.640625 Z" id="Path" fill="#FFFFFF"></path>
            <path d="M13.171875,13.903125 C16.35,15.721875 22.36875,15.196875 27.046875,15.69375 C22.678125,17.653125 15.84375,16.678125 13.171875,13.903125 Z" id="Path" fill="#FFFFFF"></path>
        </g>
    </g>
</svg>