<svg height="48" viewBox="0 0 48 48" width="48" xmlns="http://www.w3.org/2000/svg"><g fill="none" transform="translate(0 15)"><path d="m45.3188478 11.3343348c1.4803095 0 2.6811522 1.2516259 2.6811522 2.7958787s-1.2008427 2.7958787-2.6811522 2.7958787c-1.4808857 0-2.6811522-1.2516259-2.6811522-2.7958787s1.2002665-2.7958787 2.6811522-2.7958787" fill="#fbc808"/><path d="m7.71166906 7.91955323v3.65813657h2.91872774c-.4263452.6976177-1.38765327 1.0689594-2.03999206 1.0689594-2.19683919 0-3.29546047-1.3057048-3.29546047-3.94054854 0-2.90944436 1.4500003-4.39901739 4.32816216-4.39901739 1.14252927 0 2.63643747.29803478 4.24040387.82500354v-4.37618408c-.4614371-.20610066-1.1645985-.36653471-2.0654034-.52696875-.922586-.16043405-1.7356326-.22893398-2.43856355-.22893398-2.85632312 0-5.11913951.80217023-6.81086415 2.4059098-1.69178227 1.6031387-2.5486792 3.75728121-2.5486792 6.48345822 0 2.49724308.65908057 4.46811818 1.97741457 5.91082288 1.31810352 1.4667397 3.09781697 2.1998091 5.33879463 2.1998091 2.25042766 0 4.3178478-1.2179768 4.9840735-2.7640322l-.0144055 2.4888307h3.2549522v-8.80524527zm9.43497054 8.80524527v-16.44959703h5.0533928v12.16534713h5.5145994v4.2842499zm12.1724195-.4122013v-4.4903506c.7470694.2517673 1.625805.4578679 2.6145988.6411353.9885632.1832673 1.8452296.2752014 2.5706908.2752014 1.2302299 0 1.8675294-.320868 1.8675294-.8935034 0-.3665347-.1982198-.550403-1.0988518-.7559028l-1.7574714-.4128022c-3.0100586-.71023607-4.4162085-2.29114233-4.4162085-4.97165272 0-1.76417362.5931033-3.16181253 1.7577018-4.19231584 1.164368-1.0082709 2.7904612-1.51240634 4.8337377-1.51240634 1.4059771 0 3.5587354.29803478 4.877127.64173618v4.28424997c-.6810921-.18326736-1.4941387-.36653471-2.4823562-.52696876-.9887937-.16043404-1.7580476-.22893397-2.3290817-.22893397-1.0763792 0-1.6917823.32026721-1.6917823.89350346 0 .3437014.2858052.57263538.8787357.73306942l2.0432765.50353457c2.9882775.7336703 4.3723583 2.33740987 4.3723583 5.06358683 0 1.7413404-.6154031 3.1155451-1.8237367 4.123816s-2.8782195 1.5124063-5.0090815 1.5124063c-2.021553 0-4.0646567-.2980348-5.2071859-.6874028" fill="#061ab1"/></g></svg>