<?xml version="1.0" encoding="UTF-8"?>
<svg width="48px" height="48px" viewBox="0 0 48 48" version="1.1" xmlns="http://www.w3.org/2000/svg" xmlns:xlink="http://www.w3.org/1999/xlink">
    <title>Artboard</title>
    <g id="Artboard" stroke="none" stroke-width="1" fill="none" fill-rule="evenodd">
        <circle id="Oval" fill="#FED62E" cx="24" cy="24" r="24"></circle>
        <path d="M39.7836322,24.3575696 C39.6695303,24.3641754 39.5770996,24.4537864 39.5656294,24.568922 C38.7101074,29.3433254 34.4329726,32.6934997 29.6539327,32.3325098 C24.8748929,31.9715198 21.1360432,28.0158493 20.989641,23.1657644 C20.8432388,18.3156796 24.336525,14.1362002 29.0848717,13.4803714 C29.2059127,13.4700257 29.2978942,13.3657499 29.2944269,13.2428069 C29.2943549,13.179705 29.2694913,13.1192248 29.2253214,13.0747086 C29.1811515,13.0301925 29.1213047,13.0052984 29.0589838,13.0055183 C28.840981,13.0016555 28.7521449,13.0016555 28.529782,13 L9,13 L18.6392669,29.9451638 C21.098021,34.5751274 26.3444842,36.9275418 31.382908,35.6591703 C36.4213318,34.3907988 39.9689251,29.8245709 40,24.5678183 C39.9935738,24.4510897 39.8990834,24.3592717 39.7836322,24.3575696 Z" id="Path" fill="#000000" fill-rule="nonzero"></path>
    </g>
</svg>