<?xml version="1.0" encoding="UTF-8"?>
<svg width="48px" height="48px" viewBox="0 0 48 48" version="1.1" xmlns="http://www.w3.org/2000/svg" xmlns:xlink="http://www.w3.org/1999/xlink">
    <title>Artboard</title>
    <g id="Artboard" stroke="none" stroke-width="1" fill="none" fill-rule="evenodd">
        <g id="icon-sprinter" transform="translate(0, 6)" fill-rule="nonzero">
            <g id="Group" transform="translate(24, 18.5) scale(-1, 1) rotate(-180) translate(-24, -18.5)">
                <path d="M27.9482974,36.9880684 C26.4081066,36.9568817 23.9975345,36.8383724 22.8844866,36.7398225 C18.5437235,36.3543551 14.1101033,35.6021324 10.6706738,34.669027 C6.41410122,33.5138725 3.42905281,32.0992447 1.75143331,30.4401135 C0.93429024,29.6330022 0.48486155,28.8845219 0.2471472,27.9389419 C-0.0623766901,26.7014545 -0.0809481301,25.4327804 0.1901948,24.0593191 C0.77333782,21.102822 2.63295736,17.8806144 5.8903868,14.1793794 C8.13010168,11.6357939 9.73838782,9.98414744 11.593055,8.32252122 C14.4988653,5.71905732 17.87639,3.29647615 21.6154386,1.13087321 C21.9843911,0.916308861 22.1453435,0.833976031 22.3917245,0.726693861 C23.770963,0.132899501 25.3730587,-0.109109119 26.8959162,0.0455768013 C29.004393,0.261388621 31.0026792,1.23316551 32.814013,2.92098854 C33.9332514,3.96387106 35.9550615,6.35277062 37.6983,8.69052402 C41.9462059,14.3864589 45.5428736,20.7922027 47.3034455,25.7995357 C47.5139217,26.3983199 47.7924932,27.2815267 47.8878266,27.6545193 C48.0066837,28.1148347 48.0339218,28.8545827 47.9559218,29.4546144 C47.8098265,30.5623652 47.3542074,31.5640813 46.6063977,32.4235862 C46.4541119,32.5982316 46.0963023,32.9500173 45.9192546,33.0984659 C45.2283973,33.6797856 44.4372542,34.1388535 43.424492,34.5467752 C39.6891577,36.0524681 36.0429663,36.7922161 31.4954412,36.9643665 C30.533441,37.0005431 29.0415358,37.0105228 27.9482974,36.9880684 L27.9482974,36.9880684 Z" id="Path" fill="#E8371D"></path>
                <g id="Group-33" transform="translate(8, 6)">
                    <path d="M21.3979142,24.9886871 C24.4698859,24.9007914 26.8367173,24.480679 29.2972699,23.5853333 C30.2047289,23.2546066 30.6465573,23.04753 31.1449159,22.7153135 C31.8232786,22.2639161 32.3112237,21.7276026 32.6295782,21.0780673 C32.8839642,20.5611206 32.9985124,20.056092 33,19.4542289 C33,18.9849545 32.9657843,18.8106526 32.7337129,18.0910986 C31.5733555,14.5097156 28.7706463,9.59052831 25.4978435,5.39089492 C24.4550095,4.05160075 23.2470477,2.66910351 22.5671973,2.03595553 C21.6850283,1.21360803 20.725502,0.629622133 19.7243219,0.30634422 C18.4509041,-0.10482953 17.0822775,-0.101850003 15.8043968,0.313793025 C15.3700066,0.455320212 15.1840519,0.540236533 14.6737922,0.832229487 C12.0332354,2.33986657 9.63516364,4.05755979 7.59263721,5.89890308 C7.05708768,6.38158536 6.83989253,6.59015176 6.14814108,7.28140032 C5.35225488,8.07842188 4.59653503,8.88736159 3.80659939,9.78568687 C1.60043284,12.2944426 0.358255435,14.5410005 0.0651908575,16.549197 C0.0116358319,16.9126984 -0.00770340614,17.2359764 0.00271009443,17.5994778 C0.0220493325,18.3309499 0.155936716,18.9492003 0.399909317,19.4423108 C0.576938226,19.801343 0.776281659,20.0754588 1.10653719,20.4136344 C1.85779411,21.1838403 2.96757178,21.8512528 4.54298,22.4784416 C7.28618385,23.5719255 11.3489222,24.4151296 15.7895204,24.815875 C16.5392898,24.8844039 18.4062749,24.9767691 19.3672889,24.9931564 C19.9474676,25.0035848 20.951623,25.002095 21.3979142,24.9886871 L21.3979142,24.9886871 Z" id="Path" stroke="#000000" stroke-width="1.815" fill="#FFFFFF"></path>
                    <g id="Group" transform="translate(6.5241, 10.0242)" fill="#000000">
                        <path d="M10.5075563,11.9313042 C11.2483998,11.7540227 11.6277475,11.6467599 12.0695758,11.4858659 C13.3920856,11.0061632 14.449796,10.3149145 15.1593992,9.46724112 C15.3483291,9.24377709 15.5565984,8.93390709 15.6562701,8.72980998 L15.7291644,8.580834 L15.7291644,8.85197029 C15.7291644,9.62068638 15.5565984,10.2895887 15.2352687,10.758863 C15.1326217,10.9108186 14.8871615,11.1551392 14.7473235,11.2475042 C14.2831806,11.5499256 13.3653082,11.7808384 12.196025,11.8866113 C11.7378327,11.9283246 11.4879095,11.9402427 10.9464094,11.9476915 C10.439125,11.9536506 10.4153228,11.9536506 10.5075563,11.9313042 Z" id="Path"></path>
                        <path d="M3.43383947,10.4191977 C2.60820064,10.3506688 1.89413455,10.1316741 1.35858502,9.78307019 C1.01345306,9.55960628 0.723363765,9.24973617 0.50765626,8.87729616 C0.315751042,8.54358997 0.159549134,8.06835656 0.128308753,7.72422202 L0.119382895,7.61248995 L0.363355496,7.84340274 C0.779893957,8.23818914 1.08039675,8.49293811 1.47610833,8.78791059 C2.44009759,9.50299534 3.4383024,9.97375947 4.40080389,10.1674284 C4.75188642,10.237447 4.98693317,10.2612832 5.35289201,10.2612832 C5.65934537,10.262773 5.67422168,10.2642627 5.58347582,10.2806501 C5.39008296,10.3193838 5.00627241,10.3759948 4.78758973,10.3983411 C4.5242779,10.4266465 3.67929971,10.4400544 3.43383947,10.4191977 L3.43383947,10.4191977 Z" id="Path"></path>
                        <path d="M11.8836211,9.72645937 C11.2112089,9.67133824 10.6265674,9.52683153 10.098456,9.28400071 C9.33381021,8.9324173 8.73429227,8.43036822 8.29841445,7.77636356 C8.07378121,7.4381881 7.95477014,7.20727531 7.79856823,6.80504015 C7.78666708,6.77524489 7.77030313,6.78716292 7.58881129,6.97040345 C6.99970685,7.56034841 6.24844981,7.90895223 5.27107189,8.04749985 C5.00627241,8.08474388 4.28774351,8.08474388 4.01401817,8.04601017 C3.37730928,7.95811429 2.87746305,7.80317923 2.33298766,7.52608386 C1.06849573,6.87952808 0.222029898,5.65643518 0.0256617506,4.19349093 C-0.00855391686,3.93576247 -0.00855391686,3.41881576 0.0256617506,3.15810771 C0.129796396,2.37449399 0.396083521,1.70112254 0.830473697,1.11713653 C1.10568656,0.749165923 1.44784323,0.446744565 1.78256169,0.278401793 C1.99529391,0.171138997 2.34191352,0.0832432318 2.76440255,0.026632295 C3.03961553,-0.00912193065 3.72392876,-0.00912193065 4.02145638,0.0281220942 C4.7474235,0.116017859 5.38562003,0.300748184 6.0074525,0.603169422 C6.97441704,1.07393355 7.70335944,1.77412079 8.14816312,2.66201771 L8.26866171,2.90484853 L8.37279636,2.76481111 C8.50073317,2.59199894 8.74768106,2.331291 8.89942004,2.20913069 C9.28323059,1.89926058 9.6090232,1.77263099 10.2695343,1.68026583 C10.5387967,1.6430218 11.3093929,1.6430218 11.60097,1.68026583 C12.7196734,1.82626233 13.6702739,2.20615109 14.4795488,2.83185028 C14.6893057,2.9942341 15.0433634,3.34432771 15.2055159,3.54991463 C15.8987551,4.4273832 16.22306,5.5059694 16.0995861,6.52496519 C15.9999144,7.35476149 15.6086657,8.18008852 15.0790667,8.67766832 C14.486987,9.23781813 13.7163907,9.58046287 12.7821543,9.69815391 C12.6036377,9.7205003 12.0353602,9.73837741 11.8836211,9.72645937 L11.8836211,9.72645937 Z" id="Path"></path>
                    </g>
                    <path d="M18.9805031,18.9089768 C19.4520842,18.864284 19.8701104,18.7480827 20.2821861,18.5454754 C20.9828634,18.2028305 21.4455186,17.6963122 21.7326326,16.9559015 C22.1655352,15.8430508 21.9513154,14.5767549 21.1569169,13.5771259 C21.02898,13.4162319 20.7359155,13.1212594 20.5722753,12.9901605 C19.8031667,12.3763794 18.7975237,12.0039394 17.720474,11.9369002 C17.1819492,11.9041255 16.5080494,11.9875521 16.1733309,12.130569 C15.6779476,12.3436046 15.2123171,12.8337357 14.9043761,13.4653939 C14.4803993,14.339883 14.4089928,15.3424915 14.703545,16.2586938 C15.0486768,17.3238721 15.811835,18.156648 16.8427678,18.5886784 C17.5092295,18.8687533 18.2426348,18.9789955 18.9805031,18.9089768 L18.9805031,18.9089768 Z" id="Path" fill="#FFFFFF"></path>
                    <path d="M11.5482656,17.2493842 C12.071914,17.1793654 12.5687849,17.0154918 12.9496202,16.7875586 C13.2040062,16.6341134 13.3408689,16.5283404 13.5357495,16.3331818 C13.7276547,16.1410027 13.8615421,15.9652111 13.9879913,15.7402574 L14.0608855,15.6106482 L14.0653484,15.3261041 C14.0742742,14.7912802 14.1694831,14.265395 14.3390738,13.8199567 L14.3851905,13.6992862 L14.3613883,13.5637181 C14.1456808,12.3152992 13.2530983,11.2560799 11.9514154,10.7018891 C11.2462752,10.4024474 10.5485732,10.2698588 9.78243969,10.2892256 C9.29151932,10.3011438 8.89134481,10.3711624 8.60869361,10.4933227 C8.25909884,10.6437885 7.86189962,11.0013309 7.59412485,11.4080355 C7.08832806,12.1737721 6.87857112,13.1614829 7.02882246,14.0687467 C7.06155048,14.265395 7.14188296,14.5737753 7.20585137,14.7480773 C7.28172092,14.9566437 7.47660142,15.3439812 7.60156295,15.5361603 C8.24868534,16.5328097 9.34209894,17.1525498 10.6586583,17.2717306 C10.860977,17.2896077 11.3340457,17.2776897 11.5482656,17.2493842 Z" id="Path" fill="#FFFFFF"></path>
                    <g id="Group" transform="translate(9.2542, 4.6257)" fill="#000000">
                        <path d="M8.84113514,13.4549936 C8.52129299,13.4117907 8.08839045,13.2583454 7.83400447,13.0989411 C7.43978041,12.851641 7.11398781,12.4404671 6.96819929,12.0039676 C6.84918833,11.6479149 6.84918833,11.2352513 6.96671176,10.9432585 C7.07233393,10.6840402 7.31481889,10.4426991 7.62573518,10.2862743 C7.89350995,10.1521959 8.19996331,10.0821772 8.52724356,10.0821772 C8.89022711,10.0821772 9.16692774,10.1507061 9.50759677,10.325008 C10.0788496,10.617001 10.5191904,11.0415826 10.672417,11.4512666 C10.7512618,11.659833 10.7691134,11.8490325 10.7289472,12.0471705 C10.6947315,12.2125339 10.6322507,12.3510816 10.5013386,12.5521992 C10.077362,13.2002448 9.65487282,13.4698913 9.07171895,13.4624425 C8.96907195,13.4624425 8.86642495,13.4579732 8.84113514,13.4549936 L8.84113514,13.4549936 Z M9.70396492,12.6698902 C9.98215318,12.5924227 10.1710831,12.3927949 10.2171999,12.1261279 C10.2722425,11.808809 10.0550474,11.4780823 9.71586606,11.3633707 C9.57751575,11.3156984 9.35734531,11.3156984 9.2294085,11.3633707 C8.98097309,11.4527563 8.81584521,11.6434456 8.77419144,11.8907458 C8.71617349,12.2229622 8.97204723,12.5834842 9.32908022,12.6698902 C9.43321486,12.6952161 9.61321906,12.6952161 9.70396492,12.6698902 L9.70396492,12.6698902 Z" id="Shape"></path>
                        <path d="M1.88642927,12.2214725 C1.73469017,12.1961465 1.55766138,12.1484743 1.39997171,12.0933531 C0.868885106,11.9056433 0.440445502,11.5361829 0.199448187,11.0564802 C0.0625855169,10.7853438 0.0120058973,10.5931648 0.00159239675,10.2981924 C-0.0132840326,9.87510049 0.0744866604,9.62184132 0.331847928,9.35964358 C0.572845242,9.11383316 0.897150202,8.95591863 1.30476292,8.88589997 C1.48625476,8.85461491 1.80907208,8.85461491 1.99205156,8.88589997 C2.69570415,9.00359101 3.5362194,9.62035152 3.77424143,10.1924194 C3.93639391,10.585716 3.88432653,10.9372994 3.60018781,11.3589015 C3.25356821,11.877338 2.89355994,12.1514537 2.4606574,12.2274315 C2.34164633,12.2497779 2.02477958,12.2453086 1.88642927,12.2214725 L1.88642927,12.2214725 Z M2.83107917,11.4467973 C3.16579763,11.3589015 3.38596795,11.0371133 3.33241304,10.7153252 C3.23720425,10.138788 2.48445957,9.90042648 2.07089627,10.31309 C1.70493743,10.6810606 1.90279322,11.3008008 2.43239231,11.4467973 C2.53057638,11.473613 2.72545688,11.473613 2.83107917,11.4467973 Z" id="Shape"></path>
                        <path d="M12.1808815,4.54622917 C12.0246796,4.42257906 11.5888018,4.10079091 11.3403663,3.92797874 C9.29337691,2.50376831 7.26423927,1.70674664 5.32287208,1.56075026 C5.02088165,1.53840386 4.20714396,1.5518117 3.95424551,1.58309665 C3.60465074,1.62778943 3.11373025,1.73058283 2.95455306,1.79315272 C2.90843625,1.81102983 2.92628796,1.77974489 2.98430579,1.74250098 C3.32199954,1.52052675 3.85903672,1.21512592 4.29193925,0.996131164 C5.70965793,0.278066898 6.99200157,-0.0690471696 7.92623797,0.0113998619 C8.44542344,0.0560926678 8.87386316,0.212517453 9.34395665,0.525367034 C10.2395145,1.12425055 11.1261465,2.23859098 11.8402125,3.665781 C12.018729,4.0218337 12.2656769,4.5804936 12.2522881,4.59539123 C12.2493129,4.59688103 12.2165848,4.57602432 12.1808815,4.54622917 L12.1808815,4.54622917 Z" id="Path"></path>
                    </g>
                </g>
            </g>
        </g>
    </g>
</svg>