<?xml version="1.0" encoding="UTF-8"?>
<svg width="48px" height="48px" viewBox="0 0 48 48" version="1.1" xmlns="http://www.w3.org/2000/svg" xmlns:xlink="http://www.w3.org/1999/xlink">
    <title>Artboard</title>
    <g id="Artboard" stroke="none" stroke-width="1" fill="none" fill-rule="evenodd">
        <g id="Group" stroke="#FFFFFF" stroke-width="1.52870001">
            <path d="M26.7311702,0.199852999 C26.2082321,-0.0548634559 25.6271259,-0.0548634559 25.1040442,0.136173885 L1.91767902,9.75108484 C0.755466721,10.1968386 0,11.406583 0,12.8075235 L0,36.3670487 C0,37.3222354 0.522938086,38.2135842 1.33657287,38.5319798 L22.8958121,47.8284952 C23.1863652,47.9558534 23.4769183,47.9558534 23.7674714,47.8284952 L46.1985135,37.3222354 C47.3025577,36.8128025 48,35.6667373 48,34.3294759 L48,12.0433741 C48,11.0881874 47.4769183,10.1968386 46.6634271,9.81476395 L26.7311702,0.199852999 Z" id="Path" fill="#6CD04E"></path>
            <path d="M15.7474596,4.01964701 L38.5270793,14.2713491 C39.1081854,14.5260656 39.5150746,15.1626979 39.5150746,15.9268472 L39.5150746,23.313148 C39.5150746,24.1408177 39.050161,24.9049671 38.2946943,25.1596835 L35.6797166,26.1785493 C34.5175043,26.6241443 33.2389558,25.6691164 33.2389558,24.331855 L33.2389558,18.4101739 C33.2389558,17.7097036 32.8322103,17.0730713 32.2511041,16.7546757 L9.35529198,6.43929453" id="Path"></path>
            <line x1="29.5131836" y1="34.886549" x2="29.5131836" y2="40.2989561" id="Path" stroke-linecap="round"></line>
            <line x1="36.7182679" y1="31.4469241" x2="36.7182679" y2="36.795652" id="Path" stroke-linecap="round"></line>
            <line x1="43.2263408" y1="28.3268063" x2="43.2263408" y2="33.6753755" id="Path" stroke-linecap="round"></line>
            <polyline id="Path" points="0.0700889277 11.0168859 23.0500652 22.0330549 23.0500652 48"></polyline>
            <polyline id="Path" points="23.0500652 22.0313081 35.3032758 16.5630032 47.3032758 10.8958797"></polyline>
        </g>
    </g>
</svg>