<?xml version="1.0" encoding="UTF-8"?>
<svg width="48px" height="48px" viewBox="0 0 48 48" version="1.1" xmlns="http://www.w3.org/2000/svg" xmlns:xlink="http://www.w3.org/1999/xlink">
    <title>Artboard Copy 3</title>
    <g id="Artboard-Copy-3" stroke="none" stroke-width="1" fill="none" fill-rule="evenodd">
        <g id="logo">
            <rect id="Rectangle" fill="#F9BB00" fill-rule="nonzero" x="0" y="0" width="48" height="48" rx="12"></rect>
            <path d="M10.794072,33.14484 L10.794072,34.12296 L37.20576,34.12296 L37.20576,13.25448 L10.794072,13.25448 L10.794072,33.14484 Z M10.794072,33.14484 L19.27188,27.92772 M37.20576,33.14484 L28.728,27.92772" id="Shape" stroke="#000000" stroke-width="1.599996" opacity="0.5"></path>
            <circle id="Oval" stroke="#000000" stroke-width="1.599996" cx="23.8368" cy="22.7106" r="3.586776"></circle>
            <path d="M23.83512,29.55744 C24.98268,29.55744 26.112,29.26908 27.11892,28.71864 C28.12596,28.16832 28.97856,27.37368 29.59836,26.4078 C30.21804,25.44192 30.58512,24.33576 30.66564,23.19096 C30.74628,22.04616 30.53796,20.89956 30.05964,19.85628 C29.58144,18.81312 28.8486,17.90688 27.92868,17.22084 C27.00864,16.53468 25.93104,16.09092 24.79476,15.93012 C23.65848,15.7692 22.5,15.89664 21.42576,16.30044 C20.35152,16.70424 19.39608,17.37156 18.64704,18.24096" id="Path" stroke="#000000" stroke-width="1.599996"></path>
            <path d="M10.794072,33.14484 L10.794072,34.12296 L37.20576,34.12296 L37.20576,13.25448 L10.794072,13.25448 L10.794072,33.14484 Z M10.794072,33.14484 L19.27188,27.92772 M37.20576,33.14484 L28.728,27.92772" id="Shape" stroke="#000000" stroke-width="1.599996"></path>
            <path d="M37.1292,13.25436 C36.99468,14.9808 36.68244,16.67532 36.19992,18.28572 C35.53632,20.50116 34.5636,22.51404 33.33732,24.20964 C32.11104,25.90524 30.6552,27.25032 29.05296,28.16796 C27.45084,29.0856 25.73352,29.55792 23.9994,29.55792 C22.26516,29.55792 20.54784,29.0856 18.94572,28.16796 C17.34348,27.25032 15.88764,25.90524 14.66136,24.20964 C13.43508,22.51404 12.46236,20.50116 11.798724,18.28572 C11.3163,16.67532 11.00406,14.9808 10.869504,13.25436" id="Path" stroke="#000000" stroke-width="1.599996"></path>
            <path d="M34.15524,13.25436 C34.05144,13.85388 33.92976,14.44488 33.79032,15.02496 C33.25776,17.2404 32.47716,19.2534 31.49304,20.949 C31.19652,21.45996 30.8832,21.93912 30.555,22.38432" id="Path" stroke="#000000" stroke-width="1.599996"></path>
            <path d="M20.82468,24.66672 C20.75868,24.55992 20.694,24.4512 20.6304,24.34056 C20.16636,23.53236 19.767,22.62348 19.43988,21.62736 C18.82836,19.76472 18.48168,17.63376 18.41952,15.35604 C18.40056,14.66364 18.40812,13.96176 18.4416,13.25436" id="Path" stroke="#000000" stroke-width="1.599996"></path>
        </g>
    </g>
</svg>