<?xml version="1.0" encoding="UTF-8"?>
<svg width="48px" height="48px" viewBox="0 0 48 48" version="1.1" xmlns="http://www.w3.org/2000/svg" xmlns:xlink="http://www.w3.org/1999/xlink">
    <title>Artboard</title>
    <g id="Artboard" stroke="none" stroke-width="1" fill="none" fill-rule="evenodd">
        <path d="M48,28.038101 L0,28.038101 L0,19.959499 L48,19.959499 L48,28.038101 Z M24,13.2993325 C20.088,13.2993325 16.6752,15.4737868 14.8632,18.6994675 L9.1632,18.6994675 C11.3112,12.4689117 17.1432,8 24.0024,8 C30.8616,8 36.6936,12.4689117 38.8416,18.7018675 L33.1368,18.7018675 C31.3248,15.4737868 27.9096,13.2993325 23.9976,13.2993325 L24,13.2993325 Z M14.8632,29.2957324 C16.6752,32.5238131 20.088,34.7006675 24,34.7006675 C27.912,34.7006675 31.3272,32.5238131 33.1368,29.2981325 L38.8392,29.2981325 C36.6912,35.5310883 30.8592,40 24,40 C17.1432,40 11.3112,35.5310883 9.1632,29.2957324 L14.8632,29.2957324 Z" id="Shape" fill="#001E60" fill-rule="nonzero"></path>
    </g>
</svg>