<?xml version="1.0" encoding="UTF-8"?>
<svg width="48px" height="48px" viewBox="0 0 48 48" version="1.1" xmlns="http://www.w3.org/2000/svg" xmlns:xlink="http://www.w3.org/1999/xlink">
    <title>Artboard</title>
    <g id="Artboard" stroke="none" stroke-width="1" fill="none" fill-rule="evenodd">
        <g id="idBkKpKGPR_logos" fill-rule="nonzero">
            <path d="M0,39.8988588 C0.0548319805,41.4069957 0.61168763,42.857199 1.586955,44.0316708 C2.56222401,45.2061426 3.90327364,46.0415206 5.40875312,46.4122956 C7.42812648,46.89675 17.8392713,48 23.9979346,48 C30.1565979,48 40.5719479,46.89675 42.5913212,46.4122956 C44.0967429,46.0415206 45.4378421,45.2061426 46.4131194,44.0316708 C47.388314,42.857199 47.9452259,41.4069957 48,39.8988588 L48,8.09702222 C47.9445649,6.5890555 47.3874053,5.13918442 46.4122932,3.96485035 C45.4370985,2.79052438 44.0964124,1.95501671 42.5913212,1.58358544 C40.5719479,1.09914722 30.1608113,0 23.9979346,0 C17.8350579,0 7.42812648,1.09914722 5.40875312,1.58358544 C3.90360411,1.95501671 2.56293451,2.79052438 1.58777289,3.96485035 C0.612608794,5.13918442 0.0555051325,6.5890555 0,8.09702222 L0,39.8988588 Z" id="Path" fill="#96154A"></path>
            <path d="M27.6931656,23.1797117 C23.5705641,22.4673311 20.8221906,24.6126564 20.8221906,28.0932901 L20.8221906,36.0559579 L14.3409133,40.0902422 L14.3409133,28.0932901 C14.3409133,21.1320227 19.3014024,16.2877214 27.6931656,17.2687842 L27.6931656,23.1797117 Z" id="Path" fill="#FFFFFF"></path>
            <path d="M25.5061652,11.1501871 C25.5061652,11.8651605 25.2879774,12.5640907 24.8791953,13.1585785 C24.4704133,13.7530662 23.8893777,14.2164539 23.2095338,14.4899976 C22.52969,14.7636224 21.7816882,14.8351684 21.0600409,14.6957226 C20.3383109,14.5561959 19.6754033,14.2119164 19.1551728,13.7063952 C18.6348597,13.200793 18.2805213,12.5567174 18.1369354,11.8554374 C17.9934321,11.1542384 18.0670426,10.4274352 18.3486792,9.76683026 C18.6302332,9.10630634 19.1070905,8.54171719 19.7189417,8.14452776 C20.3307103,7.74728971 21.0499618,7.53526088 21.785819,7.53526088 C22.7724973,7.53526088 23.7187765,7.91614788 24.4164653,8.59405999 C25.1142367,9.2720045 25.5061652,10.1914875 25.5061652,11.1501871 Z" id="Path" fill="#FFFFFF"></path>
            <path d="M29.2432823,22.6993895 C29.2529483,22.9195372 29.3351509,23.130934 29.4776628,23.302385 C29.6201747,23.473836 29.8155607,23.5963473 30.0350703,23.6519312 C30.9333499,23.7907287 31.8405519,23.8683516 32.7499019,23.8839896 C33.660739,23.8685136 34.5693455,23.7908907 35.4689469,23.6519312 C35.6884565,23.5963473 35.8838425,23.473836 36.026437,23.302385 C36.1689489,23.130934 36.2510688,22.9195372 36.2608175,22.6993895 L36.2608175,18.0503609 C36.2515645,17.8304564 36.1694446,17.6194647 36.0267675,17.4484998 C35.8840903,17.277616 35.6884565,17.156077 35.4689469,17.1018706 C34.5693455,16.9629111 33.660739,16.8853692 32.7499019,16.8698122 C31.8405519,16.8855312 30.9333499,16.9630731 30.0350703,17.1018706 C29.8155607,17.156077 29.6199269,17.277616 29.4772497,17.4484998 C29.3345726,17.6194647 29.2525353,17.8304564 29.2432823,18.0503609 L29.2432823,22.6993895 Z" id="Path" fill="#F6ABB6"></path>
        </g>
    </g>
</svg>