<?xml version="1.0" encoding="UTF-8"?>
<svg width="48px" height="48px" viewBox="0 0 48 48" version="1.1" xmlns="http://www.w3.org/2000/svg" xmlns:xlink="http://www.w3.org/1999/xlink">
    <title>Artboard Copy</title>
    <g id="Artboard-Copy" stroke="none" stroke-width="1" fill="none" fill-rule="evenodd">
        <g id="econtomat_icon" transform="translate(5.000000, 2.000000)" fill="#000000" fill-rule="nonzero">
            <path d="M32.9960974,0 C36.2292717,0 38.5049222,2.61246182 38.0795506,5.83571967 C37.654179,9.06072262 34.6870808,11.6731845 31.4539065,11.6731845 L16.1422792,11.6731845 L13.3764885,32.3268155 L28.6898664,32.3268155 C31.9230406,32.3268155 34.1986912,34.9392774 33.7733196,38.1625352 C33.347948,41.3857931 30.3808497,44 27.1476754,44 L5.53074563,44 C2.04724978,44 -0.403450823,41.186848 0.0551802897,37.7140364 L4.24412782,6.28596359 C4.70100843,2.81315194 7.89567172,0 11.3774171,0 L32.9960974,0 Z M24.8392934,15.4218289 C28.6241093,15.4218289 31.6939009,18.4804917 31.6939009,22.2554127 C31.6939009,26.0286202 28.6241093,29.0889965 24.8392934,29.0889965 C21.0544775,29.0889965 17.9846859,26.0286202 17.9846859,22.2554127 C17.9846859,18.4804917 21.0544775,15.4218289 24.8392934,15.4218289 Z" id="Shape"></path>
        </g>
    </g>
</svg>