<?xml version="1.0" encoding="UTF-8"?>
<svg width="48px" height="48px" viewBox="0 0 48 48" version="1.1" xmlns="http://www.w3.org/2000/svg" xmlns:xlink="http://www.w3.org/1999/xlink">
    <title>Artboard</title>
    <g id="Artboard" stroke="none" stroke-width="1" fill="none" fill-rule="evenodd">
        <g id="pn_16x16px_rgb2" fill-rule="nonzero">
            <rect id="Rectangle" fill="#03A0D7" x="0" y="0" width="48" height="48"></rect>
            <path d="M24,23.7 C24,28.8 20.7,33 15.3,33 C12,33 10.5,31.5 10.5,31.5 L10.5,37.5 L3.9,37.5 L3.9,15 L10.2,15 L10.2,16.8 C10.2,16.8 12,14.4 15.6,14.4 C21,14.4 24,18.6 24,23.7 Z M17.4,23.7 C17.4,21.6 15.9,20.1 13.8,20.1 C11.7,20.1 10.2,21.6 10.2,23.7 C10.2,25.8 11.7,27.3 13.8,27.3 C15.9,27.3 17.4,25.8 17.4,23.7 Z M37.5,14.4 C33.9,14.4 32.4,16.8 32.4,16.8 L32.4,15 L26.1,15 L26.1,32.4 L32.4,32.4 L32.4,23.4 C32.4,21.3 33.3,20.1 35.1,20.1 C37.2,20.1 37.5,21.6 37.5,23.7 L37.5,32.1 L44.1,32.1 L44.1,21.6 C44.1,17.1 41.7,14.4 37.5,14.4 Z" id="Shape" fill="#FFFFFF"></path>
        </g>
    </g>
</svg>