<svg height="48" viewBox="0 0 48 48" width="48" xmlns="http://www.w3.org/2000/svg"><path d="m24.20479 0c2.3246226.0187959 4.5718014.36744544 6.6955542 1.00200579l-.3604376.14551014c-.0596094.02446388-.1189854.04903-.178125.07369256l-.3519802.14908636-.3461764.15112303-.3402406.15288169-.3341724.15436237-.327972.15556504-.3216394.15648974-.3151746.15713642-.3085774.15750512-.301848.15759582-.2949864.15740852-.2879928.15694324-.2808664.15619996-.2736082.15517868-.5249126.30618158-.3736476.22488774-.3559776.21977518-.3378608.2137244-.3192982.20673538-.2023324.13347748-.37879.25527328-.423609.29432172-.2976952.212931-.4294666.3173127-.4508466.34979918-.0883944.07192354c-7.5060654 6.52679054-7.8675502 16.63085314-1.6178648 20.75450214l.1914076.1231186-.6376138-.8787564-.006131-.032698c-5.1328538-5.5151988-2.307923-15.1945344 6.5097026-19.66275018l.2837222-.14053088.3457856-.15047916.2724448-.11265336.4201996-.16648452.4241736-.1604805.3855006-.13995304.4247772-.14818452.4624334-.15452198.3705614-.11891112.3901476-.1206116.2706416-.08095784.421271-.1216701.2907576-.08092368.2984494-.08049572.3059388-.079831.3132252-.07892956.3203092-.07779132.3271906-.0764164.3338694-.07480468.3403454-.07295624.3466192-.07087106.35269-.0685491.3585584-.06599044c.0602376-.01077204.1207112-.02142758.1814166-.03196174l.366981-.0617085.372343-.05855796.377502-.05517068c.0633356-.00889968.126878-.01764838.1906224-.02624112l.384861-.04964584c.064537-.00794928.1292676-.01573278.194188-.02334552.2059786.12707738.4096512.25683194.6109814.38923344 1.5383064 1.02022476 2.9522744 2.21307512 4.214243 3.55081922l-.1887926-.02735712-.3750654-.0511136-.371507-.04644952-.3677106-.04194968-.3636756-.03761398-.3594024-.03344254-.3548908-.02943524-.350141-.02559218-.345153-.0219133-.3399264-.01839862-.3344616-.01504814-.3287586-.01186184-.3228172-.00883976-.4725644-.00795242-.306921-.0020029-.3001456.0004445-.436993.00489644-.2821642.00584462-.4089038.01222696-.5171814.02189926-.4834068.02709132-.4477254.0309698-.4101378.03353472-.540559.05223782-.377943.04248378-.410851.05270496-.3715298.05585434c-9.7659774 1.90583904-15.1234265 10.46748712-11.7733405 17.16234402l.1041875.2022942-.1124002-1.0708568.0122621-.0388288c-1.6873474-7.3421336 5.5925849-14.30771228 15.4706047-13.77011312l.332131.02171082.190227.0209343.4052596.0519451.4077574.0594709.3908592.0626816.3285962.0566181.3573676.0654212.253511.0487573.4020878.0812297.2819778.0597701.2926102.0644404.302812.0692624.3125828.074236.3219224.079361.3308312.0846378.3393092.0900661c.0572342.0154717.1148036.031176.1726992.047116l.351218.0984927.3586186.1043.3655882.1102588.3721268.1163693.3782346.1226312c.0635242.0209688.1272848.0422049.191273.0637113l.3865882.1323085c.0648626.0226006.1299348.045478.1952076.0686352l.3939722.1423268c.0660392.0242893.1322612.0488647.198657.0737295l.4003866.1526862.4041242.159782c.135283.0544601.2711174.110128.4074308.1670292l.3483936.1476491c1.0446398 1.9484726 1.8281338 4.0578254 2.3037014 6.2812884-.1009604-.0809062-.201888-.1608144-.3027332-.2397288l-.302239-.2337652-.3014478-.2278257-.3003592-.22191-.298974-.2160184-.2972916-.2101507-.295312-.2043069-.2930356-.1984872-.290462-.1926914-.2875914-.1869196-.284424-.1811716-.2809592-.1754478-.2771974-.1697478-.2731388-.1640717-.4014484-.2355177-.3906454-.2228814-.2539336-.1416074-.2483896-.1360512-.4789592-.2555298-.4532194-.2335926-.4251028-.211847-.3946102-.1902933-.361741-.1689311-.3264958-.1477607-.5377506-.2327769-.5629252-.225493c-9.4078716-3.2391172-18.3350308 1.5015259-18.776364 8.9751168l-.0109605.2268454.4313993-.982523.0286112-.0306544c2.207309-7.1984875 12.0058602-9.5979025 20.2860426-4.1921345l.2740274.1830379.2529636.1870609.3261736.2512033.2998124.2384991.2763078.2255561.3060848.255957.2476444.2116441.1731374.1503589.3642074.3226919.2876524.2610219.1981022.1829568.3058962.2877058.3154772.3034598.3240338.3190212.2202706.2212312.2233152.2280048.226056.2347214.2284936.2413812.2306278.247984.2324584.2545296.2339858.2610184.2352096.26745.2361298.2738248.236747.2801424.2370604.2864032.2370704.2926068.2367772.2987536c.0394214.0503012.0788182.1008562.1181836.1516638l.2357682.3078668.1459694.1940342c-.0929672 1.9721978-.4239478 3.8821314-.964867 5.7017322l-.1461342-.3572952c-.0245564-.0590812-.0492094-.1179264-.073953-.176533l-.1495048-.3487546c-.0250836-.0576412-.0502462-.1150382-.0754824-.1721884l-.1522512-.3399162c-.0255066-.0561516-.051075-.1120508-.0766996-.1676948l-.1543736-.3307802-.155442-.3245238-.156233-.3181354-.1567464-.3116144-.235476-.4549054-.2350712-.4394886-.1560272-.284207-.1551542-.2770244-.230487-.4017792-.2269622-.3848738-.1488878-.2469698-.290718-.4702734-.2107714-.3314764-.2035024-.3127836-.258411-.3871956-.1829008-.2674306-.2275448-.3251032-.206856-.2881658-.305542-.412225-.381496-.487377c-6.5308836-7.5120809-16.6370618-7.8676151-20.7568152-1.6218204l-.1229988.1912866.872632-.6335222.038829-.0081744c5.5111918-5.1328171 15.1865506-2.3139153 19.6606666 6.5134416l.1410808.285702.2251034.540428.1945564.4880164.2377662.6190776.1907726.5148164.2041098.569648.1704524.4918268.1307994.3882482.1324658.4036544.1778584.560299.1333058.4353894.0883934.2968796.1312934.4544464.086326.3085812.0850926.3127.0836272.316498.0819292.3199752.0799992.323131.0778372.3259662.0754424.3284802.072816.3306734c.011904.0552772.0236892.1106324.0353502.1660588l.1014724.5005834c.0108738.0557942.0216092.1116396.0322012.1675298-1.1312134 1.9310882-2.5251248 3.6895392-4.1322902 5.2269874.035699-.2430572.0674686-.4842988.0955946-.723378l.0394918-.3569536.0342408-.3534498c.0052812-.058602.0103524-.117047.0152184-.1753298l.0267662-.3477066.0220512-.3435524.0175506-.3391382.0132642-.3344638.0091926-.3295294.006623-.4844728-.000049-.316055-.0033706-.3102102-.0064776-.304105-.0150728-.4441412-.0133072-.2877042-.0243122-.4183208-.0187966-.2696774-.0315416-.3900614-.0349144-.371935-.0375636-.3529308-.0529548-.439495-.0409308-.3051734-.0548182-.3726316-.0792658-.4812928-.0810748-.4353478-.0915364-.4270568c-1.8997834-9.769954-10.4734496-15.1294081-17.1646284-11.7774036l-.2021778.1042468 1.072908-.1144427.0306546.0081745c7.3462324-1.6873352 14.3199132 5.6005568 13.7745394 15.4687516l-.0214408.3271984-.05193.4460734-.0621792.4475534-.0763946.4877678-.0819186.474358-.078559.4208902-.0909634.4553596-.0768226.3628442-.1145094.5104968-.0626464.2660872-.100978.411922-.1096742.4264632-.1186928.4400958-.084298.3005218-.088545.3059074-.0928874.3110236-.0973254.3158706-.101859.320448-.1064878.3247566-.1112122.3287954-.1160322.332565-.1209476.3360656-.1259586.3392964-.1310648.3422582-.1362668.3449506c-.02315.0577012-.0465206.1155034-.070114.1734008l-.1442486.3484842c-1.8564084.984546-3.8576206 1.732158-5.9632598 2.2032992l.2356298-.3020394.2297096-.301337.2238132-.300341.2179404-.2990512.2120914-.2974678.206266-.2955908.2004642-.2934198.1946862-.2909554.1889318-.288197.2726602-.4264812.1746498-.2800164.251348-.4128334.1605156-.27.1549032-.2654792.221884-.3891006.20939-.377277.2598892-.4829306.238009-.4577994.2163182-.4303182.240184-.4956726.1682072-.3598946.2128546-.4732616.166076-.3863166.2245658-.559636c3.2391404-9.4098274-1.5015366-18.3369434-8.975181-18.7822392l-.2273052-.0108894.9829882.435291.0306544.0306544c7.2005622 2.2052702 9.596009 12.001728 4.1861562 20.2837938l-.1756422.2636076-.2518686.3392592-.2743216.3529558-.3684064.4558502-.2518604.3018042-.1370282.1612096-.2192616.2538676-.235561.267444-.3391182.375986-.2728774.2952412-.1906442.2025836-.2989188.31177-.3142984.3203564-.2179854.2178486-.2246844.2209256-.349468.3365108-.2411932.2273244-.373976.3447232-.3884352.3483198-.2668988.2337186-.4121252.3520966-.282522.2353124-.2886756.2354326-.294775.2352568-.3008196.2347854-.2837636.2171256c-2.250617-.0837638-4.4220512-.4771828-6.4729242-1.138888.1371057-.0550596.2730286-.1106866.4077358-.1668128l.4004413-.1698084c.0661214-.0285284.1319307-.0571644.1974237-.0858998l.3891299-.173535.3813424-.1755084.3733577-.1770728.3651756-.1782284.3567963-.178975.3482197-.179313c.057311-.0298908.1142564-.0597788.170832-.0896552l.3349852-.1790532.3259152-.1783686.3166484-.1772756.3071842-.1757734.2975228-.1738626.287664-.1715426.277608-.168814.3971254-.2472104.37339-.2387708.4597806-.3028482.315418-.2137124.2894632-.2006734.1782276-.1258566.3925122-.2839214.4173486-.3137436.3407154-.2692794c7.5080888-6.53286 7.8655878-16.6329774 1.615822-20.752581l-.1914088-.122996.633527.8685384.0102182.042916c5.1348768 5.5091292 2.307963 15.1904072-6.5136678 19.6566794l-.2950148.1455824-.4260064.184167-.4323998.1753742-.3897835.1507542-.3580484.1331404-.3974486.1422954-.3230067.1116246-.3436375.1149664-.3636118.1175334-.2531805.0793992-.53134.1602698-.4195957.1205858-.4369442.120054-.3006098.079358-.307834.0785474-.3148635.0775076-.3216986.0762382-.3283392.0747392-.3347852.0730106-.3410367.0710524-.3470937.0688648c-.0583429.0112824-.1169301.022464-.1757574.0335402l-.3558145.0651528-.3613853.0623914-.3667614.0594c-.0615641.009638-.1233441.0191418-.185336.0285068l-.374461.0544828-.379351.050918c-1.59425148-1.015654-3.0602614-2.214406-4.3687663-3.5664568l.37135358.0452192.3674326.0407216.3632716.0363912.35887052.0322274.3542294.0282308.34934824.024401.34422702.0207378.33886574.0172416.33326444.0139124.32742306.01075.4796569.0105606.4651636.0043838.3016571-.0002308.4392076-.0046592.283603-.005738.2759612-.0076488.528037-.020363.4945895-.0260036.5682755-.0384034.412311-.0338148.3726222-.0351168.4803157-.0521968.6159153-.0805496.2412528-.0376942c9.7680009-1.8916768 15.1274731-10.4672038 11.7734613-17.1623398l-.1043082-.2022984.118531 1.074944-.0143056.0388288c1.6873474 7.3421336-5.594588 14.3117182-15.4666992 13.7702334l-.3420216-.0228112-.4801209-.0571782-.4610733-.06543-.496901-.079326-.3796794-.0661254-.41594558-.0775896-.45010004-.0898002-.48214288-.1027574-.381365-.0860204-.26315692-.0617848-.40744588-.0995674-.2797193-.071108-.43105216-.1139894-.29463198-.081014-.30013512-.08514-.30537432-.089359-.31034956-.0936716-.31506084-.0980772-.3195082-.1025764-.32369156-.1071686c-.05428254-.0182494-.10872838-.036694-.16333206-.0553356l-.3294717-.1142324-.33299522-.1190578-.33625474-.123977-.33925034-.1289892-.34198196-.134095c-.05720998-.0227798-.11452276-.0457762-.17193286-.0689912-1.06358532-1.8885548-1.87878386-3.935822-2.40144876-6.0972402l.30115386.2269122c.05010578.0373274.10016422.0744098.15016917.1112474l.29933886.2180924.29776093.2122422.29588864.2064154.293722.2006124.291261.1948328.28850566.1890768.28545598.1833442.28211192.1776354.27847352.17195.27454078.1662884.40379334.238868.39328894.2262614.38179108.2137346.2476491.1355696.47746574.2546366.34133688.1766306.32586526.1644216.40870304.2003746.37707702.1789996.4232848.193978.4946421.2166556.54851948.2250436.13071864.0500504c9.40989464 3.2431634 18.33907784-1.4994422 18.78045084-8.9730726l.0107686-.2273042-.4332506.9870684-.0326982.0306542c-2.207309 7.1964644-11.9998511 9.5958592-20.27793072 4.1861252l-.25680596-.171322-.35796148-.2847166-.59877078-.4908094-.38672942-.3246174-.52898034-.4530334-.3868135-.337812-.41027634-.364435-.3211118-.2897618-.44336452-.4068818-.45771678-.4287698-.23320518-.2220546-.23555088-.226881-.35681866-.3488996-.23960338-.238005-.36095621-.3645766-.36157522-.3730144-.36079658-.3807256-.23940828-.2577424-.23802692-.2606316-.23623145-.2633054c.00728547-2.183673.30669616-4.2982383.86070872-6.3072515l.13070822.3190416.13426474.3161607.13749593.3130496.14040181.3097085.14298239.3061375.14523764.3023364.14716758.2983053.1487722.2940441.15005153.289553.22676436.4254054.15182656.2773188.15196728.2720224.22750312.3976002.1508958.2577756.22437104.3751516.22102784.3606472.1449524.2319902.28268206.442686.33645516.511059.25247438.3727654.3447957.4946988.2962891.4118394.16624046.2254596.36320694.4753426c6.52481434 7.512081 16.63493804 7.8676152 20.75080444 1.6218206l.1228786-.1912866-.870588.6314786-.040873.0081744c-5.5132148 5.1348402-15.1885938 2.3139556-19.65874408-6.5094752l-.15232626-.3099776-.1571133-.3650252-.11627622-.2841266-.16955504-.4324662-.16208104-.43301-.17712714-.4957209-.1119971-.3262431-.15438698-.4672134-.11857288-.3737084-.12009184-.3929338-.08052016-.2723058-.08061784-.280354-.08048452-.2882038-.11997164-.4465896-.1183725-.4631347c-.0130348-.0523538-.02602554-.1050015-.03896742-.1579391l-.07702644-.3210706-.07562282-.3278284-.07398822-.3343876-.07212264-.3407482-.0700261-.3469103-.0676986-.352874-.0651401-.3586389-.06235064-.3642054-.05933024-.3695734-.05607884-.3747428-.05259646-.3797136.0076188.059555c1.13732844-1.9330269 2.53764522-3.69281986 4.15178908-5.23022884-.24301662 1.7546949-.32994418 3.39706454-.33568676 4.81937984l-.000007.3034792.00254138.3126598.00496486.3044929.01155904.4408034.01015898.2828296.01842386.406973.02165344.3853928.02421606.3628513.03512156.4470752.02760166.3065153.027941.2807689.0542321.4804528.04758572.36593.0552133.3652647c1.89573678 9.7699541 10.46535688 15.1314111 17.16240398 11.7734979l.2023588-.1044284-1.0790394.1205736-.032698-.010218c-7.3421863 1.685312-14.31382352-5.5945886-13.77237478-15.4745208l.02178894-.3321369.02748502-.2474978.04482922-.3484118.0458748-.3202874.0591714-.3787729.0737048-.4337716.0655602-.3593242.0749528-.3868286.084867-.4128622.0623437-.28897814.0671366-.299459.072084-.309504.0771861-.31911318.0824428-.3282865.0878541-.33702398.0934199-.34532562.0991405-.3531914.1050155-.36062136.1110453-.36761548.1172295-.37417372.1235684-.38029616.1300619-.38598272c.0222267-.06478012.0447304-.12977902.0675144-.19498762l.140092-.39369538c.0239177-.06601108.0481221-.1322137.0726164-.1985988l.15047-.40042738.1575819-.40437058.1648485-.40787794c.0280889-.06824772.056487-.13662344.0851975-.20511804l-.0082428.01864028c.5769755-.31592074 1.1683432-.60884418 1.7728694-.87753686 1.1622858-.5103298 2.372179-.93360545 3.6264811-1.25829362l-.2288898.30016429-.2230178.29918791-.2171692.2979182c-.0357088.04953093-.0711749.09899673-.1063987.1483913l-.2084403.29546364-.2026503.29346062-.1968837.29116424-.1911406.28857456-.185421.28569152-.1797247.28251518-.1740519.2790455-.1684026.27528246-.1627767.27122614-.2336678.3985919-.2211414.38781514-.208694.3760484-.1322533.24367296-.2481094.46916364-.115903.22490402-.1637309.32443376-.1516528.30804706-.2261292.47430806-.2278747.49900192-.1540915.35198408-.2120743.51057968-.0888185.22877244c-3.23914054 9.40982738 1.5015366 18.33694338 8.973198 18.78025618l.2272446.0108288-.989119-.4393784-.0265674-.0245234c-7.1985393-2.2113398-9.5939653-12.0018494-4.1900616-20.28577864l.182769-.2738099.2792755-.3735045.1535771-.1977646.2884483-.3612059.2926565-.35508146.1980175-.23456774.2146048-.2494823.3116167-.3541117.252576-.2803864.2685353-.2919611.2843061-.3025338.2998886-.31210456.2084896-.212892.2152756-.21640348.2220058-.21961808.22868-.2225358.2352984-.22515666.2418612-.22748062.3749746-.34492895.2580236-.23199171.2643908-.2332766.2707022-.23426463.2769578-.23495578.2831574-.23535004.2893016-.23544743.2953896-.23524795.3014218-.23475159c.0507366-.03906741.1017222-.07810176.1529556-.11709688z" fill="#d9222a"/></svg>