<svg height="48" viewBox="0 0 48 48" width="48" xmlns="http://www.w3.org/2000/svg" xmlns:xlink="http://www.w3.org/1999/xlink"><linearGradient id="a" x1="100%" x2="0%" y1="50%" y2="50%"><stop offset="0" stop-color="#b22024"/><stop offset="1" stop-color="#ed2225"/></linearGradient><path d="m821 155.737391 8.300847 3.355826v7.026783c-.004055.052274.02313.102064.069507.127304.038945.021974.084792.028677.128483.018783l2.081004-.697044 2.030453 2.306087c.018957.039653.058976.050087.109527.050087h.058976c.058795-.020919.098271-.075845.098995-.137739l.286454-6.732521 9.863706 4.015304v27.929739l-23.027952-8.842435zm48 1.058087v27.704348l-21.018562 8.498087v-27.938087zm-11.470797-6.505043 8.953793 3.739826-20.355083 8.224696-9.507745-3.858783zm-12.629251-5.290435 7.666857 3.199304-20.890079 8.164174-7.982799-3.236869z" fill="url(#a)" transform="translate(-821 -145)"/></svg>