<?xml version="1.0" encoding="UTF-8"?>
<svg width="144px" height="48px" viewBox="0 0 144 48" version="1.1" xmlns="http://www.w3.org/2000/svg" xmlns:xlink="http://www.w3.org/1999/xlink">
    <title>icon-kvikk-dhl</title>
    <defs>
        <linearGradient x1="13.8698766%" y1="84.862397%" x2="50.8087331%" y2="48.403969%" id="linearGradient-1">
            <stop stop-color="#A90034" offset="0%"></stop>
            <stop stop-color="#BB0033" offset="27.17%"></stop>
            <stop stop-color="#D30032" offset="72.26%"></stop>
            <stop stop-color="#DC0032" offset="100%"></stop>
        </linearGradient>
    </defs>
    <g id="Dashboard" stroke="none" stroke-width="1" fill="none" fill-rule="evenodd">
        <g id="Artboard" transform="translate(-349, -927)" fill-rule="nonzero">
            <g id="icon-kvikk-dhl" transform="translate(349, 927)">
                <polygon id="Path" fill="#35C287" points="48 36 24 48 15 43.5 15 19.5 24 15 30 18 30 9 12 9 18 12 9 16.5 9 40.5 0 36 0 12 24 0 48 12 48 21 30 30 30 36 48 27"></polygon>
                <polygon id="Path" fill="#9FA9B5" points="60 21 79 21 79 27 60 27"></polygon>
                <polygon id="Path" fill="#9FA9B5" points="84 24 72 12 72 36.0894508"></polygon>
                <g id="icon-dpd" transform="translate(99.5, 0)" fill="url(#linearGradient-1)">
                    <path d="M28.4827561,21.421868 C28.2897,21.5349947 27.9869921,21.526122 27.7985969,21.4090519 L26.6893219,20.7465582 C26.5990492,20.6903645 26.5161358,20.6004054 26.4535826,20.4922079 C26.449903,20.4860464 26.4462235,20.4796383 26.4425438,20.4732303 C26.3716503,20.357146 26.3314201,20.2346537 26.3272499,20.1222663 L26.2990396,18.8229112 C26.2906993,18.6040516 26.4344487,18.3371317 26.6282406,18.2235121 L39.96358,10.4180153 L21.2503914,0.170805463 C21.0443341,0.0559535028 20.7725348,0.00049923275 20.5004901,-1.82373393e-16 C20.2282002,-0.00048661725 19.9559102,0.0564464328 19.7496077,0.170805463 L1.0361738,10.4182618 L22.0000474,22.6798173 C22.1943299,22.786536 22.3420043,23.0399004 22.3420043,23.2686185 L22.3420043,41.1559482 C22.3420043,41.3804763 22.1820646,41.6385236 21.9863102,41.743517 L20.8581467,42.3729846 C20.7644397,42.4230166 20.6452208,42.4498812 20.5206052,42.4498812 C20.5134914,42.4498812 20.5061322,42.4498812 20.4990183,42.4498812 C20.3636092,42.4530852 20.2377671,42.4262207 20.139154,42.3729846 L19.0073109,41.7432705 C18.8149908,41.6404953 18.6577495,41.3812157 18.6577495,41.1559482 L18.6579947,25.2102573 C18.6479372,25.0934337 18.5628159,24.9509778 18.4695995,24.8972488 L0,14.0950032 L0,35.2533955 C0,35.7268518 0.332144824,36.3109701 0.739353227,36.5502861 L19.7611371,47.8215516 C19.9644959,47.9413328 20.2323704,48.0009769 20.5,48.0000149 C20.767874,47.9992517 21.0357484,47.943058 21.2386167,47.821798 L40.2633442,36.5502861 C40.6690808,36.3085055 41.0004895,35.7275912 41,35.2533955 L41,14.0952497 L28.4827561,21.421868 Z" id="Path"></path>
                </g>
            </g>
        </g>
    </g>
</svg>