<svg height="48" viewBox="0 0 144 48" width="144" xmlns="http://www.w3.org/2000/svg"><g fill="none" fill-rule="evenodd"><path d="m48 36-24 12-9-4.5v-24l9-4.5 6 3v-9h-18l6 3-9 4.5v24l-9-4.5v-24l24-12 24 12v9l-18 9v6l18-9z" fill="#35c287"/><path d="m60 21h19v6h-19z" fill="#9fa9b5"/><path d="m137 8.46042743h-15.862767v-8.46042743h15.862767zm-34 10.82016247v-8.4604514h15.687835v8.4604514zm18.137233-8.4604514h15.862767v8.4604514h-15.862767zm-2.449398-10.8201385v8.46042743h-15.687835v-8.46042743zm8.572892 33.5539641v14.4460359h-14.579773v-14.388482h3.615802v5.9280546h7.348194v-5.9856085zm9.739273-11.8561092v26.3021451l-7.289875-.0575539v-16.863301l-19.42025.057554v16.805747h-7.289875v-26.2445912zm-15.746129 11.8561092v3.6258974h-2.449398v-3.6258974z" fill="#ba1b02" fill-rule="nonzero"/><path d="m84 24-12-12v24.0894508z" fill="#9fa9b5"/></g></svg>