<?xml version="1.0" encoding="UTF-8"?>
<svg width="48px" height="48px" viewBox="0 0 48 48" version="1.1" xmlns="http://www.w3.org/2000/svg" xmlns:xlink="http://www.w3.org/1999/xlink">
    <title>Artboard</title>
    <g id="Artboard" stroke="none" stroke-width="1" fill="none" fill-rule="evenodd">
        <g id="logo" transform="translate(9.000000, 2.000000)" fill="#FFCB04" fill-rule="nonzero">
            <path d="M10.5375686,22.0259276 C10.5375686,22.0259276 8.17896958,22.9399055 5.26878429,22.9399055 C2.35893289,22.9399055 0,22.0259276 0,22.0259276 C0,22.0259276 2.35893289,21.1121172 5.26878429,21.1121172 C8.17896958,21.1121172 10.5375686,22.0259276 10.5375686,22.0259276" id="Fill-27"></path>
            <path d="M17.8229822,8.5843969 C17.8229822,8.5843969 15.7329976,7.17360473 14.1056177,4.80315255 C12.4787386,2.43270038 11.9304912,-4.4408921e-15 11.9304912,-4.4408921e-15 C11.9304912,-4.4408921e-15 14.0203088,1.41079219 15.6478557,3.78107702 C17.2749017,6.15186383 17.8229822,8.5843969 17.8229822,8.5843969" id="Fill-29"></path>
            <path d="M12.4869352,14.3844583 C12.4869352,14.3844583 9.96773513,14.10317 7.39845163,12.7604827 C4.82916807,11.4182974 3.18309038,9.52324087 3.18309038,9.52324087 C3.18309038,9.52324087 5.70229041,9.80452915 8.27157393,11.1470492 C10.8408575,12.4894018 12.4869352,14.3844583 12.4869352,14.3844583" id="Fill-32"></path>
            <path d="M17.5707781,26.4266264 C19.0662714,26.412403 20.8699453,25.2320296 20.8699453,25.2320296 C20.8699453,25.2320296 16.687639,23.9633039 16.9509112,20.2033109 C17.7756196,14.0325382 22.7600966,9.18788676 29,8.40827805 C28.33823,8.31674641 27.6624366,8.26888892 26.9742893,8.27164438 C19.2564218,8.30603701 13.0277036,14.4826664 13.0621405,22.067076 C13.0969859,29.6511509 19.3821313,35.7717235 27.1001659,35.7378704 C27.7439058,35.73491 28.3761265,35.6855465 28.9963272,35.5998715 C23.5198633,34.9139698 19.0624317,31.119506 17.4634325,26.1048433" id="Fill-34"></path>
            <path d="M17.8229822,35.4151011 C17.8229822,35.4151011 15.7329976,36.8260606 14.1056177,39.1968474 C12.4787386,41.566965 11.9304912,44 11.9304912,44 C11.9304912,44 14.0203088,42.5890405 15.6478557,40.2185883 C17.2749017,37.8481361 17.8229822,35.4151011 17.8229822,35.4151011" id="Fill-36"></path>
            <path d="M12.4869352,29.6154417 C12.4869352,29.6154417 9.96773513,29.8967301 7.39845163,31.2394174 C4.82916807,32.5814354 3.18309038,34.476492 3.18309038,34.476492 C3.18309038,34.476492 5.70229041,34.1952037 8.27157393,32.852851 C10.8408575,31.510331 12.4869352,29.6154417 12.4869352,29.6154417" id="Fill-39"></path>
        </g>
    </g>
</svg>