<?xml version="1.0" encoding="UTF-8"?>
<svg width="48px" height="48px" viewBox="0 0 48 48" version="1.1" xmlns="http://www.w3.org/2000/svg" xmlns:xlink="http://www.w3.org/1999/xlink">
    <title>Artboard</title>
    <g id="Artboard" stroke="none" stroke-width="1" fill="none" fill-rule="evenodd">
        <rect id="Rectangle" fill="#FEDC00" x="0" y="0" width="48" height="48"></rect>
        <g id="logo-(1)" transform="translate(5, 12)" fill="#000000" fill-rule="nonzero">
            <path d="M36.9298861,4.40511546 C36.9298861,4.40511546 36.9125237,4.04911129 36.5091823,3.92710986 C35.8006638,3.71244068 34.8684377,3.62110628 34.1866305,3.75844122 C33.9081647,3.81444188 33.7819535,3.93377661 33.8440574,4.2944475 C33.9215203,4.74911949 33.9589162,5.08045671 33.984292,5.48379477 C34.2520733,9.5551758 32.7475565,13.2905529 30.0784249,15.860583 C30.6895889,14.5678772 31.0061423,13.1559992 31.0053088,11.7265346 C31.0053088,6.28980421 26.5111242,1.86641905 20.987885,1.86641905 C15.4646457,1.86641905 10.9711289,6.28980421 10.9711289,11.7265346 C10.9711289,12.8445477 11.1641184,13.9185603 11.5140371,14.9219054 C9.70033647,12.5092104 8.1924808,9.00050264 8.81485524,4.15911258 C8.94841199,3.12310044 9.06126744,1.81641847 9.33706212,0.856407218 C9.34707888,0.565070471 9.12804581,0.361068081 8.8535867,0.307067448 C5.64355028,-0.31493984 2.10095756,0.141732177 0.810131604,0.505069768 C0.539679191,0.579737309 0.321981694,0.703072088 0.259210022,1.11841029 C0.259210022,1.11841029 0.0622138205,2.26442371 0.0234823639,3.05909969 C-0.109830406,5.68842523 0.32564372,8.31557495 1.30028487,10.7618566 C1.32966735,10.8365242 1.35904983,10.9118584 1.38976789,10.9871926 C1.43317383,11.0951938 1.47858312,11.2025284 1.5246602,11.3085297 C4.44888518,18.1799435 11.2709638,23 19.2249359,23 C22.17654,23 24.9712149,22.3353255 27.4687261,21.1453116 C31.2717545,19.331957 33.6130042,16.4885904 33.7826213,16.2759212 C36.2554245,13.2005518 37.1495869,9.5265088 36.9799698,5.12645725 C36.973292,4.95845528 36.9472484,4.5764508 36.9298861,4.40511546 Z M25.6122873,17.109931 C24.2853909,18.2225062 22.6071594,18.8308139 20.8743617,18.8272997 C19.0673389,18.8272997 17.4165775,18.1799435 16.1391072,17.1125977 L25.6122873,17.109931 L25.6122873,17.109931 Z M19.9367934,10.7211895 L21.6977391,10.7211895 L21.6977391,15.3239101 L19.9367934,15.3239101 L19.9367934,10.7211895 L19.9367934,10.7211895 Z M26.1465143,6.61247466 C27.4173068,7.91048987 28.2032882,9.66984382 28.2032882,11.6145333 C28.2032882,13.5598894 27.4159712,15.32191 26.144511,16.6185919 L26.1465143,6.61247466 Z M20.8750295,4.40243566 C22.8797163,4.40243566 24.6867391,5.20179146 26.0089509,6.48447316 L24.5752192,6.46847297 L24.5752192,15.3239101 L23.2463295,15.3239101 L23.2463295,9.21517182 L23.2396517,9.21517182 L23.2396517,9.2105051 L21.6202761,9.2105051 L21.6202761,6.50047335 L20.0449743,6.50047335 L20.0449743,9.2105051 L18.4690047,9.2105051 L18.4783537,15.3032432 L17.0953736,15.3032432 L17.0967091,6.44113932 L15.7778362,6.44047264 C17.1493666,5.12923087 18.9760393,4.39886765 20.8750295,4.40243566 M15.5761656,6.64247501 L15.590189,6.64914176 L15.590189,16.5919249 L15.5828434,16.5939249 C14.3240711,15.2999098 13.5481059,13.5485559 13.5481059,11.6145333 C13.5474386,9.68517733 14.3220677,7.9358235 15.5761656,6.64247501" id="Shape"></path>
        </g>
    </g>
</svg>