<svg height="48" viewBox="0 0 50 48" width="50" xmlns="http://www.w3.org/2000/svg"><g fill="none" transform="matrix(0 -1 -1 0 49.086001 45.921447)"><g fill="#ef352f"><path d="m43.8428942 35.370612c0-.0970664-.0429935-.1994412-.0822158-.2381161-.038468-.039433-.2858695-.3071242-.3341431-.3753739-.0482734-.0674914-.1108781-.1311912-.1206838-.2767908-.0098054-.1463579.0339425-.5793653.0339425-.6961482 0-.116783-.0294168-.229016-.0776904-.2919576-.0497818-.0659747-.3198119-.3511072-.3778909-.4094988-.058079-.0583915-.1644314-.1167831-.1930939.0394331-.0294166.155458-.063359.4284572-.0920213.5255236-.0294168.0970665-.0874958.1167831-.159906.0583916-.1093696-.0879664-.3967478-.3306324-.5038546-.4087406-.1063526-.0781082-.193094-.1038914-.2421218.0485331-.0429936.1364997-.1591517.5353819-.1983739.6718816-.0384679.1364997-.0527991.2479743.058079.3404908.063359.0523249.4842436.4041905.5619337.462582.0769359.0583915.1206838.1895828.0920213.3260825-.0294165.1364997-.1674487.5528234-.2036536.6665733-.0437479.1364995-.0143314.2168827.0392221.2972658.0482734.0727998.4352158.3586907.5853161.4231489.1697116.073558.2421218.0151665.2813439-.0925165.0256453-.0720416.1553805-.489882.1689574-.6134901.0098054-.087208.0874956-.0773498.1455746-.0090998.0580792.0682497.2353333.2206743.3092522.3018157.0535534.0583915.1893225.0659749.2277905-.0879664.0392223-.1554578.0822158-.5255235.0822158-.6620232"/><path d="m38.4815191 32.6269694c.063359-.1440828.1025812-.5619235.0942842-.7082814-.0113141-.1933745-.0686389-.3124325-.2323163-.3981238-.5566537-.2919577-1.5839739-.6514066-2.5419012-.803073-1.166861-.1850328-1.9942988-.2813407-3.200382-.2479743-.1787628.0045501-.3582799.1607663-.372611.3791657-.0143311.2191578-.003017.6582316.0437479.847056.0339422.1364997.1689571.3018159.3869421.3018159.7361708 0 1.977705-.0409499 2.7719548.084933.8402604.1342247 1.7401086.2707244 2.6942644.6392733.1651859.0636998.3122692.0037918.3560171-.0947914"/><path d="m33.685849 38.7095447c.0973012.1167829.2526815.1713829.4457756.1562162 2.102914-.1668329 3.8671595-1.3187381 4.8024586-2.2583106 1.3169613-1.3240463 2.246226-3.2130495 2.246226-5.2377941 0-2.0247444-.8613802-3.8644562-2.1783415-5.1885025-1.3169614-1.3240466-3.3791447-2.2878856-4.9676445-2.2878856-.5227113 0-.9149336.0765914-1.2875446.7105565-.3778909.6430648-1.1133075 1.9178197-1.3365724 4.3027715.6200127-1.3915379 1.2588823-2.2385939 1.7815938-2.6867675.5234655-.4474155.8817456-.3791658 1.2106087-.3018159.3288631.0781081 2.0237154.2335659 3.6212664 1.8404699 1.3554293 1.3627214 1.5296664 2.8718006 1.5492777 3.8644563.0271537 1.3862295-.5408141 2.8998588-1.7235148 4.0881639-1.5628544 1.5712623-3.2607238 2.0649361-4.3378261 2.2196357-.2707843.0394331-.2519274.1562161-.1938484.2919575.058079.1364995.3680855.4868487.3680855.4868487"/></g><path d="m3.88224506 32.3334952c1.42557669-2.3750936 2.24698039-5.2863273 2.24698039-7.9920533 0-1.494671-.29114952-3.6217901-1.48139292-6.5618406-.39297641-.9691473-.61020715-1.9853112-.61020715-2.6860094-.3002008 1.8685283.23231619 4.3899798.23231619 7.0084977 0 1.755537-.21798499 4.3664716-.84252335 6.9796812-.62453836 2.6139678-1.90227745 5.6078598-3.42741822 7.476388 1.48893564-1.0343639 2.85417045-2.5108349 3.88224506-4.2246636" fill="#3ba445"/><path d="m31.3717382 8.40511005c.6758291.91985585 1.6480874 1.77222025 2.5999805 2.67994275 3.4998284 3.3389326 7.2372528 5.0990195 8.3128468 3.9592476 1.0763481-1.1405302-.888534-4.7721787-4.3891169-8.11111135-3.4998284-3.33969096-7.0298278-5.35381883-8.1054216-4.21404692-.2360875.24949099-.3816623.63320661-.4661409 1.14508023-.6441495 3.88417282-2.5494441 8.16343624-4.7496595 11.43336074 1.442925-3.1637581 3.0087966-7.66142095 2.96354-12.57237431-.008297-.8409894.2489102-1.71079537.70072-2.16503581 1.6805212-1.69032042 6.2385952.59453172 10.462526 4.84118688 4.2231767 4.24589684 6.2484006 9.09542534 4.5226231 10.83048734-.3876964.3897823-.9398246.61349-1.5975508.61349-.2956753 0-.6924231.0295749-.9300192.0295749-5.1494243 0-13.3332905 4.7941704-13.3332905 14.2808947 0 4.6728373 2.0101385 7.5643545 3.7532644 9.3593247 1.6292305 1.678187 3.3120144 2.3720602 4.7579564 2.8869671.4563353.162283 1.1864721.2676909 1.4911984.4572737.2375961.1478746.4503014.3313908.4503014.8273396 0 .6430649-.3288634 1.3627212-.8809914 2.1513857-.552128.7886646-1.321487 1.3339047-1.7717881 1.3339047-.1697116 0-.3100065-.0925163-.3439487-.229016-.0150854-.0591499-.0098055-.1167831.0535533-.0826581.0626047.034125.245139.0978248.5807905-.1455996.2609787-.1903411.805564-.7750147.9390704-1.9420865.0588333-.5111153.0158399-.799281-.8183866-1.1147469-.7429592-.2813409-3.05179-.9077226-5.6351763-2.9301921-2.7002987-2.1142275-5.2768965-5.736776-5.2768965-10.5286714 0-8.1968028 5.769437-12.6482074 11.6701176-14.6236604.5408139-.1812412 1.6194249-.4747154 2.0523779-.4845737.061096-.0015167.0558161-.0144083.0098054-.0409499-.0490276-.0288166-.1614144-.0940331-.2202477-.1220913-2.7161385-1.2823382-5.9157661-4.5871459-6.8020374-7.52264635" fill="#3ba445"/><g fill="#005d26"><path d="m17.7774692 21.8101321-.515923-.0075833v-.8250645c-.0045256-.2115743.071656-.3382158.0407308-.3693073-.0286624-.0288165-.1055983.0553583-.3854337.0629414h-6.4309348c-.49329481 0-1.74237154-.2047494-1.74237154-1.7889034 0-1.5917373 1.39389724-2.0907193 2.61431154-2.0907193l.3190576.0030333v.5839151c-1.4670617 0-1.9965616.379924-1.9965616.7954895 0 .4163239.3846794.6650565.8274379.6650565h6.4354604c.209688-.0015166.3258461.0652165.3477201.0432249.0211196-.0219916-.0233825-.1205747-.0294167-.2775492v-1.5257626l.7188225-.0068249v1.5295541c-.0045256.134983-.0693931.2183995-.0429936.2441827.0211197.0219916.1342607-.0424665.2323162-.0363999l3.5579076.0326083v.6711231c-1.0167605 0-3.1174119.4762321-3.9501297 2.2969855"/><path d="m14.7513244 38.3205208-4.6425526-.0015167c-.50385464.0439832-.63962384-.6218318-.63962384-.9577725h-.52271144v3.9175395h.52271144c0-.3078826.13124356-.7841146.64414944-.8083811h11.4740066c.2805898.0242665.5136601.316224.5181858.8083811h.5521281l.0007542-3.8591479c0-3.2994995-2.5170101-3.8106148-3.6936766-3.8106148-.9368075 0-4.0376254.4815405-4.0376254 4.1397305 0 .1031331.0075427.229016.0188568.3275992.0105599.0985829.0807073.235841.0369594.2692076-.0429936.0326083-.1123867-.0250249-.2315619-.0250249zm6.6971933.0045499-5.5974627-.0030334c-.1523632 0-.2202478.0629415-.2489102.0273-.0331881-.04095.024891-.0963081.0233825-.2517659-.0075428-1.2201551.4955576-2.1233278 3.3678306-2.1233278 2.0719889 0 3.0796982.4967072 3.0796982 1.6061459 0 .3867488-.1312437.7446812-.6245384.7446812"/><path d="m18.1840225 31.1846233c0-.9638391-1.0024293-3.0371168-4.7345739-3.0371168-2.3239163 0-4.7353283 1.1390137-4.7353283 3.0083003 0 2.0247444 2.4061321 3.1243249 4.696106 3.1243249 3.7668413 0 4.7737962-2.0535611 4.7737962-3.0955084zm-4.8605376 1.0609055c-2.4574226 0-4.04969374-.1918578-4.04969374-1.0533221 0-.8273394 1.79366214-1.0002389 4.03008264-1.0002389 2.7063329 0 4.3574373.1751744 4.3574373 1.0222306 0 .7128313-1.1042562 1.0313304-4.3378262 1.0313304"/><path d="m12.1053334 24.2557504c.0693932.1054081.7867071 1.1792053.9662242 1.460546.5589166.8758727 1.3938972 1.4385546 2.6429739 1.4385546s2.4038693-.7886645 2.4038693-2.0300529c0-.9418474-.5445854-1.2042301-.5445854-1.4749544 0-.2259826.4065533-.5111151.5445854-.583915v-.4891236h-3.2313072v.5695066c1.9460253.5695069 2.6580594 1.1829969 2.6505167 1.9420865-.0060342.6642983-.457844.9638391-1.0243033.9638391s-.9798011-.3283575-1.4301023-.9782474c-.0535534-.0773498-1.0725768-1.6152457-1.1185874-1.6797039-.3409316-.4747152-1.161581-1.2921964-2.5056962-1.2921964-1.3433609 0-2.66484782.9274393-2.66484782 2.3288354 0 .8910392.52271146 1.2049884.52271146 1.5409291 0 .3283575-.29718372.4891238-.51516872.6354817v.5179403h3.65294598v-.5550985c-1.1547926-.3207742-3.05028154-.8462978-3.05028154-2.1460776 0-.8174811.58079049-1.1534218 1.16158094-1.1534218.6901602 0 1.1985405.4671321 1.539472.9850722"/><path d="m18.135749 13.3509467c0-1.4067046-.6826174-2.3659936-2.0289953-2.3659936-1.2339913 0-4.5505313 0-5.6547875 0-.2986923 0-.57098498-.0674915-.57098498-.359449 0-.2927159.54232258-.384474 1.10878188-.384474v-.51187362c-.3771367 0-.7640789.03184991-1.10425624.12436633-.5807905.15849119-1.16158099.73482299-1.16158099 1.40897949 0 .6915982.64641228 1.1951301 1.15931818 1.3073632.04299358.0090999.03620511.0326082.00226281.0508081-.53477982.2896826-1.10350194.8690477-1.10350194 1.8692867 0 .9054475.67507466 1.7593285 2.06218338 1.7593285 1.4964784 0 2.7380124-.9926556 3.5443306-2.9787253.0731645-.1812411.2753098-.4891236.667532-.4891236h1.2204143c.5807905 0 1.2347455.2775492 1.2347455 1.0222305 0 .5300736-.239859.9418475-.4503012 1.1390136-.0897585.0834165-.1252094.0470166-.0527991-.0697665.0346965-.0561165.0543076-.1728995.0543076-.249491 0-.2843742-.2556986-.7469563-.8945682-.7469563-.6396238 0-1.0205319.5839151-1.0205319 1.0146473 0 .4648571.2964295 1.0684888 1.1389528 1.0684888.8953225 0 1.8494783-.8470561 1.8494783-2.6086596zm-5.0445803.61804c-.3982563.2957492-1.128393.4868486-1.7431258.4868486-.4646324 0-1.52966637-.0682498-1.52966637-.7788062 0-.730273 1.01751477-.8955892 1.24907677-.8955892h2.560758c.2179851 0 .3371602-.1205747.3703483-.0985831.0369594.0250249-.0173483.1107164-.0460107.1668329-.1372777.2707243-.4578439.8189978-.8613802 1.119297"/></g></g></svg>