<?xml version="1.0" encoding="UTF-8"?>
<svg width="48px" height="48px" viewBox="0 0 48 48" version="1.1" xmlns="http://www.w3.org/2000/svg" xmlns:xlink="http://www.w3.org/1999/xlink">
    <title>Artboard</title>
    <defs>
        <linearGradient x1="0.226300137%" y1="105.448402%" x2="96.6479452%" y2="-1.85570776%" id="linearGradient-1">
            <stop stop-color="#390084" offset="4.159374%"></stop>
            <stop stop-color="#6D01FA" offset="19.52%"></stop>
            <stop stop-color="#621CFA" offset="29.74%"></stop>
            <stop stop-color="#4560FA" offset="51.72%"></stop>
            <stop stop-color="#17CDFA" offset="83.57%"></stop>
            <stop stop-color="#16D0FA" offset="84.29%"></stop>
            <stop stop-color="#81E6FA" offset="99.95%"></stop>
        </linearGradient>
    </defs>
    <g id="Artboard" stroke="none" stroke-width="1" fill="none" fill-rule="evenodd">
        <g id="604b53bde64ce230d86aaca1_Pactic_logoÌ_gradines" fill="url(#linearGradient-1)" fill-rule="nonzero">
            <path d="M39.4520548,0 L8.54794521,0 C3.94520548,0 0,3.94520548 0,8.54794521 L0,20.8219178 L0,33.3150685 L0,39.4520548 C0,44.0547945 3.94520548,48 8.54794521,48 L14.6849315,48 L27.1780822,48 L39.4520548,48 C44.0547945,48 48,44.0547945 48,39.4520548 L48,8.54794521 C48,3.94520548 44.2739726,0 39.4520548,0 Z M8.54794521,44.0547945 C6.1369863,44.0547945 3.94520548,42.0821918 3.94520548,39.4520548 L3.94520548,33.3150685 C3.94520548,30.9041096 5.91780822,28.7123288 8.54794521,28.7123288 L14.6849315,28.7123288 C17.3150685,28.7123288 19.2876712,30.6849315 19.2876712,33.3150685 L19.2876712,39.4520548 C19.2876712,41.8630137 17.3150685,44.0547945 14.6849315,44.0547945 L8.54794521,44.0547945 Z M21.9178082,44.0547945 C22.7945205,42.739726 23.2328767,41.2054795 23.2328767,39.4520548 L23.2328767,33.3150685 C23.2328767,28.4931507 19.2876712,24.7671233 14.6849315,24.7671233 L8.54794521,24.7671233 C6.79452055,24.7671233 5.26027397,25.2054795 3.94520548,26.0821918 L3.94520548,20.8219178 C3.94520548,18.4109589 5.91780822,16.2191781 8.54794521,16.2191781 L27.1780822,16.2191781 C29.5890411,16.2191781 31.7808219,18.1917808 31.7808219,20.8219178 L31.7808219,39.4520548 C31.7808219,41.8630137 29.8082192,44.0547945 27.1780822,44.0547945 L21.9178082,44.0547945 L21.9178082,44.0547945 Z M44.0547945,39.4520548 C44.0547945,41.8630137 42.0821918,44.0547945 39.4520548,44.0547945 L34.1917808,44.0547945 C35.0684932,42.739726 35.5068493,41.2054795 35.5068493,39.4520548 L35.5068493,20.8219178 C35.5068493,16 31.5616438,12.2739726 26.9589041,12.2739726 L8.54794521,12.2739726 C6.79452055,12.2739726 5.26027397,12.7123288 3.94520548,13.5890411 L3.94520548,8.54794521 C3.94520548,6.1369863 5.91780822,3.94520548 8.54794521,3.94520548 L39.4520548,3.94520548 C41.8630137,3.94520548 44.0547945,5.91780822 44.0547945,8.54794521 L44.0547945,39.4520548 Z" id="Shape"></path>
        </g>
    </g>
</svg>