<svg height="48" viewBox="0 0 144 48" width="144" xmlns="http://www.w3.org/2000/svg"><g fill="none" fill-rule="evenodd"><path d="m48 36-24 12-9-4.5v-24l9-4.5 6 3v-9h-18l6 3-9 4.5v24l-9-4.5v-24l24-12 24 12v9l-18 9v6l18-9z" fill="#35c287"/><path d="m60 21h19v6h-19z" fill="#9fa9b5"/><path d="m84 24-12-12v24.0894508z" fill="#9fa9b5"/><g fill-rule="nonzero" transform="translate(96 9)"><g transform="matrix(1 0 0 -1 0 30)"><path d="m13.7170145 30h-12.19903951s-1.51797499 0-1.51797499-1.4483185v-28.5516815h15.2347871v28.5516815s0 1.4483185-1.5177726 1.4483185" fill="#ef2c30"/><path d="m30.0082733 30h-12.1982301s-1.517975 0-1.517975-1.4483185v-28.5516815h15.2347871v28.5516815s0 1.4483185-1.518582 1.4483185" fill="#1b5c29"/><path d="m46.482025 30h-12.1986348s-1.518582 0-1.518582-1.4483185v-28.5516815h15.2351918v28.5516815s0 1.4483185-1.517975 1.4483185" fill="#3db94d"/></g><g fill="#fff" transform="matrix(1 0 0 -1 0 31.117582)"><path d="m1.97571466 20.924153h3.1919562l2.20492848-7.0022009h.02792329l2.21787842 7.0022009h3.17981565v-10.7307232h-2.1108391v8.2312766h-.0265069l-2.51673862-8.2312766h-1.60963623l-2.42143518 8.2312766h-.02711392v-8.2312766h-2.11023209"/><path d="m19.8833477 20.924153h4.042605c2.259561 0 4.1348732-.7123892 4.1348732-3.2581181 0-2.516204-1.7375168-3.2886405-4.0274292-3.2886405h-1.7520855v-4.1839646h-2.3979635zm2.3979635-4.5462438h1.5987097c.8445785 0 1.690371.2878683 1.690371 1.2881257 0 1.1067866-1.1369637 1.2576032-2.0592418 1.2576032h-1.2298389"/><path d="m37.1755352 20.924153h2.3991775v-8.5480714h4.4420295v-2.1826518h-6.841207z"/></g></g></g></svg>