<svg height="48" viewBox="0 0 48 48" width="48" xmlns="http://www.w3.org/2000/svg" xmlns:xlink="http://www.w3.org/1999/xlink"><radialGradient id="a" cx="53.026681%" cy="47.425076%" gradientTransform="matrix(.01407561 .99983327 -.90518701 .02144655 .952089 -.066099)" r="44.495301%"><stop offset="0" stop-color="#ff0289"/><stop offset=".999469037" stop-color="#7e3488"/></radialGradient><radialGradient id="b" cx="51.803242%" cy="50%" gradientTransform="matrix(0 1 -.76949232 0 .902778 -.018032)" r="47.141244%"><stop offset=".00011268029" stop-color="#ffef0d"/><stop offset="1" stop-color="#ffdb04"/></radialGradient><g fill="none" transform="matrix(1 0 0 -1 0 42.5)"><path d="m27.9482974 36.9880684c-1.5401908-.0311867-3.9507629-.149696-5.0638108-.2482459-4.3407631-.3854674-8.7743833-1.1376901-12.2138128-2.0707955-4.25657258-1.1551545-7.24162099-2.5697823-8.91924049-4.2289135-.81714307-.8071113-1.26657176-1.5555916-1.50428611-2.5011716-.30952389-1.2374874-.32809533-2.5061615-.0569524-3.8796228.58314302-2.9564971 2.44276256-6.1787047 5.700192-9.8799397 2.23971488-2.5435855 3.84800102-4.19523196 5.7026682-5.85685818 2.9058103-2.6034639 6.283335-5.02604507 10.0223836-7.19164801.3689525-.21456435.5299049-.29689718.7762859-.40417935 1.3792385-.59379436 2.9813342-.83580298 4.5041917-.68111706 2.1084768.21581182 4.106763 1.18758871 5.9180968 2.87541174 1.1192384 1.04288252 3.1410485 3.43178208 4.884287 5.76953548 4.2479059 5.69593488 7.8445736 12.10167868 9.6051455 17.10901168.2104762.5987842.4890477 1.481991.5843811 1.8549836.1188571.4603154.1460952 1.2000634.0680952 1.8000951-.1460953 1.1077508-.6017144 2.1094669-1.3495241 2.9689718-.1522858.1746454-.5100954.5264311-.6871431.6748797-.6908573.5813197-1.4820004 1.0403876-2.4947626 1.4483093-3.7353343 1.5056929-7.3815257 2.2454409-11.9290508 2.4175913-.9620002.0361766-2.4539054.0461563-3.5471438.0237019z" fill="url(#a)"/><path d="m24.1411536 29.4920384c.3862858-.0785904.9161907-.0586309 1.3210479.0498987l.0183763.0050616c.1753365.048952.2834334.09833.2777691.1274223l-.0011089.0042347-.0059275.0245694-.082347.3564109-.0172294.0765332c-.0371066.1635107-.0672863.2880548-.0694373.2902221-.0024762.0024949-.0482857-.0099797-.1002857-.0274443-.1324763-.0436613-.3157144-.0798379-.4977144-.0985499-.1919049-.018712-.3726668-.0012474-.5373335.0523937-.3318096.1072821-.5484764.3542806-.6425716.7310157-.005881.0240137-.0105238.0449868-.0141801.0661352l-.0010675.0063531c-.0096921.059404-.0118463.1227047-.0119833.2605027l.0000515.0637057c.0003533.122294.0025713.1724294.0136578.2238618l.0011816.0053406c.0044511.0196212.0102191.0397969.0176889.0645636l.0020796.0068714c.0557143.1833777.1213334.2968972.2414287.419149.2067619.208327.479143.3106193.8307621.3106193.1857143 0 .4519049-.0424139.5819049-.09356.0160953-.0062374.0321905.0586309.0953334.395447l.0235029.1240631c.0458043.2444683.0485295.2819002.0334495.2938384-.0166517.0127831-.1176042.0393815-.2221972.061116l-.0110198.0022691-.0194482.0039018c-.0485481.0095736-.0961938.0177074-.1348587.0225308-.5348573.0661157-1.0833337-.018712-1.5055242-.2332764-.3553335-.1796353-.6747621-.5064716-.8332384-.85202-.2550476-.5576179-.2389524-1.3048507.0420953-1.8549837.2352381-.4628103.6623811-.7759245 1.2071432-.8881966zm-3.898763-.4378609c.0011391.0008607.0031296.0113562.0057757.0297257l.0025603.0186649c.0092105.0699204.0239611.2080303.0387117.364521l.01713.1689269c.0106228.1028538.0198718.1882845.0257083.2352351l.0022765.0176313c.0012472.0091981.002247.015625.0029642.0189169l.0088734.0383172.501309.0704018c.2448268.0338385.443556.0566402.4483103.0518499l.0005464-.0009335c.0078198-.0146138.0824379-.1819507.1700773-.3866188l.0583966-.136267c.0480195-.1115809.0788698-.181471.1001952-.2248838l.0033679-.0067941c.0267703-.0534887.0377252-.0624485.050343-.0616638l.0008832.0000701c.0334286.0037424 1.0115241.1397163 1.0338098.1447062.0095086.0011975-.2742273.6416092-.7383826 1.6662852l-.2901826.6402014c-.5051539 1.1134017-.5862581 1.2823272-.6069591 1.2812394-.0495238-.0025055-1.2950479-.1821408-1.2987622-.1871306-.0061905-.0074848-.5633335-3.8833652-.559656-3.8883551.0049892-.0062373 1.0152752.1372214 1.0227037.1459537zm.1275239 1.6516465-.0000553.0002866c-.0002818.0042754.0045359.0548651.0120167.1315155l.0234318.2403836c.0076441.0796633.0165463.1757188.0252884.2731624l.0096977.1094786c.0087808.1004749.0168091.1963395.0224778.2705912l.0216552.2597537c.005299.0615666.009472.1062312.0117734.1207238l.0074286.056136.1154746-.2900247.160643-.3996897.0993742-.2463131c.0949852-.2365495.1663483-.422801.1618417-.4262066-.0061905-.0062373-.6673335-.1047872-.6710478-.0997973zm6.4340429 2.6100123.3679555-.0145266c.1160722-.004869.1964757-.0090027.1981939-.0107339.000941-.000948-.0059844-.2086902-.0169718-.5005623l-.0234211-.60713c-.0106785-.2858844-.0171785-.4884418-.0153214-.490313.0011383-.0022938.0399489.0565663.088532.133929l.0129918.0207569c.0693334.1110246.7676193 1.1713716.9273336 1.4071429.0012381.0024949 1.1563813-.0436613 1.2009527-.0474037l.0359048-.0037425-.0854286-.1060347-.0298507-.036642c-.0642292-.0792279-.2049108-.2540926-.3712923-.4615651l-.6957942-.8688242c-.0327531-.0407958-.0521517-.0648613-.0544917-.0675559-.0111428-.0145953.0609515-.1645908.4256796-.8674025l.2523792-.4858918c.2582979-.4982674.4520006-.8760916.4498463-.8771769-.0024762-.0024949-.2637144.0049899-.5806668.0174646l-.5757145.0224544-.4485329.9563084c-.1584465.3369969-.2787863.5896776-.2819435.5917983-.0061904.0037424-.2525715-.2806801-.2971429-.344301-.0123809-.0174645-.0222857-.1621707-.038381-.5863095l-.009866-.218872c-.0094018-.202616-.0170625-.3471662-.0198482-.349973-.0074286-.0074848-.9756194.0324341-.984286.0399189-.0037143.0037424.026.8382979.065619 1.8562311l.0471868 1.253409c.0140689.3776822.0228028.6209353.0221466.6315139v.0361765l.1337143-.0087323.1077469-.0050847c.0544155-.0024554.1214201-.0053683.1927706-.0083263zm-15.2331881-4.6296616.5880954-1.7738983.548628.1838074c.2184801.073533.3865427.1320762.3898484.1342967.0024762.002495-.0742857.248246-.1733334.5451432l-.1782857.5401532.0792381.227039.0146329.0402253c.0383148.1044655.0701078.1841802.07451.1830714.0049523-.002495.2798096-.266958.6103811-.590052l.1817625-.1759526c.2457349-.2373618.4290272-.4120784.4360472-.4140993.0069828-.0011727.2218221.0681995.4882098.1583823l.5596684.1904486.0293575.0097853c.0032959.0010714.005355.0017146.0060979.0019018.0099047.0037424-.3602858.3443009-.9075241.8345555l-.1782244.1605141c-.4232444.3817029-.7453949.6760373-.7453949.6815262l.0001656.0009524c.005394.023733.1419183.4460151.3093583.9533599l.1576629.4826627c.0893778.2745659.1489639.4596036.1481467.4604357h-.0003008c-.0071461-.0012871-.1391182-.0448787-.3270407-.1076627l-.1729346-.0578959-.0828669-.027812c-.4519049-.152191-.583143-.2008422-.5918097-.2208017-.0134828-.0333448-.33033-1.4226002-.3691014-1.6210506l-.0054829-.0285286c-.0135122-.0692957-.0270442-.1290399-.031511-.1380412-.0049524-.0099797-.1114286.2919073-.2600001.739748l-.056231.1693406c-.111576.3347474-.1980986.5866245-.2012929.5866245l-.0010061-.0001905c-.0168367-.0040893-.2258625-.0734974-.4756606-.1569904l-.1289919-.0436377c-.2830305-.0962842-.3370273-.1193813-.3315797-.1347501l.0006105-.0016236c.0150618-.0419549.2782581-.8362002.5961516-1.7909866zm-1.3024766-2.544833c.3548237.0653379.7725223.2354486 1.0965628.4465224l.0115328.0075557c.0273684.0178584.056383.0379285.0851378.058662l.0172064.0125074c.1014394.0743263.1947987.153112.1947987.1670968 0 .0030007-.0660669.1088595-.1462642.2357459l-.1330066.2093494c-.0680091.1064821-.1262399.1966742-.1433036.2211204l-.0033035.0045989c-.0005491.0007266-.0009724.0012526-.0012651.0015702-.0024762.0024949-.039619-.0237019-.0829524-.0573835-.2352381-.1871201-.5460001-.3355687-.7985716-.3842199-.1436191-.0274443-.3466668-.018712-.46800014.0199595-.26990484.0860752-.4766668.2756902-.61904779.5675975-.12257146.2519884-.16095242.4154066-.15228575.6474355l.00089184.0215888c.0048788.1106729.01214458.1522494.0424415.2391318.04828573.1397163.10152384.227039.20428577.339311.21790482.2357713.56952396.3904573.97685737.4291287l.024982.0023853c.0567904.0056453.1016133.0116487.10378.0138318.0024762.0024949-.0235238.1846251-.0594286.4066743l-.0631429.4016844-.0940953-.0012475c-.2513334-.0024949-.69333347-.1334789-1.01523832-.2993921-.2500953-.1284891-.45933345-.2856699-.64380969-.4815223-.50761918-.5401532-.63761922-1.2574468-.362762-1.9984423.25876197-.6985816.76266687-1.1439274 1.40895275-1.2437248.15104766-.0237018.45314296-.0174645.61904776.0124747zm-1.71597569-.7834093c.00245145.0024949-.36526293.7659448-.81716781 1.6965553l-.38879632.7987483c-.25870563.530827-.43692676.8948418-.43948962.8965836-.00345429.0011369-.17717036-.0807817-.3956685-.1885832l-.24654022-.1217703c-.14614628-.0718251-.24977723-.1220178-.25417247-.1237892-.00485334-.0018337.38268543-.8102664.78185922-1.6373261l.25044089-.5181737c.32134057-.6639113.59539863-1.2262164.60446223-1.2363633.00619048-.0062373.88276214.4141591.9050726.4341186zm-3.38755084-1.81198.25589208.1466698c.11853135.0675722.1995761.1131118.203538.1147085.00557143.0011227-.10418574.2043351-.25074778.4668608l-.13402775.2393355c-.13046326.2334459-.22684368.4084281-.22684368.4115343 0 .0037424.05447621.0361765.12009527.0698581.50009156.2605834.84000674.6091971.98010187 1.0046869l.0104769.0303191c.03022416.0886434.03404811.1128036.0345051.2511791l.00005926.0486048c0 .2137705-.01441034.2896065-.0905377.4825145l-.00355756.0089875c-.14857147.3754876-.42590488.6312184-.79114307.7335107-.09409526.0261968-.37761915.0324341-.48904775.0112272-.33304771-.0636208-.66114303-.2158118-1.20466699-.5576178l-.02334225-.0148601c-.06129234-.0392721-.1346659-.088138-.20881409-.1387054l-.01935314-.013225-.03456776-.0237523-.05755693-.0399225c-.11348212-.0791861-.21471916-.1527046-.25952661-.1897133l-.00956941-.0079527c-.01962921-.0167298-.02275204-.0263367-.01472191-.0405078l.00271219-.0045712c.02485155-.0427083.29878812-.5297144.66016395-1.1736021l.26991207-.4810312c.4758913-.8471804.86605087-1.538612.87333087-1.5459471.00960763-.0096804.1182338.0463688.40723682.2114117zm-.53971304 2.0664633c-.02476191.0261968-.46552394.8270707-.46057155.8370504.02817957.0432065.29278421.1963583.41107558.2358109l.00368643.0012079c.04085716.0137221.10771432.0224544.1671429.0224544l.01164166.0001336c.07510926.0005792.10155565-.0053611.16169172-.0350627.09285717-.0436614.168381-.1259942.22038101-.2357713.05227015-.1102307.0615749-.2541319.02322712-.3608644l-.00217949-.0058909c-.03714287-.1022923-.12257146-.2120695-.22038101-.2844225-.0256579-.0192045-.06292697-.0433291-.10294034-.067486l-.01522901-.0091178-.00858458-.0050748-.01724011-.0100567-.01677508-.009617c-.07732756-.0439509-.14936333-.0796203-.15494525-.0732931zm32.49877057 2.8192757c.1386667.09356.3652382.3268364.466762.4815223.1535239.2345238.2897144.5675975.3540954.8657422.1163809.550133.0284762 1.0778116-.2500953 1.4969605-.0829524.1247467-.2996192.3405586-.4296192.4266338-.2141905.1422112-.4766668.2507409-.7490478.3093718-.1411429.0299393-.5261906.0449089-.6561907.0249494-.5856192-.0923126-1.0672384-.4590679-1.3495241-1.0291604-.2649525-.5351634-.3243811-1.1663818-.1560001-1.6666161.1770477-.5251837.5720002-.9069086 1.1217146-1.0828015.6128573-.1983472 1.1860956-.1372213 1.6479052.173398zm-1.1031432.5426482-.0257363.0000603c-.1096651.0005745-.1393573.0056608-.211978.0323738-.1659048.0611259-.2996191.1821302-.3800953.3443009-.1238096.2507409-.1250477.6524254 0 1.0403876.0866666.2694529.1931429.4603154.3429524.608764.1314858.1312543.2677602.2046096.4158866.2224379l.0075421.0008587c.3503811.0411664.6413335-.1771403.7354288-.550133.1324762-.5176989-.1225715-1.3073455-.5088573-1.5805408l-.017414-.0120888c-.1266642-.0868901-.1894541-.1052266-.357729-.1064206zm4.8681918-2.4475305c.00546.0055013.312943.8559397.6245746 1.722543l.2127891.5924708c.2411184.6722285.4398491 1.2295547.4379036 1.2315352l-.0005092.0003428c-.011602.0067804-.2009953.0774031-.398836.1499592l-.2026031.0738873c-.1426945.0517186-.254734.0915294-.2560808.0901724-.0106971-.0107781-.3842414-1.0654527-.4864035-1.3727526l-.0113109-.0343903-.0084928-.026174c-.0929432-.2881256-.2298158-.765294-.2490311-.8645175l-.0010575-.0055879c-.0156298-.0803748-.0286568-.0491362-.0286568.0692087l-.0000477.0239319c-.0015648.3918389-.0417504.8326788-.1485237 1.668881l-.0694301.5357092c-.0468256.3582881-.051947.3833877-.0596974.3916674l-.0021107.0019864c-.0052619.0053017-.1500695.061076-.3401401.131316l-.1685897.0619264-.375934.1373434c-.0496781.018047-.0873149.0316462-.1070507.0386645l-.1126667.0411664-.0136191-.0324341c-.0718095-.1796353-1.2628574-3.5053827-1.2591604-3.5153624.0049696-.0137222.8456365-.3243415.8543032-.3156092.0037143.0024949.1101905.2944022.2364762.6474354l.0258306.0716541c.2098751.5843081.4932782 1.4224623.5610267 1.653593l.0030688.0105496c.0140945.0472488.0294594.0827552.0340741.079268.0048738-.0024553.0133449-.0906914.0183328-.1969351l.0016669-.0382146c.0095022-.2072443.0329969-.5074657.0599942-.7603774l.004728-.0436993c.0322737-.2925705.227402-1.8537746.2334687-1.8598872.0042466-.0048901.2412532-.0924468.4824779-.1798957l.1991565-.0718127c.1714344-.0614543.3082359-.1094204.3100801-.1075621zm2.1703816-.9568618c.0037142.0013019.2686667.6013336.5880953 1.3323494l.1309789.2979711c.2594477.588968.4579832 1.0318288.463307 1.0318288l.0006763-.0001042c.012979-.0029803.166499-.0695296.3613351-.1560076l.1399152-.0622063c.2119613-.0936884.3799937-.1630076.3845498-.1584169l.0005597.0007554c.0101131.0150305.0830192.1792384.1577457.351708l.0521732.1210861c.066071.1542283.1216768.2876641.1201569.2923953-.0002825.0006237-.0065007.0039045-.0182206.0096304l-.0155288.0074845c-.1306273.0623259-.6257449.2864996-1.2218752.5524856l-.333331.1484432c-.6101701.2712636-1.078709.4770298-1.0841567.4770298-.0061904 0-.0222857-.0237019-.0346666-.0523936l-.0111773-.0261102c-.0102395-.0236153-.0260066-.0595998-.045313-.1035714l-.1106526-.2520434c-.0475107-.1084561-.0887898-.2065972-.1136957-.2688772l-.0042866-.0107734c-.0139324-.0352084-.0215872-.0565937-.0206844-.058413.0034542-.0046405.172887-.0826487.3858061-.1778334l.0694614-.0310492c.3293272-.1478576.4047941-.184914.4004171-.2022515l-.0001606-.00053c-.00078-.0023577-.013026-.0306817-.0348232-.0806628l-.7135309-1.6281931c-.3575208-.8168699-.4084234-.9446065-.39317-.9544864l.0012249-.0007451c.0215069-.0124999.1905588-.0890385.3763618-.17175l.1811541-.0802508c.182011-.080234.3387237-.1480499.3413547-.1464981zm-26.5076262 2.733255c.0074286-.0087323.9496193.1958523.9632384.2095744.0037143.0037424-.0532381.2769377-.1250477.608764l-.0478048.2187281c-.0379141.1747835-.0674276.3142122-.0791621.3733373l-.0042395.0220888c-.000837.0046575-.0012698.0074803-.0012698.0083319 0 .0149696.0222857.0237019.090381.0349291.1399048.0212069.3664763.0823328.5001906.1322315.2699048.1010448.4729525.227039.6425716.397942.2364762.2370188.3380001.5102141.3231429.8669897-.0148571.3505382-.1188571.6162487-.3293334.8407928-.1696191.1783878-.3813334.283175-.6623811.3255889-.298381.0436614-.6041906.0099798-1.1675241-.1297366l-.024685-.0062797c-.4046856-.1036451-.8790509-.258807-.8754519-.28937.00747-.0511461.7911845-3.6064274.7973749-3.6139122zm.6017145 2.2329661-.0730477-.0024949-.1759944.8026868-.0270532.1254287.1065297.0352976c.0513677.0167344.1209941.0365757.162137.0457878.1238096.0274443.3082858.0249493.3912382-.0049899.1795239-.0636208.2810477-.2220491.2822858-.4428508 0-.1546859-.0309524-.2345238-.1361905-.3405585-.1188572-.1197569-.3392382-.210822-.5299049-.2183068zm13.6500036-1.2724165c.0111429-.0074848.9756193-.1634181.9793336-.1584283l.0002033.0005581c.0039497.0136449.046023.2600638.0963329.5673212l.0609755.3726071c.0308764.1867967.0525436.3136298.0542027.3144656.0012381.0024949.0680952-.0099798.1485714-.0261969.4382859-.0898176.8456193-.0698581 1.1662861.0573835.414762.1634182.674762.5301736.7366668 1.0403876.0359048.2906599-.0569524.6187437-.2364762.8395454-.1881906.2307814-.5261907.4079218-.9644765.5064717l-.0138293.0030418c-.1434602.0311227-.3732989.0681342-.6069447.0985237l-.0339511.0043657-.0226361.0028545c-.0339448.0042466-.0678295.0083322-.1014009.0122186l-.018438.0019443c-.0659476.0067744-.1463242.0132046-.2277969.0186239l-.0357214.0023074-.0438223.0026459c-.1093208.0063473-.2126898.010445-.2770499.0106403h-.0100703l-.0139088-.0001404c-.0271928-.0004579-.0430021-.0019957-.0430021-.0048348l-.0002566-.0020538c-.0063938-.0451264-.131483-.8148844-.2861994-1.7627768l-.2296335-1.4059488c-.0372367-.2301258-.0658964-.4113938-.0744326-.4729109l-.0017482-.013166c-.0007527-.0060939-.0010251-.0093248-.0007775-.0094496zm1.6887624 1.8125698-.0080046.0000549c-.1197449.001601-.340313.0378681-.3584717.0598235-.0024762.0031187.0309524.2261034.0668572.4553255l.0300085.189324c.0249629.1554959.0463572.2832166.0517058.3034255.0019628.0049443.1050595-.0050045.2032228-.0186622l.0090441-.0012709c.0187999-.0026683.0372966-.0054611.0547359-.0082987l.0103306-.0017074c.2476191-.0399189.402381-.1359739.4704763-.2894124.0710914-.1654889.0184102-.4165629-.114796-.5438199l-.0040612-.0038181c-.1089524-.1022923-.2228572-.1409638-.4110477-.1409638z" fill="#fff"/><path d="m28.901631 26.7975094c2.5566674-.0736005 4.5264774-.4253863 6.5742875-1.175114.7552383-.2769377 1.1229527-.4503356 1.5377147-.7285208.5645716-.3779826.9706669-.8270707 1.2356194-1.3709664.2117143-.4328711.3070477-.8557624.3082858-1.3597392 0-.3929521-.0284762-.5389058-.2216191-1.1414324-.9657146-2.998911-3.2982866-7.1180474-6.0220969-10.6346573-.867905-1.12147293-1.8732386-2.27912243-2.4390483-2.80929596-.7341906-.68860186-1.5327623-1.17760897-2.3660006-1.44830934-1.0598098-.34430093-2.1988577-.34180599-3.2623818.00623734-.3615239.11850937-.5162859.189615-.9409526.43411856-2.1976197 1.26243674-4.1934297 2.70076634-5.8933349 4.2426357-.4457144.4041794-.6264764.5788248-1.2021908 1.1576495-.6623812.6673949-1.2913337 1.3447696-1.9487625 2.0969923-1.8360957 2.1007346-2.8699055 3.981915-3.1138103 5.6635007-.0445715.304382-.0606667.5750824-.052.8794644.0160952.6125063.1275238 1.1302052.3305715 1.5431168.1473334.3006396.3132382.5301735.5880954.8133486.6252382.6449405 1.5488575 1.2038058 2.8600007 1.7289894 2.2830483.9156409 5.6642873 1.6217073 9.3600025 1.9572759.6240002.0573835 2.1778101.1347265 2.9776199.1484486.4828573.0087323 1.3185718.0074848 1.6900004-.0037424z" fill="url(#b)"/><g fill="#000"><path d="m25.2678205 24.2576664c.6165716-.1484486.932286-.2382663 1.3000004-.3729927 1.1006669-.4016844 1.9809529-.9805092 2.5715245-1.690318.1572381-.1871201.3305715-.4465932.4135239-.6174962l.0606667-.1247467v.227039c0 .643693-.1436191 1.2038058-.4110477 1.5967579-.0854286.1272417-.2897144.3318263-.4060954.4091692-.3862858.2532359-1.1501908.4465933-2.1233339.5351634-.3813334.0349291-.5893335.0449089-1.0400003.0511462-.4221906.0049899-.4420001.0049899-.3652382-.0137221z"/><path d="m19.3806761 22.9914872c-.687143-.0573835-1.2814289-.2407611-1.7271433-.5326685-.2872382-.18712-.5286668-.4465932-.7081907-.75846-.1597143-.2794326-.2897143-.6773746-.3157143-.9655395l-.0074286-.0935601.2030477.1933574c.3466667.3305788.596762.5438957.9260954.7908942.802286.5987842 1.6330481.9929838 2.4340959 1.1551546.2921906.0586309.4878097.0785904.7923812.0785904.2550477.0012475.2674286.0024949.1919048.0162171-.1609524.0324341-.4803811.0798379-.6623811.0985499-.2191429.0237018-.9223812.0349291-1.126667.0174645z"/><path d="m26.4130589 22.411415c-.5596192-.0461563-1.0461907-.1671606-1.4857146-.3704977-.6363812-.2944023-1.1353337-.7147987-1.4980957-1.2624368-.1869524-.283175-.2860001-.4765324-.4160001-.8133485-.0099048-.0249494-.0235238-.0149697-.1745715.1384688-.4902858.493997-1.1155241.7859043-1.9289529.9019187-.220381.0311867-.8183811.0311867-1.0461907-.0012474-.5299049-.0736006-.945905-.2033372-1.399048-.4353661-1.0523812-.5414007-1.7568576-1.5655712-1.9202862-2.7905839-.0284762-.2158118-.0284762-.6486829 0-.8669897.0866667-.6561677.3082858-1.2200228.6698097-1.70903.2290476-.3081243.5138096-.5613602.7923811-.7023239.1770477-.0898177.465524-.1634182.8171431-.210822.2290477-.0299392.7985716-.0299392 1.0461908.0012475.6041906.0736005 1.1353336.2282865 1.6528575.4815223.8047622.3941996 1.411429.9805092 1.7816196 1.7239996l.1002857.2033371.0866667-.1172619c.1064762-.1447062.3120001-.3630129.4382858-.4653052.3194287-.2594732.5905716-.3655079 1.140286-.4428509.2240953-.0311867.8654288-.0311867 1.1080956 0 .9310478.1222518 1.7221909.4403559 2.3957149.9642921.1745715.1359739.4692382.4291287.6041906.6012792.5769526.7347581.8468574 1.6379243.7440955 2.4911918-.0829524.6948392-.4085716 1.385936-.8493336 1.80259-.492762.4690477-1.1340955.7559651-1.9116195.854515-.1485715.018712-.621524.0336816-.7478098.0237019z"/></g><path d="m26.8897257 21.7065961c.3924763-.037424.7403812-.1347265 1.0833337-.304382.583143-.2869175.9681907-.7110563 1.2071431-1.3310474.3602858-.931858.1820001-1.992205-.479143-2.8292555-.1064762-.1347264-.350381-.3817249-.4865715-.491502-.6400954-.5139565-1.477048-.8258233-2.3734292-.8819593-.4481906-.0274443-1.0090479.0424139-1.2876194.1621707-.4122858.1783878-.7998097.5888045-1.0560955 1.1177306-.3528573.7322632-.4122858 1.5718086-.1671429 2.3390008.2872381.891939.9223812 1.5892732 1.7803814 1.9510386.5546668.2345239 1.1650479.3268364 1.7791433.2682055z" fill="#fff"/><path d="m20.7042003 20.3169177c.4358096-.058631.8493335-.1958524 1.166286-.3867148.2117143-.1284891.3256191-.2170593.4878097-.3804775.1597143-.1609233.2711429-.3081244.376381-.4964919l.0606667-.1085297.0037143-.2382662c.0074285-.4478407.0866667-.8881966.2278096-1.2611893l.0383809-.1010448-.0198095-.1135195c-.1795239-1.0453775-.9223812-1.9323266-2.0057148-2.3963844-.5868573-.2507409-1.1675241-.3617654-1.8051434-.3455484-.4085715.0099798-.7416192.0686107-.9768574.170903-.2909524.1259942-.6215239.4253863-.8443811.7659449-.4209525.6411981-.595524 1.4682688-.4704764 2.2279763.0272381.1646656.0940953.4228913.1473334.568845.0631429.1746454.2253334.4989868.3293334.6599101.5385716.8345555 1.4485718 1.3535018 2.5442864 1.4532992.168381.0149696.5620954.0049899.7403812-.018712z" fill="#fff"/><g fill="#000"><path d="m26.1530589 21.0130043c-.2661906-.0361765-.6264764-.1646656-.8381907-.2981446-.3280954-.2070795-.5992383-.5513805-.7205717-.9168883-.0990476-.2981447-.0990476-.6436931-.001238-.8881966.0879047-.2170593.2897143-.419149.5484763-.550133.2228572-.1122721.4779049-.170903.7502859-.170903.3020953 0 .5323811.0573834.815905.2033371.4754287.2445036.841905.6000317.9694288.9430852.0656191.1746454.0804762.3330737.0470476.4989868-.0284762.1384689-.0804762.2544833-.1894286.4228914-.3528572.5426482-.7044764.7684397-1.1898098.7622024-.0854286 0-.1708572-.0037424-.1919048-.0062374zm.7180954-.6574151c.2315239-.0648683.388762-.2320289.427143-.4553255.0458095-.2657105-.1349524-.5426482-.4172382-.6387032-.1151429-.039919-.2983811-.039919-.4048573 0-.2067619.074848-.3441906.2345238-.3788572.4416034-.0482858.2781851.1646667.5800722.4618096.6524253.0866667.0212069.2364763.0212069.3120001 0z"/><path d="m20.3649621 19.9801016c-.1262858-.021207-.2736191-.0611259-.4048573-.1072822-.4420001-.1571809-.7985716-.4665527-.9991431-.8682371-.1139048-.2270391-.156-.3879623-.1646667-.6349608-.012381-.3542807.0606667-.5663501.2748572-.7859043.2005715-.2058321.4704763-.3380636.8097145-.3966945.1510477-.0261969.4197144-.0261969.5720002 0 .5856192.0985499 1.2851432.6150012 1.4832385 1.0940286.1349524.3293313.091619.6237336-.1448572.9767668-.2884763.4341186-.5880954.6636525-.9483812.7272733-.0990477.018712-.362762.0149696-.4779049-.0049898zm.7861907-.6486829c.2785715-.0736006.4618096-.3430535.4172382-.6125064-.0792381-.4827698-.7057145-.6823645-1.0499051-.3368161-.3045715.3081243-.1399048.8270707.3008573.9493225.0817143.0224544.2439048.0224544.3318096 0z"/><path d="m28.9325834 13.5531509c-.13-.1035398-.492762-.3729927-.699524-.5176989-1.7036195-1.1925785-3.3923818-1.8599735-5.0080966-1.9822252-.2513334-.018712-.9285716-.0074848-1.1390479.018712-.2909524.037424-.699524.1234992-.8320002.1758928-.038381.0149696-.0235238-.0112272.0247619-.0424138.2810477-.1858726.7280002-.4416034 1.088286-.6249811 1.1799051-.60127913 2.2471435-.89193897 3.0246675-.82457575.4320953.03742402.7886669.16840806 1.1799051.43037615.7453335.5014818 1.4832385 1.4345872 2.0775243 2.6296607.1485715.2981447.3540954.7659448.3429525.7784195-.0024762.0012475-.0297143-.0162171-.0594286-.0411664z"/></g></g></svg>