<svg xmlns="http://www.w3.org/2000/svg" width="144" height="48" fill="none" xmlns:v="https://vecta.io/nano"><path fill="#35c287" d="M48 36L24 48l-9-4.5v-24l9-4.5 6 3V9H12l6 3-9 4.5v24L0 36V12L24 0l24 12v9l-18 9v6l18-9z"/><g fill="#9fa9b5"><path d="M60 21h19v6H60z"/><path d="M84 24L72 12v24.089z"/></g><g transform="matrix(1 0 0 -1 96 43)"><path d="M27.948 36.988l-5.064-.248c-4.341-.385-8.774-1.138-12.214-2.071-4.257-1.155-7.242-2.57-8.919-4.229-.817-.807-1.267-1.556-1.504-2.501-.31-1.237-.328-2.506-.057-3.88.583-2.956 2.443-6.179 5.7-9.88 2.24-2.544 3.848-4.195 5.703-5.857 2.906-2.603 6.283-5.026 10.022-7.192.369-.215.53-.297.776-.404 1.379-.594 2.981-.836 4.504-.681 2.108.216 4.107 1.188 5.918 2.875 1.119 1.043 3.141 3.432 4.884 5.77 4.248 5.696 7.845 12.102 9.605 17.109.21.599.489 1.482.584 1.855.119.46.146 1.2.068 1.8a5.57 5.57 0 0 1-1.35 2.969c-.152.175-.51.526-.687.675-.691.581-1.482 1.04-2.495 1.448-3.735 1.506-7.382 2.245-11.929 2.418a70.44 70.44 0 0 1-3.547.024h0z" fill="#e8371d"/><path d="M29.398 30.989c3.072-.088 5.439-.508 7.899-1.403.907-.331 1.349-.538 1.848-.87.678-.451 1.166-.988 1.485-1.637.254-.517.369-1.022.37-1.624 0-.469-.034-.644-.266-1.363-1.16-3.581-3.963-8.501-7.236-12.7-1.043-1.339-2.251-2.722-2.931-3.355-.882-.822-1.842-1.406-2.843-1.73a6.35 6.35 0 0 0-3.92.007c-.434.142-.62.226-1.131.518-2.641 1.508-5.039 3.225-7.081 5.067-.536.483-.753.691-1.444 1.382-.796.797-1.552 1.606-2.342 2.504-2.206 2.509-3.448 4.755-3.741 6.764a5.79 5.79 0 0 0-.062 1.05c.019.731.153 1.35.397 1.843.177.359.376.633.707.971.751.77 1.861 1.438 3.436 2.065 2.743 1.093 6.806 1.937 11.247 2.337.75.069 2.617.161 3.578.177.58.01 1.584.009 2.031-.004h0z" stroke="#000" stroke-width="1.815" fill="#fff"/><path d="M25.032 27.955l1.562-.445c1.323-.48 2.38-1.171 3.09-2.019a4.17 4.17 0 0 0 .497-.737l.073-.149v.271c0 .769-.173 1.438-.494 1.907-.103.152-.348.396-.488.489-.464.302-1.382.533-2.551.639l-1.25.061c-.507.006-.531.006-.439-.016zm-7.074-1.512c-.826-.069-1.54-.288-2.075-.636a2.66 2.66 0 0 1-.851-.906 3.18 3.18 0 0 1-.379-1.153l-.009-.112.244.231c.417.395.717.65 1.113.945.964.715 1.962 1.186 2.925 1.38a4.3 4.3 0 0 0 .952.094c.306.001.321.003.231.019a10.99 10.99 0 0 1-.796.118 12.51 12.51 0 0 1-1.354.021h0zm8.45-.693c-.672-.055-1.257-.2-1.785-.442a4.23 4.23 0 0 1-1.8-1.508 4.4 4.4 0 0 1-.5-.971c-.012-.03-.028-.018-.21.165-.589.59-1.34.939-2.318 1.077a6.95 6.95 0 0 1-1.257-.001 5 5 0 0 1-1.681-.52c-1.264-.647-2.111-1.87-2.307-3.333-.034-.258-.034-.775 0-1.035.104-.784.37-1.457.805-2.041.275-.368.617-.67.952-.839.213-.107.559-.195.982-.252a7.23 7.23 0 0 1 1.257.001 6.12 6.12 0 0 1 1.986.575c.967.471 1.696 1.171 2.141 2.059l.12.243.104-.14c.128-.173.375-.434.527-.556.384-.31.71-.436 1.37-.529.269-.037 1.04-.037 1.331 0 1.119.146 2.069.526 2.879 1.152.21.162.564.512.726.718.693.877 1.018 1.956.894 2.975-.1.83-.491 1.655-1.021 2.153-.592.56-1.363.903-2.297 1.02a8.14 8.14 0 0 1-.899.028h0z" fill="#000"/><path d="M26.981 24.909a3.65 3.65 0 0 0 1.302-.364c.701-.343 1.163-.849 1.45-1.59.433-1.113.219-2.379-.576-3.379a4.95 4.95 0 0 0-.585-.587c-.769-.614-1.775-.986-2.852-1.053-.539-.033-1.212.051-1.547.194-.495.213-.961.703-1.269 1.335a3.77 3.77 0 0 0-.201 2.793c.345 1.065 1.108 1.898 2.139 2.33a4.43 4.43 0 0 0 2.138.32h0zm-7.433-1.66c.524-.07 1.021-.234 1.401-.462a2.65 2.65 0 0 0 .586-.454 2.59 2.59 0 0 0 .452-.593l.073-.13.004-.285c.009-.535.104-1.061.274-1.506l.046-.121-.024-.136c-.216-1.248-1.108-2.308-2.41-2.862a5.08 5.08 0 0 0-2.169-.413c-.491.012-.891.082-1.174.204-.35.15-.747.508-1.015.915a3.8 3.8 0 0 0-.565 2.661 4.59 4.59 0 0 0 .177.679 5.07 5.07 0 0 0 .396.788c.647.997 1.741 1.616 3.057 1.736.202.018.675.006.89-.022z" fill="#fff"/><path d="M26.095 24.081a2.92 2.92 0 0 1-1.007-.356 2.14 2.14 0 0 1-.866-1.095c-.119-.356-.119-.769-.001-1.061.106-.259.348-.501.659-.657.268-.134.574-.204.902-.204a1.98 1.98 0 0 1 .98.243c.571.292 1.012.717 1.165 1.126a1.04 1.04 0 0 1 .057.596c-.034.165-.097.304-.228.505-.424.648-.846.918-1.43.91-.103 0-.205-.004-.231-.007h0zm.863-.785c.278-.077.467-.277.513-.544.055-.317-.162-.648-.501-.763a.84.84 0 0 0-.486 0 .67.67 0 0 0-.455.527c-.058.332.198.693.555.779.104.025.284.025.375 0h0zm-7.818-.449a3.04 3.04 0 0 1-.486-.128 2.12 2.12 0 0 1-1.201-1.037 1.62 1.62 0 0 1-.198-.758c-.015-.423.073-.676.33-.939.241-.246.565-.404.973-.474a2.53 2.53 0 0 1 .687 0c.704.118 1.544.734 1.782 1.307.162.393.11.745-.174 1.166-.347.518-.707.793-1.14.869a2.4 2.4 0 0 1-.574-.006h0zm.945-.775c.335-.088.555-.41.501-.731a.76.76 0 0 0-1.262-.402c-.366.368-.168.988.361 1.134a1 1 0 0 0 .399 0zm9.35-6.9l-.841-.618c-2.047-1.424-4.076-2.221-6.017-2.367a11.48 11.48 0 0 0-1.369.022c-.35.045-.841.147-1 .21-.046.018-.028-.013.03-.051a15.2 15.2 0 0 1 1.308-.746c1.418-.718 2.7-1.065 3.634-.985a2.87 2.87 0 0 1 1.418.514c.896.599 1.782 1.713 2.496 3.14l.412.93a.29.29 0 0 1-.071-.049h0z" fill="#000"/></g></svg>