<?xml version="1.0" encoding="UTF-8"?>
<svg width="48px" height="48px" viewBox="0 0 48 48" version="1.1" xmlns="http://www.w3.org/2000/svg" xmlns:xlink="http://www.w3.org/1999/xlink">
    <title>Artboard</title>
    <g id="Artboard" stroke="none" stroke-width="1" fill="none" fill-rule="evenodd">
        <path d="M25.7175659,10.5 C26.2816507,10.5286382 27.0140208,10.7462887 27.0638483,11.4316967 C27.1324786,13.1089416 26.097383,14.5465801 25.3114248,15.9336245 C23.9320173,18.0512829 23.0719484,20.4734869 22.8031278,22.9977181 C22.4623864,25.5646024 23.1915673,28.1594649 24.8150302,30.1572725 C26.4079682,31.7986407 28.6257402,32.6545149 30.8902235,32.5017879 C33.4528769,32.3893355 35.9507179,31.6491519 38.1706779,30.3443755 C41.5170086,28.2963143 44.3306131,25.462987 46.3752912,22.0822498 C46.6244286,21.6631772 47.1490275,21.2526961 47.6350806,21.5209407 C48.1201935,21.7557741 48.0007955,22.3848603 47.9462673,22.823025 C45.7153057,27.5636246 42.3114614,31.6355691 38.0672623,34.6410627 C35.3426606,36.5176795 32.1226326,37.5133605 28.8303738,37.4972476 C26.2572298,37.5436375 23.7066337,37.0030949 21.3665919,35.9154634 C19.3170838,35.0152688 17.4480828,33.758051 15.4615642,32.7318482 C12.0234674,30.8885016 8.12846188,29.5539607 4.22217468,29.956805 C3.25064466,30.1165614 2.26444106,30.1642766 1.28235276,30.0990414 C0.718267971,30.019809 0.0413662182,29.7362907 0,29.0652018 C0.0947198997,28.191684 0.456345292,27.3701805 1.03415546,26.7159133 C2.27706401,25.1771654 3.6464444,23.7483924 5.12753078,22.4450005 C4.46425223,23.4725901 4.44126567,24.7956687 5.0684369,25.8463733 C5.69560814,26.8970778 6.86140616,27.4885595 8.06547241,27.3669555 C8.71610629,27.4234366 9.37130498,27.3884218 10.0125051,27.2629033 C12.991531,26.6541402 15.7688393,25.2851843 18.0826782,23.2850549 C19.819788,21.9049808 21.1302215,20.0475786 21.8582858,17.9335266 C22.234349,16.8117014 21.9291419,15.5702212 21.0779685,14.7594575 C19.9989619,13.9583865 18.6390316,13.6523759 17.3277447,13.9155847 C18.5745386,13.1265982 19.8777714,12.4335246 21.2265108,11.8421778 C22.6384892,11.1413852 24.1568355,10.6876187 25.7175659,10.5 Z M38.530752,20.1424878 C39.0825544,20.9486381 39.2806577,21.950939 39.0779142,22.9108488 C38.3466391,25.7243325 35.8023568,27.6550824 32.9378513,27.5702868 C31.8589158,27.5600781 30.8430144,27.0525652 30.1766562,26.1908794 C29.489508,25.0982392 29.4094426,23.7219649 29.9651244,22.5547803 C30.8493071,20.577692 32.6634043,19.1932165 34.7795881,18.880497 C36.1628536,18.5791171 37.5983788,19.0620657 38.530752,20.1424878 Z M16.9535685,19.0886014 C16.6997303,20.8240774 15.1550781,21.9934713 13.7345246,22.7705216 C12.8148865,23.2985961 11.7509488,23.5083583 10.703509,23.3681057 C10.1655378,23.2794001 9.75855888,22.826219 9.72106128,22.2741258 C9.78295329,21.4962626 10.1163492,20.7664009 10.6612026,20.2159926 C11.7203487,19.0218888 13.1252228,18.1996845 14.6737258,17.8676587 C15.5583988,17.6395076 17.0146777,17.8848417 16.9535685,19.0886014 Z" id="Combined-Shape" fill="#C43C2B" fill-rule="nonzero"></path>
    </g>
</svg>