<svg height="48" viewBox="0 0 144 48" width="144" xmlns="http://www.w3.org/2000/svg"><g fill="none" fill-rule="evenodd"><path d="m48 36-24 12-9-4.5v-24l9-4.5 6 3v-9h-18l6 3-9 4.5v24l-9-4.5v-24l24-12 24 12v9l-18 9v6l18-9z" fill="#35c287"/><path d="m60 21h19v6h-19z" fill="#9fa9b5"/><path d="m84 24-12-12v24.0894508z" fill="#9fa9b5"/><g fill-rule="nonzero" transform="translate(96 7)"><path d="m0 17.0967742h47.9783978v.7096774h-47.9783978z" fill="#65b32e"/><path d="m.54005401 27.2473118c0 3.8064516 2.4410441 6.7526882 6.50225022 6.7526882 4.06120617 0 6.50225027-2.9677419 6.50225027-6.7526882 0-3.7849462-2.4410441-6.7526881-6.50225027-6.7526881-4.06120612 0-6.50225022 2.9677419-6.50225022 6.7526881m2.18181818 0c0-2.5376344 1.27452745-4.8172043 4.32043204-4.8172043 3.04590457 0 4.32043207 2.2580645 4.32043207 4.8172043s-1.2745275 4.795699-4.32043207 4.795699c-3.04590459 0-4.32043204-2.3225807-4.32043204-4.795699" fill="#000"/><path d="m27.8235824 33.8709677h1.9441944v-13.032258h-2.9162917l-3.5643564 9.7634408-3.5859586-9.7634408h-2.9162916v13.032258h1.9873987l-.0216021-10.4086021 3.8451845 10.4086021h1.3825382l3.8451846-10.4086021zm16.5688568-13.032258-4.6228622 9.9139785-4.6012602-9.9139785h-2.4194419l6.0486048 13.032258h1.8145815l6.1782178-13.032258z" fill="#000"/><path d="m41.7785779.3655914-3.2403241 5.59139785h.8424843l3.2619262-5.59139785h5.3573357l-8.2952295 14.172043-8.2736274-14.172043zm-19.3555356 0-3.240324 5.59139785h.8424842l3.2403241-5.59139785h4.0396039l-3.240324 5.59139785h.8424842l3.2403241-5.59139785h2.1386138v14.172043h-14.0846084v-14.172043zm-12.44284428.0860215c3.86678668 1.37634409 5.87578758 5.63440861 4.47164718 9.48387097-1.4041404 3.84946233-5.65976599 5.84946233-9.52655267 4.45161293-3.86678668-1.3763441-5.87578758-5.63440863-4.47164716-9.48387099 1.05850585-2.92473119 3.84518451-4.88172043 6.97749774-4.90322581.60486049.02150538 1.20972098.08602151 1.81458146.23655914l-3.32673267 5.72043011h.84248425z" fill="#003869"/></g></g></svg>