<?xml version="1.0" encoding="UTF-8"?>
<svg width="48px" height="48px" viewBox="0 0 48 48" version="1.1" xmlns="http://www.w3.org/2000/svg" xmlns:xlink="http://www.w3.org/1999/xlink">
    <title>Artboard</title>
    <g id="Artboard" stroke="none" stroke-width="1" fill="none" fill-rule="evenodd">
        <g id="mrw-logo" transform="translate(0, 11)" fill="#ED2621" fill-rule="nonzero">
            <g id="Group" transform="translate(24, 13) scale(-1, 1) rotate(-180) translate(-24, -13)">
                <path d="M3.44875472,25.8838298 C3.43245283,25.8137589 2.66445283,20.0550355 1.74249057,13.0829787 C0.822339623,6.10907801 0.0525283019,0.313475177 0.0307924528,0.206524823 L3.68063187e-13,0.00368794326 L6.9645283,0.00368794326 L13.9236226,0.00368794326 L22.1596981,12.9907801 L30.3957736,25.9723404 L27.0158491,25.9889362 C24.8966038,26 23.3642264,25.9834043 22.8969057,25.9465248 C20.5476226,25.7602837 19.1655849,24.8493617 17.7889811,22.5849645 C15.9993962,19.6346099 14.445283,16.9700709 13.4255094,15.1058156 C12.7553208,13.8758865 12.2064906,12.8948936 12.2064906,12.9225532 C12.2064906,12.9539007 12.3586415,13.7541844 12.5470189,14.7075177 C12.8241509,16.1144681 14.3003774,25.5648227 14.3003774,25.9207092 C14.3003774,25.9907801 13.6156981,26 8.8845283,26 L3.46867925,26 L3.44875472,25.8838298 Z" id="Path"></path>
                <path d="M40.5699623,25.9465248 C38.6553962,25.7713475 37.3675472,25.0521986 36.2318491,23.527234 C35.6920755,22.813617 31.962566,16.5219858 30.7580377,14.3165957 C30.1874717,13.2673759 29.7110943,12.4209929 29.7002264,12.4357447 C29.6893585,12.4468085 29.8777358,13.5439716 30.1240755,14.8697872 C30.4754717,16.7617021 30.6783396,18.0985816 31.0659623,20.9899291 C31.3376604,23.0256738 31.5586415,24.698156 31.5477736,24.7036879 C31.5423396,24.7147518 28.941283,20.5639716 25.7750943,15.4930496 L20.018717,6.26028369 L19.7995472,3.46297872 C19.68,1.92326241 19.5640755,0.516312057 19.5477736,0.330070922 L19.5169811,0 L25.869283,0.0110638298 L32.2161509,0.0276595745 L40.1080755,12.9723404 C44.4461887,20.0956028 47.994566,25.933617 48,25.9594326 C48,26.0110638 41.1513962,26 40.5699623,25.9465248 Z" id="Path"></path>
            </g>
        </g>
    </g>
</svg>