<svg height="48" viewBox="0 0 48 48" width="48" xmlns="http://www.w3.org/2000/svg" xmlns:xlink="http://www.w3.org/1999/xlink"><linearGradient id="a"><stop offset="0" stop-color="#424242"/><stop offset="1" stop-color="#c6c6c4"/></linearGradient><linearGradient id="b" x1="50.000394%" x2="50.000394%" xlink:href="#a" y1="61.670039%" y2="-7.61905%"/><linearGradient id="c" x1="49.999507%" x2="49.999506%" xlink:href="#a" y1="61.670737%" y2="-7.616606%"/><linearGradient id="d" x1="49.998225%" x2="49.998223%" xlink:href="#a" y1="61.674831%" y2="-7.61152%"/><linearGradient id="e" x1="49.998389%" x2="49.998388%" xlink:href="#a" y1="61.672399%" y2="-7.612585%"/><linearGradient id="f" x1="50.00021%" x2="50.000209%" xlink:href="#a" y1="61.672474%" y2="-7.61855%"/><linearGradient id="g" x1="49.999732%" x2="49.999731%" xlink:href="#a" y1="61.666607%" y2="-7.622681%"/><linearGradient id="h" x1="50.000626%" x2="50.000625%" xlink:href="#a" y1="61.666706%" y2="-7.617919%"/><linearGradient id="i" x1="50.002389%" x2="50.002387%" xlink:href="#a" y1="61.673797%" y2="-7.61574%"/><linearGradient id="j" x1="49.999098%" x2="49.999097%" xlink:href="#a" y1="61.67087%" y2="-7.618488%"/><linearGradient id="k"><stop offset="0" stop-color="#f6f6f6"/><stop offset="1" stop-color="#939393"/></linearGradient><linearGradient id="l" x1="50.000752%" x2="50.000723%" xlink:href="#k" y1="-53.929057%" y2="166.74912%"/><linearGradient id="m" x1="49.99791%" x2="49.997907%" y1="-.157018%" y2="99.652361%"><stop offset="0" stop-color="#b1eded"/><stop offset="1" stop-color="#56c4cf"/></linearGradient><linearGradient id="n"><stop offset="0" stop-color="#1c1c1c"/><stop offset="1" stop-color="#5e6062"/></linearGradient><linearGradient id="o" x1="-.002066%" x2="100.00297%" xlink:href="#n" y1="50.005525%" y2="50.005525%"/><linearGradient id="p" x1="-.000364%" x2="100.004928%" xlink:href="#n" y1="50.002779%" y2="50.002779%"/><linearGradient id="q" x1="-.000098%" x2="100.001955%" xlink:href="#n" y1="50.014206%" y2="50.014206%"/><linearGradient id="r" x1=".031359%" x2="100.013785%" xlink:href="#k" y1="50.00124%" y2="50.00124%"/><linearGradient id="s" x1="49.999906%" x2="49.999904%" xlink:href="#a" y1="92.290549%" y2="8.698509%"/><linearGradient id="t" x1="-.000764%" x2="100.000849%" xlink:href="#n" y1="49.996497%" y2="49.996497%"/><linearGradient id="u" x1="49.999438%" x2="49.926097%" y1="14.08753%" y2="85.611859%"><stop offset="0" stop-color="#4d4b4b"/><stop offset="1" stop-color="#d6d4d4"/></linearGradient><linearGradient id="v" x1="49.994736%" x2="49.994729%" xlink:href="#k" y1="92.923273%" y2="-11.840567%"/><linearGradient id="w" x1="51.703349%" x2="46.138774%" xlink:href="#k" y1="49.428105%" y2="64.329455%"/><linearGradient id="x" x1="49.985503%" x2="49.9855%" xlink:href="#n" y1="-18.134133%" y2="100.954225%"/><linearGradient id="y" x1="50.601569%" x2="48.826428%" y1="51.004734%" y2="48.040257%"><stop offset="0" stop-color="#d8fdaa"/><stop offset="1" stop-color="#60a331"/></linearGradient><mask id="z" fill="#fff"/><mask id="A" fill="#fff"/><mask id="B" fill="#fff"/><mask id="C" fill="#fff"/><mask id="D" fill="#fff"/><mask id="E" fill="#fff"/><mask id="F" fill="#fff"/><mask id="G" fill="#fff"/><mask id="H" fill="#fff"/><mask id="I" fill="#fff"/><mask id="J" fill="#fff"/><mask id="K" fill="#fff"/><mask id="L" fill="#fff"/><mask id="M" fill="#fff"/><mask id="N" fill="#fff"/><mask id="O" fill="#fff"/><mask id="P" fill="#fff"/><mask id="Q" fill="#fff"/><mask id="R" fill="#fff"/><mask id="S" fill="#fff"/><mask id="T" fill="#fff"/><mask id="U" fill="#fff"/><mask id="V" fill="#fff"/><mask id="W" fill="#fff"/><mask id="X" fill="#fff"/><mask id="Y" fill="#fff"/><mask id="Z" fill="#fff"/><mask id="aa" fill="#fff"/><mask id="ab" fill="#fff"/><mask id="ac" fill="#fff"/><mask id="ad" fill="#fff"/><mask id="ae" fill="#fff"/><mask id="af" fill="#fff"/><mask id="ag" fill="#fff"/><mask id="ah" fill="#fff"/><mask id="ai" fill="#fff"/><mask id="aj" fill="#fff"/><mask id="ak" fill="#fff"/><mask id="al" fill="#fff"/><mask id="am" fill="#fff"/><mask id="an" fill="#fff"/><mask id="ao" fill="#fff"/><mask id="ap" fill="#fff"/><mask id="aq" fill="#fff"/><mask id="ar" fill="#fff"/><mask id="as" fill="#fff"/><mask id="at" fill="#fff"/><mask id="au" fill="#fff"/><mask id="av" fill="#fff"/><mask id="aw" fill="#fff"/><mask id="ax" fill="#fff"/><mask id="ay" fill="#fff"/><g fill="none" fill-rule="evenodd"><g fill-rule="nonzero" transform="translate(.528746)"><g fill="#000"><path d="m16.5289157 10.6702457.1384789-1.36517862c.0389029-.38113934.0948097-1.06298157.1339703-1.50314087l.0164886-.00572768c.0322044.41824472.0810263 1.04031991.118641 1.41959155l.1188986 1.31064122zm-.1270141-3.91125421-.8097472 6.55121391.6970318-.1623671.1664323-1.4935533.6645698-.1710831.1572863 1.4340352.6972894-.1639858-.7109441-6.28637119z"/><path d="m19.7018082 9.99423078c-.0012882 1.01579052-.1500724 1.32259462-.3584993 1.37551332-.1871719.0476892-.3510278-.2061962-.3496108-1.1802743l.0052815-4.31318758-.7189308.24504483-.0055628 4.05033715c-.0021663 1.6457101.2984939 2.5184333 1.0728163 2.3353968.7141646-.169589 1.0720198-1.2011929 1.0740808-2.94290382l.0055392-4.1785872-.7193173.24753512z"/><path d="m20.7928543 6.48423745.6529762-.21391616-.0065696 5.65533101.719446-.1745696.0072138-5.71709023.6585154-.21715355.0012882-1.26407274-2.0317106.7062471z"/><path d="m24.1418661 10.1369868c-.2909988.076452-.449058-.70674514-.4472698-2.32443949.0018188-1.533896.1623254-2.49639425.4481716-2.59251957.324105-.10832774.4213622 1.00408615.4195588 2.26803439-.0018034 1.46752967-.1179968 2.56923537-.4204606 2.64892467m.0296282-6.14044002c-.8181204.2881269-1.220804 2.09209517-1.223671 4.01721621-.0026722 1.93483317.324782 3.54929011 1.1654454 3.34334291.7026998-.1728263 1.1983898-1.41062648 1.2018871-4.16078161.0017843-1.66725117-.2485083-3.51641827-1.1436615-3.19977751"/><path d="m27.7618329 2.80795481-.2938328 2.82747871c-.1004778.97930773-.183565 1.85028773-.239343 2.70146989l-.0108208.00311288c-.0651816-.82640376-.1572862-1.63114196-.2607266-2.54196663l-.2934464-2.59774917-.7573186.26882712-.2778594 7.42680089.6205142-.1552697.0633782-2.58492421c.0228008-.74235636.045859-1.68306454.057839-2.48892337l.0164888-.00535412c.0539746.78568743.1514894 1.68044973.2220814 2.25471131l.3042672 2.53574089.511148-.1299933.3216574-2.78140831c.0723956-.60414508.1717138-1.56577173.238699-2.39640897l.0163598-.0049806c-.0118512.8132052.014814 1.78267627.0302722 2.49776393l.0624764 2.63821645.6427996-.1641103-.2162846-7.57547145z"/><path d="m29.9259423 6.85194167.13835-1.65953127c.0391606-.4631945.095325-1.29208854.1338414-1.82662995l.0166174-.00585218c.0323332.51088361.0811552 1.27117007.1187698 1.73486263l.1190274 1.60051133zm-.1268854-4.77737816-.8103912 7.97267319.6976758-.17880308.1664324-1.81878551.664441-.18714552.1575438 1.75117405.697547-.18079526-.7113304-7.67109867z"/><path d="m33.2913011.80026812-2.0317106.74397504-.0023188 1.42257991.653878-.22699022-.0069562 6.55420223.719446-.18851518.0072138-6.61558795.6586442-.22972954z"/><path d="m34.1364215 5.58521678.1388654-1.75266826c.039547-.48909353.0950674-1.36393349.1339702-1.92773583l.0166174-.00622573c.0327198.53952199.0811552 1.34326407.119414 1.83347824l.1188986 1.6919051zm.7355482-5.36932082-.8615318.31925556-.8101336 8.41893366.6971606-.18428168.1665612-1.91989141.6637968-.19237514.1578016 1.84991417.6974182-.18639843z"/><path d="m1.7542112 12.5855674c.15509635-.0451988.24681445-.0308796.32719661-.0052296l.1195427-.799135c-.06943266-.0412143-.24153293-.0504284-.4892491.0261481-.70360153.217029-1.46285224 1.1088029-1.46582522 2.7990894-.00243736 1.2710455.43631526 2.1263367 1.36135417 1.9375725.24668564-.0501794.44583759-.1397055.54837637-.2232548l-.06840212-.7483331c-.08682305.0542884-.22092213.118787-.33917665.1454331-.43025066.0955028-.75706081-.2586169-.75512855-1.3479956.0021899-1.1304685.36300789-1.6681228.76131179-1.784295"/><path d="m3.60011535 13.290283c-.39147658-.2076904-.49865278-.3271-.49813752-.6107443.00025764-.2548815.14569266-.5387749.44725458-.6273049.20378938-.0603895.35952982-.0273932.46193978.02951l.11426118-.8515557c-.10756268-.0532922-.3329934-.0694792-.56976008.0047316-.75757608.2358307-1.14621868.9844128-1.14724922 1.7387226-.00103054.4260891.18678548.8727232.68028556 1.1408032.30555524.1862739.46696366.3180104.46593312.6686437-.00038646.3151466-.16218132.5801138-.49530354.6551961-.20417582.0460704-.45086146.0241558-.59668294-.0478136l-.10279642.8113374c.11786808.0661173.4026837.1047169.69278086.0447008.70965594-.1474254 1.1992915-.8376101 1.20135322-1.7310027.00038582-.5157397-.17609424-.9632453-.65387858-1.2252242"/><path d="m5.65591481 14.8639864c-.2853309.0652456-.4401696-.4771402-.4382552-1.6104726.00169248-1.0743124.15923636-1.7590184.43877048-1.8421942.31624712-.0948802.41182974.6830873.41054156 1.5727445-.0015458 1.0324755-.11542052 1.8121863-.41105684 1.8799223m.02821106-4.3133121c-.80047234.2528893-1.19504054 1.5370089-1.19764453 2.8800239-.00241989 1.3502369.31807821 2.4648921 1.14109361 2.2915677.68762816-.1461802 1.17275508-1.0369581 1.17586635-2.9805073.00178381-1.1779086-.24296957-2.46925-1.11931543-2.1910843"/><path d="m9.19920933 9.49125384-.28790726 2.03618816c-.09751488.7040058-.17918522 1.3294429-.23419032 1.938444l-.01069186.0027394c-.06350706-.585966-.15419462-1.155496-.2553164-1.7993613l-.28726318-1.83385176-.74147388.23720046-.2720627 5.2719503.6080189-.1311139.06170362-1.8377118c.02267188-.5285647.04521496-1.1972084.05642208-1.7702248l.0161022-.004358c.05294402.5552108.14904192 1.1862511.21808814 1.5912973l.29756856 1.793011.50006978-.1099465.31483012-1.9994563c.0704632-.4350542.16823574-1.1277292.2339327-1.725773l.01635982-.0044826c-.01236648.5826041.01378348 1.2756526.02885514 1.7867853l.06170362 1.8867705.62888729-.1387093-.21177603-5.42908786z"/><path d="m11.3165836 12.2889984.1364178-1.2054263c.03813-.3368121.0926198-.9387159.1312651-1.32645458l.0159734-.0051051c.0318179.36719368.0788363.91555628.1161934 1.24875748l.1163223 1.1528811zm-.1232784-3.4430791-.7933874 5.7798456.6826043-.1514098.1633406-1.3182366.6506575-.1606239.1538082 1.2623295.6823466-.1535265-.6957436-5.53330664z"/><path d="m14.0852852 11.4251781.3224304-.0864132-.0019323 1.4346578c-.0273093.0245294-.0752295.0448253-.1402823.0607632-.3275831.0796893-.6648275-.3410457-.6632816-1.7474387.0023187-1.52866634.3842627-2.17763672.8629488-2.32742784.1769953-.0560316.3118673-.05453742.4135044.00273932l.1252106-1.04393083c-.1124577-.0517981-.3166335-.07271656-.5911437.01817914-.7686544.2548815-1.5221084 1.37812817-1.541431 3.48342191-.0121088.9968643.1534217 1.8139294.4645161 2.2215904.2414041.3332012.5521121.4534824.966647.3591003.2630455-.0598916.5964253-.2424301.7520369-.3851239l.0050239-3.2056297-.9727014.2782903z"/></g><g fill="#e20613"><path d="m16.3056234 10.4542875.13835-1.36517862c.0389029-.38101484.0945521-1.06298159.1339703-1.50301637l.0166174-.00572768c.0320756.41812022.0810263 1.04031991.1185122 1.41946703l.1188986 1.31064124zm-.1270142-3.91137875-.809876 6.55121385.6971607-.162118.1664323-1.4936778.664441-.1710831.1571574 1.4340352.6975471-.1638613-.711073-6.28649571z"/><path d="m19.478387 9.77827256c-.0012881 1.01566604-.1500724 1.32259464-.3583704 1.37551334-.1873008.0478137-.3511567-.2061962-.3498685-1.18027436l.0054103-4.31331204-.7189308.24516934-.005434 4.05046162c-.0021662 1.64546114.2983651 2.51830884 1.0726875 2.33527224.7139069-.1695889 1.0720198-1.2011928 1.0740808-2.94290374l.0055392-4.17846268-.7194461.24741062z"/><path d="m20.5691885 6.26827923.6533626-.21379164-.0068274 5.65520641.7194462-.1745695.0072138-5.71709024.6586442-.21715354.001417-1.26407276-2.0318396.70624712z"/><path d="m23.9183163 9.92102862c-.2908702.076452-.4489294-.70662066-.4471412-2.32431501.0018188-1.53414502.1624542-2.49651877.4481716-2.59264407.324105-.10845226.4212334 1.00421065.4195588 2.26803437-.0018034 1.46740517-.1179968 2.56911081-.4205892 2.64892471m.029628-6.14031554c-.8181204.28787788-1.2206752 2.09184616-1.22342 4.01709169-.0029232 1.93495769.3246598 3.54916563 1.1653232 3.34334293.7026998-.1729509 1.1985186-1.41050198 1.2017611-4.16078161.0019103-1.66712667-.2482535-3.51641828-1.1436643-3.19965301"/><path d="m27.5385405 2.59199661-.2938328 2.82747871c-.1007354.97930773-.1836938 1.85028771-.2396006 2.70134537l-.010692.00323738c-.0650528-.82652826-.1572862-1.63114194-.2605978-2.54196661l-.2935752-2.59787371-.7573186.26895166-.2778594 7.42680089.620643-.1551452.0633782-2.58504871c.022672-.74235636.0458592-1.68306456.0577104-2.48892339l.0163598-.00547864c.0541034.78581197.1516182 1.68044975.2220814 2.25483583l.304396 2.53561641.511148-.1298688.3215286-2.78140831c.0725244-.6041451.1718426-1.56577175.2388278-2.39653351l.0163598-.00485606c-.0117224.81320518.014814 1.78267625.0302722 2.49776391l.0623476 2.63821647.6429286-.16411034-.2162848-7.57559593z"/><path d="m29.7026499 6.63604571.13835-1.65953127c.0390318-.4631945.0951962-1.29221306.1339702-1.82662993l.016231-.0058522c.0324622.51063459.0811552 1.27117007.1190276 1.73486265l.1188986 1.60038681zm-.1270142-4.77737815-.8103912 7.97267316.697547-.17880304.1665612-1.81891003.6645698-.18702102.157415 1.75117407.6975472-.1809198-.7113306-7.67109866z"/><path d="m33.0678927.58438462-2.0317106.74397504-.0023186 1.42257989.653749-.2269902-.0068272 6.55420223.719446-.18851518.007085-6.61571247.658773-.22960502z"/><path d="m33.9131291 5.36932082.1387366-1.75279276c.0394182-.48896903.0951962-1.36393349.1338414-1.92773584l.0167462-.00622573c.032591.53952198.0811552 1.34338858.1191564 1.83360276l.1190274 1.69178057zm.7354196-5.36932082-.861532.31925557-.8101336 8.41893365.6971606-.1844062.16669-1.91989141.6637968-.19225062.1578016 1.84991418.6974182-.18652294z"/><path d="m1.53067409 12.3695594c.15509634-.0450743.24694326-.0308796.32732542-.0052296l.1195427-.7990105c-.06930385-.0412143-.24153293-.0504284-.48912028.0260236-.70360153.2171535-1.46285224 1.1089274-1.46595404 2.7992138-.00243735 1.2709211.43631526 2.1262123 1.36148299 1.9375726.24668564-.0501795.44570877-.1397055.54811873-.2233793l-.06814449-.7482086c-.08682304.0541639-.22105094.1186625-.33917664.1453086-.43037948.0955028-.75718963-.2584924-.75525737-1.3478711.0021899-1.1304685.36313671-1.6682473.76118298-1.7844195"/><path d="m3.37669417 13.0743248c-.39147658-.2076904-.49852398-.3271-.49813752-.6106198.00025764-.2550061.14582148-.5388994.44725458-.6274294.20378938-.0603896.35952982-.0275177.46181096.02951l.11439-.8515557c-.10743386-.0534168-.33286458-.0694792-.5698889.0046071-.75757608.2359552-1.14608986.9846618-1.1471204 1.7387225-.00103054.4262137.18678548.8728477.68028556 1.1408033.30555524.1862739.46683484.3180104.46593312.6688927-.00038646.3150221-.16231014.5801138-.49517472.6551961-.20430464.0459459-.45099028.0240313-.59681176-.0479381l-.10292524.8112129c.11812572.0662418.40281252.1049659.69290968.0447008.70978476-.1473009 1.1992915-.8376101 1.20135322-1.7307537.00038582-.5158642-.17609424-.9633699-.65387858-1.2253487"/><path d="m5.43249363 14.6480281c-.2853309.0652457-.44004078-.4771401-.43825292-1.610348.0015614-1.0744369.15923408-1.7590184.43863938-1.8423187.31624712-.0948802.41195856.6830874.41054158 1.5727445-.001417 1.0324755-.11529172 1.8121863-.41092804 1.8799222m.02808224-4.313312c-.80047234.2528893-1.1947829 1.5368844-1.19751571 2.8801484-.00241989 1.3501124.31807821 2.4647675 1.14096479 2.2914431.68775698-.1461802 1.17301272-1.036958 1.17612398-2.9805072.00178382-1.1779086-.24309838-2.46925-1.11957306-2.1910843"/><path d="m8.97585255 9.27529564-.28803606 2.03631266c-.0975149.7038813-.17905642 1.3294429-.23406152 1.938444l-.01069186.0027394c-.06350704-.5860905-.15432344-1.1556205-.2553164-1.7994858l-.28726316-1.83385178-.7416027.23720042-.2720627 5.27195036.60789008-.1311139.06183242-1.8377118c.02280072-.5284402.04521498-1.1972083.05655092-1.7702248l.0161022-.0044825c.052944.5553353.1489131 1.1862511.21808812 1.5914217l.29756858 1.793011.50006976-.1099464.31470132-1.9995808c.07059202-.4349297.16823572-1.1276047.23393268-1.7256485l.01635984-.0044826c-.01223768.5827286.0139123 1.2757771.02898394 1.7867853l.0615748 1.886895.62901616-.1388338-.2119049-5.42896336z"/><path d="m11.0932397 12.0731025.136289-1.2054263c.03813-.3368122.0927486-.938716.1313939-1.32645462l.0159734-.0051051c.0316891.3671937.0788363.91543172.1161934 1.24863292l.1161934 1.1530057zm-.1234072-3.44307916-.7933874 5.77984566.6826043-.1514098.1634695-1.3182367.6505286-.1606239.1538082 1.2623296.6826043-.1535266-.6958725-5.53343111z"/><path d="m13.8617352 11.2092821.3225592-.0864132-.0019323 1.4346578c-.0273093.0244049-.0751006.0448253-.1401535.0606387-.3277119.0798139-.6650851-.3410456-.6634104-1.7473141.0023187-1.52879092.3842628-2.17763676.8629488-2.3275524.1769954-.05590708.3118673-.05441292.4135044.0026148l.1252107-1.04380631c-.1124578-.0517981-.3166336-.07271656-.591015.01817912-.768912.2548815-1.5222371 1.37812817-1.541431 3.48329739-.0122376.9971133.1532929 1.814054.4642585 2.2218394.241533.3330767.5523697.4534824.9667758.3591003.2630455-.0598915.5964254-.24243.752037-.3851238l.0050239-3.20562972-.9728303.27829022z"/></g></g><g fill-rule="nonzero" transform="translate(0 10.4287)"><path d="m3.72807042 9.94554556 2.72668134.77535274-.00334926 20.8575738-2.7923783.5696546-.0007729.2054492zm34.62719118-5.30718802-2.6706456-1.38671967zm2.940132 1.52630061-1.6510546-.85690983zm-34.23413968 5.81956585.0014.2919868h-.0042v-.2977145zm29.04717188-11.70238508-35.8169503 7.21014541v1.47861149l2.50382696.7112277-.26420482 24.80456378.51823304.0513.54502712-.1473008-.00631206-.3424152 3.4042617-.8033686v.0064748l31.31773916 1.8785526-.0029628 2.0193785.8500672.1404524.6315924-.1871454-.0021898-.492829 6.3003382-1.0490359.0181632-1.7697268-.0237024-25.14037976.4366916.2261186h1.1905318v-1.62043367z" fill="#114611"/><path d="m3.95147872 31.8005441.06698514-21.4787775 2.14455476.6098727-.00322044 20.4184108zm32.15698568-31.8005441c-.0199668 0-.0399334.00211675-.0595138.0059767l-35.81695017 7.21014543c-.13512962.0271442-.23200043.14232024-.23200043.27579996v1.47861147c0 .12501272.08514841.23508368.20919972.27044584l2.2921797.6510871-.26175728 24.5913948c-.00154582.1455576.11194246.2684536.26175728.2831462l.51823306.0513c.00991894.0009962.0198379.0017434.02975686.0017434.0264076 0 .052944-.0034866.07844988-.0104594l.54502712-.1474252c.12778702-.0346152.21525414-.1481726.21293542-.2764226l-.0021899-.1170438 3.1128764-.7346364 31.02158774 1.860747-.0024476 1.7540377c-.0001288.1373398.1020236.255006.242177.2782902l.850196.1404526c.0163598.0027394.0327196.004109.0492082.004109.0287264 0 .0575814-.004109.0855348-.0124514l.6314638-.18727c.1227632-.0363584.2064946-.1463048.206108-.270695l-.0011592-.2542588 6.0571306-1.0083197c.1388652-.0234086.2406312-.1389582.2419192-.2750528l.0181634-1.7696022-.0230584-24.6724538.007085.00361092c.0422522.02191458.0893994.03336992.1375772.03336992h1.1906606c.161022 0 .2913854-.12613334.2913854-.28165214v-1.62055819c0-.09737046-.0517846-.18776808-.1374484-.23931716l-11.600279-6.97406564c-.0465032-.0280158-.0999624-.04258401-.1538082-.04258401zm-29.04993624 12.2761485h.004l-.0012-.2919868-.0028-.0057277zm-3.40023822 20.077365.00077292-.2053246 2.79224946-.5696544.00334926-20.8576985-2.72655252-.7752282zm37.63701366-26.18891761-1.650926-.85678531zm-2.9401322-1.52630059-2.6705168-1.38671969zm-2.246707-4.35639413 11.6001502 6.97406564v1.62055819h-1.1906606l-.4365628-.2261186.0235736 25.1402553-.0180344 1.7697268-6.3003382 1.0490359.0020612.492829-.6314638.18727-.8501958-.140577.0030916-2.0193787-31.31786812-1.8785524v-.0063504l-3.4041329.8033686.00631206.3424152-.5450271.1471764-.51836188-.0513.26420482-24.80456384-2.50369814-.7112277v-1.47861147z" fill="#004010"/></g><path d="m16.7273469 2.22582391-16.7273469 2.11899035.04135044 22.56516784 38.89401536 2.1610762-.1696528-26.95792015-3.9480006-2.11313815z" mask="url(#z)" transform="translate(7.0237 16.745602)"/><path d="m0 2.18398699 11.6000215 6.41051233v-1.62043367l-11.6000215-6.97406565z" mask="url(#A)" transform="translate(36.108516 10.710626)"/><g transform="translate(.291502 10.710564)"><path d="m35.8169502 2.18411151v-2.18411151l-35.8169502 7.21014543v1.47861147z" fill="#07612c" fill-rule="nonzero"/><path d="m6.70078042 32.9692013-.01507166-20.9691391 34.81848524-3.96815743.0336214 27.02739933z" fill="#07612c" fill-rule="nonzero"/><path d="m.14685202.10372071 33.93003058 1.74918182s-4.0728248.9500468-19.3131018.35237646c-16.17961463-.63365506-14.7637808-2.20527899-14.7637808-2.20527899" mask="url(#B)" transform="translate(6.73207 31.303544)"/></g><path d="m0 5.88281924 4.80888842 1.52729671 34.81771238-4.21407386-6.1568354-3.19604209z" mask="url(#C)" transform="translate(2.214812 13.6803)"/><g fill-rule="nonzero" transform="translate(6.123623 19.079044)"><path d="m3.06096292.99948473c0 .26909988-.68518062.48602866-1.53086792.48602866-.8450432 0-1.530095-.21692878-1.530095-.48602866 0-.26690999.6850518-.48499812 1.530095-.48499812.8456873 0 1.53086792.21808813 1.53086792.48499812" fill="url(#b)" mask="url(#D)" transform="translate(1.136329 22.207781)"/><path d="m3.06122054 1.00056031c0 .31053954-.68505178.56268171-1.53073908.56268171-.84530085 0-1.53048146-.25214217-1.53048146-.56268171 0-.31128663.68518061-.56380234 1.53048146-.56380234.8456873 0 1.53073908.25251571 1.53073908.56380234" fill="url(#c)" mask="url(#E)" transform="translate(4.148469 22.332202)"/><path d="m3.06096292 1.00112063c0 .32386261-.68556708.58584143-1.53086792.58584143-.8450432 0-1.530095-.26197882-1.530095-.58584143 0-.32510776.6850518-.5880827 1.530095-.5880827.84530084 0 1.53086792.26297494 1.53086792.5880827" fill="url(#d)" mask="url(#F)" transform="translate(7.209691 22.402616)"/><path d="m3.49791208 1.00118288c0 .37528717-.78295314.67985-1.74921367.67985-.96561645 0-1.74869841-.30456283-1.74869841-.67985 0-.37665682.78308196-.68221577 1.74869841-.68221577.96626053 0 1.74921367.30555895 1.74921367.68221577" fill="url(#e)" mask="url(#G)" transform="translate(10.319089 22.496687)"/><path d="m3.83824808 1.00099611c0 .37566071-.85908432.68009903-1.91925286.68009903-1.05978208 0-1.91899522-.30443832-1.91899522-.68009903 0-.37640779.85921314-.68209126 1.91899522-.68209126 1.06016854 0 1.91925286.30568347 1.91925286.68209126" fill="url(#f)" mask="url(#H)" transform="translate(18.481743 22.872161)"/><path d="m4.12989104.99975097c0 .41538087-.92400838.75206849-2.06507434.75206849-1.14042187 0-2.0648167-.33668762-2.0648167-.75206849 0-.41488282.92439483-.75157044 2.0648167-.75157044 1.14106596 0 2.06507434.33668762 2.06507434.75157044" fill="url(#g)" mask="url(#I)" transform="translate(22.222733 23.177969)"/><path d="m4.66409748 1.00056031c0 .41413573-1.04393754.75082335-2.33224198.75082335-1.28791798 0-2.3318555-.33668762-2.3318555-.75082335 0-.41538087 1.04393752-.75194398 2.3318555-.75194398 1.28830444 0 2.33224198.33656311 2.33224198.75194398" fill="url(#h)" mask="url(#J)" transform="translate(26.304189 23.459808)"/><path d="m4.21362246.99993774c0 .46680543-.94307338.84508094-2.1065536.84508094-1.1633514 0-2.10706886-.37827551-2.10706886-.84508094s.94371746-.84495643 2.10706886-.84495643c1.16348022 0 2.1065536.378151 2.1065536.84495643" fill="url(#i)" mask="url(#K)" transform="translate(30.919593 23.741709)"/><path d="m4.90717622 1.00018677c0 .44028381-1.09881382.79826343-2.4534593.79826343-1.3555472 0-2.45371692-.35797962-2.45371692-.79826343 0-.44065735 1.09816972-.79863698 2.45371692-.79863698 1.35464548 0 2.4534593.35797963 2.4534593.79863698" fill="url(#j)" mask="url(#L)" transform="translate(13.671695 22.708238)"/><g fill="#e20613"><path d="m3.85768988 23.0504885v-19.54593647l.14685202-.06673984 2.58459556-.31552014.18472438.07458428.16475766 20.05046977-.16089312.08467-2.79984972-.1506626z"/><path d="m.89998712 22.9350883v-19.09270312l.14685202-.10583746 2.68133756-.29871063.12946164.06673986-.02370242 19.54767975-.15123182.1212772-2.63586496-.1347248z"/><path d="m6.93868392 23.2037037-.15999142-20.03490543.16050668-.0697282 2.81711128-.32112328.20069776.0757049.17970048 20.42388921-.17970048.216282-2.8870592-.1347248z"/></g><g fill="#2c8549"><path d="m18.0924685 23.7666843-.1942569-21.61474739.1830497-.24628997 3.4130214-.4232253.2557028.20881107.2179594 22.31003719-.2428212.1069582-3.4622296-.2350838z"/><path d="m21.9679449 24.0012451-.2179594-22.3100373.2179594-.20881106 3.5956846-.39670369.3518006.17357343.194257 22.91841582-.3098062.1525304-3.577135-.2220096z"/><path d="m26.1097257 24.1776823-.1915518-22.90957528.236638-.29024365 3.7692018-.39956752.3542484.22313026.350126 23.52878659-.291514.2231304-3.945682-.1405772z"/><path d="m30.6284139 24.3301629-.3521872-23.51894994.2368954-.34453205 4.2816382-.46668091.2915142.27380772.1733884 24.40960338-.2827546.1045922-4.0448714-.1521568z"/></g><path d="m10.1367345 23.2814009-.19026356-20.42974145.16076436-.10758066 3.0071171-.3212478.1907788.1308649.1811175 20.89629781-.2549299.2109278-2.9630616-.1515342z" fill="#e20613"/><g fill="#7c7c7c" transform="translate(.935953 5.417384)"><path d="m.01107831 2.67407667-.01107831-.13870934 33.868327-2.53536733.0112072.13883384z"/><path d="m.00957114 4.59930976-.0081155-.13895836 34.01131456-1.87743191.0082442.13895834z"/><path d="m.00830873 6.66596659-.00553915-.13908286 33.96339442-1.31487473.0056678.13920738z"/><path d="m.10247437 8.6860425-.00334926-.13908288 33.86819809-.75206849.0034782.13920738z"/><path d="m.0058612 10.7053962-.00064409-.1394564 33.96352309-.1407016.0006442.1394565z"/><path d="m34.0159004 13.1474149-33.9159895-.4229763.00193227-.1395809 33.91611823.4232253z"/><path d="m34.0135044 18.312955-34.01144332-1.5497093.00669851-.1390829 34.01157221 1.5499584z"/><path d="m5.94800924 3.23791637-.0094037-.13895836 19.14280506-1.22161325.0094036.13883383z"/><path d="m6.0422264 5.39880588-.00760024-.1393319 19.00059044-.94008562.0073426.13920738z"/><path d="m6.08839462 7.46449151-.00450862-.13920738 19.0000752-.56380236.0043798.1393319z"/><path d="m6.13456282 9.6719495-.00231872-.13920738 18.9055231-.28152762.0023186.13920738z"/><path d="m24.988984 15.4954375-18.81045574-.5636778.0043798-.1394564 18.81058454.5636778z"/></g><path d="m3.7347052 3.43778729.14801178.06686436-.02709868 19.54767965-.17290132.1211528z" fill="#9f1b22"/><path d="m1.1 23.0388091v-19.30226138l-.2.10583746v19.09270312z" fill="#ff515e"/><path d="m6.58908594 3.12230451.1848532.07458428.16475766 20.05046991-.16089314.0846698z" fill="#9f1b22"/><path d="m4.00253968 23.1813285.03139624-19.74354121-.17222642.06686436-.02777358 19.54767965z" fill="#ff515e"/><path d="m9.75631046 2.77788453.20069776.07582942.17970048 20.50544635-.17970048.1347248z" fill="#9f1b22"/><path d="m7.06989748 23.3590981-.13074982-20.26002803-.16050668.0697282.1599914 20.07861023z" fill="#ff515e"/><path d="m21.4943083 1.48245899.2555742.20881107.218088 22.31003724-.242821.106958z" fill="#004010"/><path d="m18.2629327 23.8732067-.1816327-21.96762202-.1830498.24641449.1942569 21.61474753z" fill="#5ad281"/><path d="m25.5636423 1.08569305.351672.17369794.1943856 22.91829131-.3098062.1525304z" fill="#004010"/><path d="m22.2226815 24.1082529-.2548012-22.62580636-.2179592.20881107.2179592 22.31003729z" fill="#5ad281"/><path d="m29.9240653.57827095.3542482.22313025.3501262 23.5287867-.2915142.2231302z" fill="#004010"/><path d="m26.3911405 24.4127287-.2363802-23.43477817-.2366378.29011913.1915516 22.90957524z" fill="#5ad281"/><path d="m34.7947217.00001245.291643.27380772.1732596 24.40960333-.2827546.1045922z" fill="#004010"/><path d="m30.9320885 24.6358589-.4189148-24.16916553-.2370242.34453204.352316 23.51895009z" fill="#5ad281"/><path d="m13.1143782 2.42288081.2392142.13958092.1326821 20.88758177-.25493.2108034z" fill="#9f1b22"/><path d="m10.2681928 23.5093873-.161022-20.76543301-.15020124.1096974.17970054 20.50544641z" fill="#ff515e"/></g><path d="m.14904192.42696074-.14904192.18316105.13706189 20.88758191.2112608.2147878 4.18927593.2084374.20559284-.1065844-.19425688-21.614623-.28468682-.1997215z" mask="url(#M)" transform="translate(19.472888 21.031396)"/><g fill-rule="nonzero" transform="translate(18.647049 21.031346)"><path d="m5.09000912 0 .28481564.1997215.19425688 21.614623-.20572164.1065844z" fill="#39434d"/><path d="m1.17416134 21.7124915-.19928076-21.28553076-.14904192.18316105.13693307 20.88758191z" fill="#d9e3ed"/><path d="m1.27202405 16.1790105c-.01958027 0-.03568247-.016685-.03606892-.0347396l-.05461865-11.06013844c0-.01855268.01416993-.0339925.03413666-.03610926 0 0 3.7730664-.2812786 3.77422576-.2812786.00901722 0 .01777682.00273932.02460414.00971214.00682734.00684832.01133596.01556434.01185122.02502746l.10900278 11.3775263c.00023452.0095876-.00363002.0183037-.01058616.0250275-.00695614.0069728-.01623102.0097121-.02550588.0097121-.00064408 0-3.82704095-.0347396-3.82704095-.0347396" fill="#606060"/></g><path d="m3.83889216 0-3.77152057.28152763c-.03825882.00311287-.06737159.0339925-.06737159.07097335l.05474746 11.06013842c0 .0387241.03207558.0694792.07226666.0694792l3.82626804.0361093h.0007729c.0189362 0 .0373571-.0075954.0512694-.0216656.01365466-.0131985.02112608-.0307551.02112608-.0501794l-.1092373-11.37653018c0-.02004686-.00863076-.03859954-.0235736-.05130004-.01339704-.01157986-.03117386-.01855268-.04895068-.01855268zm-3.71162041 11.4126394-.05423219-11.06125905 3.7716494-.28152763.1093661 11.37752628z" mask="url(#N)" transform="translate(19.792098 25.762954)"/><path d="m0 .28152763.05423219 11.06125907 3.82678333.0347396-.10936612-11.3775263z" fill="url(#l)" fill-rule="nonzero" mask="url(#O)" transform="translate(19.865136 25.832806)"/><g fill-rule="nonzero" transform="translate(19.611738 20.86709)"><path d="m2.40162525.99962645c0 .22574507-.12418013.40915515-.27889002.40915515-.15432344 0-.2794053-.18341008-.2794053-.40915515 0-.22624312.12508186-.40840806.2794053-.40840806.15470989 0 .27889002.18216494.27889002.40840806" fill="#1d1d1b"/><path d="m2.2295486 5.82275129c0 .08429642-.04461326.15327754-.10013812.15327754s-.09986188-.06898112-.09986188-.15327754c0-.08454544.04433702-.15240594.09986188-.15240594s.10013812.0678605.10013812.15240594" fill="#1d1d1b"/><path d="m1.41009071 6.48069917-.82018142.04370464v-.61933588l.82018142-.04943232z" fill="#07612c"/><path d="m3.01350868 5.54721281v.977191l.8017605-.0526697v-.98553348z" fill="#e20613"/><path d="m3.80906018 9.99775248c0 .07184492-.06131716.13211002-.13680426.13211002l-2.93047072.0667399c-.07497182 0-.15741506-.0561561-.15741506-.1289972l.00553915-3.18757509c0-.07346364.06170361-.1326081.13757716-.1326081l2.94064731-.12812558c.07574472 0 .13731952.06014058.13731952.13298164z" fill="#fff"/><path d="m3.76642156 9.95021278c0 .07371272-.06118834.13285712-.13693306.13285712l-2.84892922.067985c-.07522945 0-.13693307-.059269-.13693307-.1319855v-3.10502189c0-.07371268.06170362-.13273262.13693307-.13273262l2.834244-.12700494c.07522946 0 .1370619.05901994.1370619.13285712z" fill="#4d6b75"/></g><path d="m.13564489.12700495c-.07445655 0-.13564489.05814834-.13564489.13086489v2.97764339c0 .07209398.06118834.13111392.13564489.13111392l2.71702003-.07844422c.074843 0 .12199022-.03324542.12199022-.10496586l-.00553916-3.0526012c0-.07234301-.06131716-.13061587-.13564488-.13061587z" mask="url(#P)" transform="translate(20.325144 27.604898)"/><g fill-rule="nonzero"><g transform="translate(20.012644 27.42987)"><path d="m2.79199184 1.3616528s-.48358112.37914712-1.47148301.37914712c-.98764425 0-1.32050883-.19498995-1.32050883-.19498995v-1.02737039c0-.07196947.06118834-.13198553.13538726-.13198553l2.52147496-.12725398c.07458536 0 .13512962.06014058.13512962.13186102z" fill="url(#m)" mask="url(#Q)" transform="translate(.40074)"/><path d="m3.14737589 3.38171626-2.64256348.06686436s.3953411-.22798632 1.28817562-.28053152c.71751382-.0417124 1.35438786.21366716 1.35438786.21366716" fill="#1bb1bb"/><path d="m1.81554399 7.8292302c0 .04445172-.03465193.0815571-.07767699.08342482l-1.47508991.012825c-.0432827.00186772-.07832108-.0331209-.07832108-.07769714l.00257636-.97519875c0-.04345562.03478074-.08168162.07806344-.08255322l1.47277119-.01556432c.04302506-.00099612.07767699.03424152.07767699.07769714z" fill="#fff"/><path d="m1.73981214 6.79165543-1.47457463.01597336c-.03336375.0006441-.06183243.0322044-.06183243.0689174l-.00231872 1.00889915c0 .0359401.02550588.06402232.05835436.06402232v.01648864l.00244753-.01661746 1.47586281-.01313938c.03362138-.00154582.06144598-.03284848.06144598-.06994794v-1.01083141c0-.03516718-.02666524-.06376468-.0593849-.06376468zm-1.48037142 1.19066071c-.05126939 0-.09146047-.04263862-.09146047-.0968708l.00257635-1.00889915c0-.05513392.04225216-.10073532.09416564-.10176586l1.47302882-.0161022c.05307284 0 .09429446.04341152.09429446.09674198v1.01083141c0 .05448982-.04186571.10034888-.09339274.1027964z" fill="#c6c6c5"/></g><path d="m1.70443884.47362675-1.40668778.01344758c-.04135044.00136966-.07471419.03523765-.07471419.07695006l-.00231871.89164942c0 .0408408.03400783.07271655.07497182.0705998l1.40874886-.01145534c.04147925-.00199224.074843-.03486411.074843-.07570491v-.89451326c0-.04021823-.03246202-.07097335-.07329719-.07097335-.00051527 0-.00103054 0-.00154581 0" fill="url(#o)" mask="url(#R)" transform="translate(20.031 33.757817)"/><path d="m1.24900435.66814615-.49775106.00811551c-.01442757.00090172-.02653642.02305834-.02653642.04817777l-.00051527.56319038c0 .02602114.01146476.04521496.02666523.04418442l.49813752-.00708497c.0154581-.00090172.02679405-.02189898.02679405-.04727604v-.56486501c0-.02486179-.01094949-.04444206-.02602115-.04444206-.00025763 0-.00051527 0-.0007729 0" fill="url(#p)" mask="url(#S)" transform="translate(19.91268 31.395746)"/><path d="m21.162587 32.0723581-.498395.0081156c-.008502.0005152-.0186786.0181632-.0186786.0400622l-.000644.5630616c0 .0222854.0094036.0361976.0177768.0361976v.0081156l.0003864-.0081156.4986528-.0072136c.0087596-.0005154.0186786-.0164888.0186786-.0390318v-.5649938c0-.0216414-.0091462-.0361978-.017777-.0361978zm-.4999408.663797c-.019838 0-.0341368-.0221568-.0341368-.0525576l.0006442-.5630616c0-.0302722.0149428-.0552628.0340078-.0564222l.498524-.0081154c.0203532 0 .0351672.022543.0351672.0525576v.5649938c0 .0301432-.014814.0541034-.0345232.0553916z" fill="#c6c6c5"/><path d="m1.46496699.65595765-.92916107.00888841c-.02769578.0007729-.0490795.02292952-.0490795.04998121l-.00154581.5831571c0 .02730933.02189899.04753368.0498524.04611669l.92993398-.0065697c.02795341-.00128817.0498524-.02318716.0498524-.05049648v-.58496055c0-.02550587-.02061081-.0462455-.04727605-.0462455-.00090172 0-.00167463 0-.00257635.00012882" fill="url(#q)" mask="url(#T)" transform="translate(21.853123 33.962979)"/><path d="m.93720144.1370512c-.0454726 0-.08321615.03573571-.08321615.08031195v1.56626981c0 .04345561.03774355.07931583.08321615.07931583h.12624121c.04560142 0 .08257206-.03586022.08257206-.07931583v-1.56626981c0-.04457624-.03697064-.08031195-.08257206-.08031195z" fill="url(#r)" mask="url(#U)" transform="translate(19.086509 37.795217)"/><g transform="translate(6.518348 16.957028)"><path d="m13.505259 21.0128093c-.0256347 0-.046632.0208684-.046632.0467608v1.6202674c0 .0248618.0213837.0457302.046632.0457302h.1262412c.0256347 0 .0462455-.0203532.0462455-.0457302v-1.6202674c0-.0258924-.0206108-.0467608-.0462455-.0467608zm.1262412 1.7855402h-.1262412c-.0658258 0-.1195427-.0532016-.1195427-.118512v-1.6202674c0-.0658258.0537169-.1195426.1195427-.1195426h.1262412c.0656969 0 .1192851.0537168.1192851.1195426v1.6202674c0 .0653104-.0535882.118512-.1192851.118512z" fill="#606060"/><g fill="#444"><path d="m17.406151 20.4662413-4.2028017-.0497986.0018034-.1502014 4.202673.0497986z"/><path d="m13.1599506 9.2044717-.0092748-.13895836 4.0354677-.25911498.0094037.13908286z"/><path d="m17.4699286 25.0780229-4.1909506-.211675.0076003-.1389584 4.1908217.2115504z"/></g></g></g><g opacity=".454357" transform="translate(6.518348 16.957028)"><path d="m.00128818 12.4444924-.00128818-8.26852001c0-.1078297.14272986-.20283438.31882347-.2115504l33.59278613-3.96442199c.171585-.02938546.3145726.0841719.3145726.25513052l-.0043798 13.26915288s-8.1969192-3.203762-18.8948312-3.203762c-11.00488436 0-15.32568302 2.123971-15.32568302 2.123971" fill="url(#s)" fill-rule="nonzero" mask="url(#V)" transform="translate(.52506 .035112)"/><path d="m0 4.29749868 1.60377865 3.66272301 28.93358375-2.18311539 4.2270196-5.7771063z" mask="url(#W)"/></g><path d="m.45304063 0 .170168 28.1248715h.92375074l-.16784929-28.1248715z" mask="url(#X)" transform="translate(40.841669 16.5409)"/><g fill-rule="nonzero" transform="translate(38.30698 16.470636)"><path d="m3.2302936 28.1247469h.77792926l-.16681874-27.98404534h-.7803768zm.92452364.1409506h-1.0694434l-.1709409-28.2656975h1.07176212z" fill="#004010"/><path d="m3.15783372 28.1951475-3.15783372.4694204h.85019591l3.23138855-.4694204z" fill="#5ad281"/></g><path d="m0 30.2205777v1.8553928.7276636l.63146369-.18727-.00206108-.492829 6.30046697-1.0489114.01803446-1.7698514-.02421772-25.57107596-3.86001824-2.10741047.16694756 28.10470003-2.61023026.3959566-.1342279-29.68142908-.48615748-.44551342z" mask="url(#Y)" transform="translate(39.157112 14.914614)"/><path d="m0 33.0628735.77741399-.230601-.00193227-.4854826 6.2993076-1.048787.01854974-1.8292448-.02396006-25.57132498v-.04096534l-4.00661264-2.18722436.16733402 28.16533868-2.46440879.374042-.13409908-29.59937391v-.03000803l-.63159251-.57924216zm.14582148-32.73502642.34046482.31203371.13397026 29.65129671.00038645.082055 2.75605175-.4181202-.16668992-28.04368788 3.7138103 2.02734756.0240889 25.52948812-.01777684 1.7108312-6.30098223 1.049036.0021899.5001754-.48551339.1440634z" mask="url(#Z)" transform="translate(39.08433 14.750628)"/><path d="m.62320863.11654571-.04830658 32.54651139.85019591.140577v-32.8036341z" mask="url(#aa)" transform="translate(37.732014 14.914614)"/><path d="m.04817777.13771321-.04817777 32.60714989v.0591446l.99601739.1649818v-32.9689895zm.09777253 32.54763189.04779131-32.42635462.6564543-.09537823v32.63815405z" mask="url(#ab)" transform="translate(38.234134 14.832808)"/><path d="m47.708576 19.305175h-1.1905318l-10.8334282-5.6248249-33.4698943 5.8826947 4.80888842 1.5272967-.55919704.0622574-6.17293758-1.7532909 35.8169503-6.5046454z" fill="#4e9d42" fill-rule="nonzero"/><path d="m.93526917.10583745-.27103215 25.42153385.51823306.0513.1532929-25.5786713z" mask="url(#ac)" transform="translate(1.866821 19.387678)"/><path d="m.13512962.08790734-.13512962 23.47337756v1.558301.5296852l.54515592-.1471762-.00644088-.3425398 3.47704364-.8210496-.04135044-1.4504712v-21.11469663l-.56911598.04656848-.00322044 20.88758195-2.7931512.7576716.07278192-23.4651597z" mask="url(#ad)" transform="translate(3.049292 19.317078)"/><g fill-rule="nonzero"><path d="m3.6582513 42.7822632 2.82406742-.64013v-.141573l-2.82329452.5763782z" fill="#5ad281"/><path d="m.4073104.03175124v2.26965307l1.1853792.03112866v-2.33253297z" fill="url(#t)" mask="url(#ae)" transform="translate(21.748846 31.53732)"/><path d="m23.3742558 31.5046847-.0337502.0008716-1.185508.0317514-.0316892.0008716v.031004 2.2695286.0308796l.0320756.0008716 1.1852504.0311288.0336214.0008716v-.032623-2.3325328zm-.0327196.032623v2.3325328l-1.1853792-.0311286v-2.2695286z" fill="#c6c6c5"/><path d="m.9 2.26965307.16965517-.3272245.03034483-1.32720168-.2-.61522689z" fill="url(#u)" mask="url(#af)" transform="translate(21.256156 31.569072)"/><path d="m.53806022.15722258-.0198379 1.32720167-.11091192.3272245 1.1853792.03112867v-1.68555484z" fill="url(#v)" mask="url(#ag)" transform="translate(21.748846 32.027075)"/><path d="m.4073104 1.14414685 1.1853792.03220439v-.32938651l-1.08052171-.02331598z" fill="url(#w)" mask="url(#ah)" transform="translate(21.748846 32.705283)"/><path d="m23.0012864 33.3574835-.182-.001159-.0004.1971854.176.0028146h.0052zm.0002576.0179812-.0008-.2h-.1816l.0002.2h.1766zm-.4929656 0h.005.1772l-.0002-.2h-.1826zm.3385048-.0009018.0006-.2h-.185l.0008.2zm-.3367894.1817616h.0052l.176-.0028146-.0016-.1971854-.1816.001159z" fill="#262627"/></g><path d="m.93072704.9556772c-.0094 0-.0108.0082-.0106.0188.0014.0094.0044.0514.0044.0514.0244.0266.1104.0246.1452-.0014s.0054-.0356.0088-.05c.0034-.0126.0006-.0188-.0102-.0188-.003-.0004-.018-.0006-.037-.0006-.0378 0-.092.0006-.1006.0006" mask="url(#ai)" transform="translate(21.601048 31.949158)"/><path d="m.93181634.9556772c-.011 0-.0126.0082-.011.0188.0004.0094.004.0514.004.0514.0256.0266.1102.0246.1442-.0014s.0066-.0356.0094-.05c.003-.0126.0012-.0188-.0098-.0188-.0036-.0004-.0186-.0006-.0378-.0006-.038 0-.0916.0006-.099.0006" mask="url(#aj)" transform="translate(21.75583 31.949158)"/><path d="m.93424112.95371247c-.0092 0-.0098.0096-.0096.0186.002.0138.0064.05.0064.05.028.0324.109.031.1386.0016s.0046-.0378.0052-.0516c.0016-.0122 0-.0186-.009-.0186z" mask="url(#ak)" transform="translate(21.75414 32.095068)"/><path d="m.93142531.95159411c-.0102 0-.011.0076-.0094.0186.0014.0158.0064.0548.0064.0548.0288.0326.1134.0298.1434 0s.0048-.039.0066-.0532c.0006-.0138.0004-.0202-.0102-.0202z" mask="url(#al)" transform="translate(21.75415 32.253524)"/><path d="m.93095658.95159411c-.01 0-.01.0076-.01.0186.0024.0158.0074.0548.0074.0548.029.0326.1136.0298.1442 0s.0044-.039.0064-.0532c.0004-.0138-.0002-.0202-.0102-.0202z" mask="url(#am)" transform="translate(21.599354 32.253524)"/><path d="m.93102306.9521288c-.0102 0-.0102.0078-.01.0186.0022.0152.0072.0544.0072.0544.0292.0328.1136.0294.1442 0s.0044-.0392.0066-.0544c0-.0126-.0004-.0186-.0106-.0186-.0032-.0006-.0182-.0006-.0372-.0006-.038 0-.092.0006-.1002.0006" mask="url(#an)" transform="translate(21.59944 32.095182)"/><path d="m.93158708.9521288c-.0108 0-.0106.0078-.0102.0186.0016.0152.0066.0544.0066.0544.029.0328.1134.0294.1446 0s.0036-.0392.0058-.0544c.001-.0126.0006-.0186-.0104-.0186-.0034-.0006-.0182-.0006-.0372-.0006-.0378 0-.0912.0006-.0992.0006" mask="url(#ao)" transform="translate(21.907466 32.095182)"/><path d="m.93158708.95194894c-.0108 0-.0106.0082-.0102.0188.0016.0156.0064.0532.0064.0532.0292.034.1136.0314.1448.0014s.0036-.039.0058-.0546c.001-.0126.0006-.0188-.0104-.0188-.0034-.0004-.0182-.0006-.0372-.0006-.0378 0-.0912.0006-.0992.0006" mask="url(#ap)" transform="translate(21.907466 31.95148)"/><path d="m.93165878.95159411c-.0108 0-.0108.0076-.0102.0186.0016.0158.0066.0548.0066.0548.029.0326.1134.0298.1446 0s.0036-.039.0056-.0532c.0012-.0138.001-.0202-.0102-.0202z" mask="url(#aq)" transform="translate(21.90742 32.253524)"/><path d="m.93130061.95163072c-.0102 0-.0108.0094-.009.0204.001.0138.006.053.006.053.0288.0326.1134.0296.1434 0s.0048-.0392.0066-.053c.0006-.0144.0004-.0204-.0102-.0204z" mask="url(#ar)" transform="translate(21.75423 32.426204)"/><path d="m.93081769.95163072c-.01 0-.01.0094-.0096.0204.002.0138.007.053.007.053.029.0326.1136.0296.1442 0s.0044-.0392.0064-.053c.0004-.0144-.0002-.0204-.0102-.0204z" mask="url(#as)" transform="translate(21.599444 32.426204)"/><path d="m.93153085.95163072c-.0108 0-.0104.0094-.01.0204.0014.0138.0064.053.0064.053.029.0326.11339999.0296.14459999 0s.0036-.0392.0056-.053c.0012-.0144.001-.0204-.0102-.0204z" mask="url(#at)" transform="translate(21.907504 32.426204)"/><path d="m.79653266.86003972c-.00991895 0-.01867855.00901723-.01867855.019065v.24179056c0 .01107831.0087596.019065.01867855.019065h.40693468c.01069186 0 .01867855-.00798669.01867855-.019065v-.24179056c0-.01004777-.00798669-.019065-.01867855-.019065z" fill="url(#x)" fill-rule="nonzero" mask="url(#au)" transform="translate(21.719412 31.65335)"/><path d="m22.922892 32.4974027h-.4069348c-.0191938 0-.0351672.0163598-.0351672.0355536v.2417906c0 .0194514.0157158.0355536.0351672.0355536h.4069348c.0195802 0 .0350384-.0155868.0350384-.0355536v-.2417906c0-.0194514-.0157158-.0355536-.0350384-.0355536m0 .0164886c.0106918 0 .0186786.0090174.0186786.019065v.2417906c0 .0110784-.0079868.0191938-.0186786.0191938h-.4069348c-.0099188 0-.0186784-.0081154-.0186784-.0191938v-.2417906c0-.0100476.0087596-.019065.0186784-.019065z" fill="#c6c6c5" fill-rule="nonzero"/><path d="m35.3229348.00410898-35.12082005 7.12684513c-.11116955.02253714-.20211475.1308649-.20211475.24081134v.7980144c0 .10994644.09120283.18316106.20288766.16261614l35.11927434-6.43043468c.111556-.02042041.2028876-.12700495.2028876-.23695139v-1.50214475c0-.09612532-.0695614-.16286517-.161666-.16286517-.0130106 0-.0266652.00136966-.0404488.00410898" mask="url(#av)" transform="translate(.437516 10.889056)"/><g fill-rule="nonzero" transform="translate(.36458 10.818784)"><path d="m35.4364232.14074634c-.0081156 0-.0167464.00087161-.025506.00273933l-35.12094887 7.1267206c-.07690408.01568884-.14427567.09587628-.14427567.17183022v.79813892c0 .06487214.05011003.10546392.11645108.09326148l35.11927426-6.43031017c.0779346-.01431918.1437604-.09114472.1437604-.16772123v-1.50226928c0-.05515999-.0356824-.09238987-.0887552-.09238987m-35.19759544 8.33575788c-.13628898 0-.23882776-.10160395-.23882776-.23632881v-.79813892c0-.14406346.11413236-.28003346.26008266-.30979246l35.12082014-7.1267206c.1532928-.03162672.2900972.07632748.2900972.22761278v1.50226928c0 .14468602-.1152918.27916184-.2624014.306057l-35.11927436 6.43043469c-.01726155.00311286-.03413665.00460704-.05049648.00460704" fill="#07612c"/><path d="m0 6.44525191 34.8912672-6.44525191s-9.984134 1.14379159-18.2562825 2.65851233c-8.27214856 1.51546783-16.6349847 3.78673958-16.6349847 3.78673958" fill="url(#y)" mask="url(#aw)" transform="translate(.268996 1.788698)"/></g><path d="m.02727845.1215263-.02727845 1.25672638c-.00222077.10969741.07635794.24442226.17490337.29895968l11.01119643 6.10607401c.0986742.05466194.1768665.00958762.1740623-.1002343l-.0263086-.97457618c-.002834-.1096974-.0848908-.24604096-.182148-.30269512l-10.94318074-6.38075332c-.02898395-.016934-.05655091-.02502745-.08115507-.02502745-.05771026 0-.0982878.04445173-.10009124.1215263" mask="url(#ax)" transform="translate(36.294688 11.152778)"/><g transform="translate(36.509112 12.659692)"><path d="m0 0 10.8229939 6.02339627s-1.96794586-1.76088619-5.43004666-3.55775714c-3.46145671-1.79599933-5.39294724-2.46563913-5.39294724-2.46563913" fill="#07612c" fill-rule="nonzero"/><path d="m0 0 3.89943642 2.14327069-1.24424882 1.47275931s-.20765392.09027312-.53948796.04470076c-.33183404-.04470076-2.11569964-.17855401-2.11569964-.17855401z" mask="url(#ay)" transform="translate(5.793854 4.578864)"/></g></g></svg>