<svg height="48" viewBox="0 0 144 48" width="144" xmlns="http://www.w3.org/2000/svg"><g fill="none" fill-rule="evenodd"><path d="m48 36-24 12-9-4.5v-24l9-4.5 6 3v-9h-18l6 3-9 4.5v24l-9-4.5v-24l24-12 24 12v9l-18 9v6l18-9z" fill="#35c287"/><path d="m60 21h19v6h-19z" fill="#9fa9b5"/><g fill="#ee7f01" fill-rule="nonzero" transform="translate(96 9)"><path d="m14.0132133 0h1.2091003c3.900195.18082192 7.7107532 2.0219178 10.2663968 5.07945206-.8087228 1.13424658-1.60151 2.27876712-2.37637 3.43767122-1.6791954-2.37534246-4.3185-3.99246574-7.1450457-4.37465752-3.0894803-.45821918-6.34030679.62054794-8.61508854 2.81917808-1.79871096 1.70342466-2.9978516 4.06232876-3.318552 6.56095886-.47806272 3.380137.7409972 6.9452055 3.13131078 9.3020549 2.32657187 2.3732876 5.76264766 3.5116438 8.99554676 2.9856164 2.6751592-.3965754 5.0136827-1.9746576 7.0334977-3.7458904 3.067569-2.7123288 5.7945184-5.8047946 8.4158956-8.9671233 3.2050122-3.9123288 6.0694046-8.10205482 8.8381846-12.34931509 1.8544848 0 3.7089698.00205479 5.5634548-.00410959.551764-.01438357 1.1533262.09246575 1.545736.53013698.470095.47054795.5338368 1.22054794.3406198 1.8369863-.2051686.62876712-.6513606 1.1239726-1.0656816 1.6150685-2.6373126 3.1109589-5.2766172 6.219863-7.9477926 9.3020548-3.041674 3.4931507-6.0634288 7.0479452-9.648899 9.9636986-4.1312588 3.4150686-9.1788042 5.9815068-14.5669694 6.0082192h-.2390313c-3.4918498-.0267124-6.95182868-1.3952054-9.55129468-3.8013698-2.94406956-2.6753426-4.74676437-6.620548-4.87823162-10.6664384v-1.0582192c.11951568-3.8506849 1.74891276-7.62123288 4.45395096-10.28013698 2.5417001-2.55 6.01562244-4.07260274 9.55926234-4.19383562z"/><path d="m31.337011.76232877c2.571579-.0369863 5.143158.00410959 7.714737-.02054795-3.6432362 5.49863014-7.4617622 10.90684928-11.9416082 15.72123288-1.8425334 2.0075342-3.7468166 3.9739727-5.8821634 5.6527397-1.659276 1.2883562-3.5775026 2.3589042-5.6809785 2.539726-3.1173673.3616438-6.35823415-1.0212328-8.31231548-3.5506848-1.69911458-2.120548-2.434136-5.0136987-1.97798448-7.7219179.40834522-2.6609589 1.97400062-5.0938356 4.16711331-6.54863012 2.13136295-1.44452056 4.84636075-1.92739726 7.32232725-1.30068494 2.2707979.5630137 4.3563465 2.00753426 5.6291885 4.03972604-.8943756 1.20616442-1.689155 2.49041092-2.601458 3.68219182-.7947793-2.7267124-3.7806793-4.48561648-6.4578305-3.7684932-2.7787395.6041096-4.7726594 3.6821918-4.14719403 6.5630137.49399814 3.0041096 3.67112323 5.270548 6.56141073 4.4075342 2.294701-.6821917 3.8484049-2.7226027 5.173037-4.6458904 3.4978256-5.0034246 6.9876834-10.01095886 10.4337188-15.04931503z"/></g><path d="m84 24-12-12v24.0894508z" fill="#9fa9b5"/></g></svg>