<svg height="48" viewBox="0 0 48 48" width="48" xmlns="http://www.w3.org/2000/svg" xmlns:xlink="http://www.w3.org/1999/xlink"><linearGradient id="a" x1="50%" x2="50%" y1="0%" y2="100%"><stop offset="0" stop-color="#0274cf"/><stop offset="1" stop-color="#2874b0"/></linearGradient><path d="m34 0c1.1041667 0 2 .89583333 2 2v6l3.8541667 9.6458333c.0989586.2343747.1458333.4843747.1458333.7395827v1.614584c0 1.1041667-.8958333 2-2 2v12c0 1.1041667-.8958333 2-2 2s-2-.8958333-2-2v-12h-12v10c0 2.1414141-1.684726 3.8910315-3.8004285 3.9951025l-.1995715.0048975h-12c-2.20833333 0-4-1.7916667-4-4v-10c-1.10416667 0-2-.8958333-2-2v-1.614584c0-.255208.04687467-.505208.14583333-.7447907l3.85416667-9.6406253v-6c0-1.10416667.89583333-2 2-2zm-17 22h-10c-.55208267 0-1 .4479173-1 1v8c0 .5520827.44791733 1 1 1h10c.5520827 0 1-.4479173 1-1v-8c0-.5520827-.4479173-1-1-1zm-7-18c-1.10416667 0-2 .89583333-2 2s.89583333 2 2 2c1.1041667 0 2-.89583333 2-2s-.8958333-2-2-2zm6 0c-1.1041667 0-2 .89583333-2 2s.8958333 2 2 2 2-.89583333 2-2-.8958333-2-2-2z" fill="url(#a)" transform="translate(4 6)"/></svg>