<svg height="46" viewBox="0 0 48 46" width="48" xmlns="http://www.w3.org/2000/svg"><g fill="none"><path d="m24.6140725.24731183 23.130064 22.15913977c.3411513.3297491.3411513.8573477 0 1.1870968l-23.130064 22.1591398c-.3411514.3297491-.8869936.3297491-1.228145 0l-23.13006396-22.1591398c-.34115139-.3297491-.34115139-.8573477 0-1.1870968l23.13006396-22.15913977c.3411514-.32974911.8869936-.32974911 1.228145 0z" fill="#7f7f7f"/><path d="m29.5607676 17.8888889c.3752665-.362724.9552239-.362724 1.2963753 0l4.6737739 4.4845878c.3752666.3297491.3752666.8903226 0 1.2200717l-10.8144989 10.3870968c-.3411514.3297491-.3411514.8903225 0 1.2200716l4.8102346 4.5835126c.3411513.362724.3411513.9232975 0 1.2530466l-4.8784649 4.6824373c-.3752665.3297491-.9552238.3297491-1.2963752 0l-23.06183372-22.1261649c-.34115139-.3297491-.34115139-.8903226 0-1.2200717l16.98933902-16.28960573c.3752665-.32974911.9552239-.32974911 1.2963753 0l4.673774 4.48458783c.3411513.3297491.3411513.8903226 0 1.2530466l-10.814499 10.3870968c-.3752665.3297491-.3752665.8903225 0 1.2200716l5.0149254 4.814337c.3411514.362724.9211087.362724 1.2963753 0z" fill="#ff7f00"/></g></svg>