<svg height="48" viewBox="0 0 144 48" width="144" xmlns="http://www.w3.org/2000/svg"><g fill="none" fill-rule="evenodd"><path d="m48 36-24 12-9-4.5v-24l9-4.5 6 3v-9h-18l6 3-9 4.5v24l-9-4.5v-24l24-12 24 12v9l-18 9v6l18-9z" fill="#35c287"/><path d="m60 21h19v6h-19z" fill="#9fa9b5"/><path d="m84 24-12-12v24.0894508z" fill="#9fa9b5"/><g fill="#0094e7" transform="translate(96 4)"><path d="m11.7894325 31.202635v5.2917611h33.6829757v-28.37540242h-16.7898724l-.6060902-2.50327888h17.5179627c1.3287062 0 2.4048096 1.06718731 2.4055917 2.3839275v28.6164302c0 1.3167402-1.0768855 2.3839275-2.4055917 2.3839275h-33.9254118c-1.3287062 0-2.40559164-1.0671873-2.40559164-2.3839275v-4.8050554zm17.6853219-8.2460951 2.6323867-.6703828-.3988465-1.649219h11.2396501v13.3557291h-13.4731903v-7.0448313l.0531795-.0116251-.0531795-.1984023zm-15.1585122 7.6369381 13.4739724-3.2426374v6.6418266h-13.4739724zm15.1585122-19.1946465v-.7750089h13.4731903v3.3379635h-12.8530231zm1.0221418 4.2323239h12.4502664v3.3371885h-11.6431888z"/><path d="m14.3412679 15.1723501c-1.1879368.3007034-2.1318735 1.1942887-2.4892712 2.3568022-.0312821.4425301.0782052.8827351.3128207 1.2601645.286231.3061285.7007185.4611303 1.1198984.4192798l1.05577-.177477v-3.8587695zm-14.3412679-6.32949807 9.72559754-2.14754978c-1.52343712.87188506-2.70746371 2.22505068-3.36282321 3.84249435l6.36199227.516931c.2283592-.7912842.8313212-1.42369147 1.6157192-1.6949446v2.3079766c-4.36932396.4355551-9.05068669 2.0150233-9.90781558 6.7162275-.1642309 3.4053893 1.9449631 4.8585311 5.19282467 4.8585311 1.64465521.0077501 3.26584881-.3921545 4.71499091-1.1625134v5.4886133l-9.51053321 2.1173244zm17.2426805-3.82621915 4.037734-.88738523.36209 1.53296768c-1.4194242-.4595803-2.9068869-.67735781-4.399824-.64248241zm-2.9006305 14.01293672.1157436-.0317754c1.8620656-.4526052 2.1115402-2.6807559 2.3899507-4.2300565-.8508725-.0022673-1.6962706.1341342-2.5025661.4030623v3.8587696zm0 3.0512102c.7437313-.3890545 1.3732831-.9617861 1.8292194-1.6623942l-.1978592 1.8871468.0993206.6618576h6.6427489c-.2033335-1.1439132-.1923847-2.3149517.0336283-3.4549899.2799746-1.5174675.6577056-3.1473113.9885136-4.7616549l2.3743096 10.2208179-11.7698812 2.598605v-5.4886133zm0-12.7209968c.4043208-.15810183.8344493-.24025277 1.2684881-.24180279 1.6321424 0 2.1263992 1.09741269 1.7306809 2.40252769-.9556674 0-1.9621682.0480506-2.9999511.1449267v-2.3056516z"/><path d="m12.8240872 24.3414809-5.4900044 1.2121139-.6764749-2.8760581c.93533408.4022296 1.9480913.5952068 2.96710494.5649815 1.08548806-.0046501 2.16393766-.173602 3.19859226-.5006558v1.5996185zm0-8.3452963c-.4919107.3859544-.8352314.9269107-.9728726 1.5329677-.0312821.4417551.0782052.8827351.3128208 1.2601645.1642309.2046024.3988465.342554.6592697.3875045v-3.1806367zm-10.3230852-11.28413023 10.3230852-2.29247645v3.05276022c-2.802874.67813283-5.27494013 2.19560034-6.46131287 5.06933346l6.36199227.516931c.0336282-.1131513.0664744-.2100274.0993206-.3100036v1.1330631c-3.13289995.516931-6.17821008 1.7274949-7.64924972 4.3749255l-2.66836111-11.54453323zm10.3230852 14.46321693c.1532822.0201502.3073464.0310003.4614106.0325503l1.1730779-.2092524c1.8628476-.4526052 2.1115401-2.6807559 2.3899506-4.2299988-1.4397575-.0372004-2.8521433.3937045-4.0220929 1.2268392zm0 5.1654346 6.1641331-1.3717659h-2.9170536l-.0993206-.6618576.1978592-1.8886968c-.8078597 1.1377131-1.9911042 1.9599976-3.3456181 2.3250268zm0-12.4621438c1.4929371-.2418028 3.0038614-.3603792 4.5163498-.3549541.3957182-1.3074401-.0985386-2.40252776-1.7306809-2.40252776-1.1699497-.0434005-2.2577839.59210684-2.7856689 1.62751876zm0-9.45975919 10.9620216-2.41880291 4.8283885 20.8213902-6.0327484 1.3399905c-.045359-.8858352.0101666-1.7739955.1642309-2.6474305.5607312-3.1480864 1.6157192-6.6650769 1.6157192-9.87903903 0-4.19744843-4.203529-4.61750328-7.5170829-4.61750328-1.3545139-.01240014-2.7051176.13950161-4.022093.45260523v-3.0504352h.0015641z"/></g></g></svg>