<svg xmlns="http://www.w3.org/2000/svg" width="144" height="48" xmlns:v="https://vecta.io/nano"><defs><linearGradient x1="48.1351649%" y1="23.862816%" x2="45.5000175%" y2="4.28632893e-15%" id="A"><stop stop-color="#e92427" stop-opacity="0" offset="0%"/><stop offset="100%"/></linearGradient><linearGradient x1="47.8726331%" y1="16.2612995%" x2="45.3010477%" y2="13.7338965%" id="B"><stop stop-color="#e3e3e2" stop-opacity="0" offset="0%"/><stop stop-opacity=".714" offset="100%"/></linearGradient><linearGradient x1="47.1548904%" y1="30.8149105%" x2="46.2809971%" y2="29.3556331%" id="C"><stop stop-color="#c9c9c8" stop-opacity=".5" offset="0%"/><stop stop-opacity=".278" offset="100%"/></linearGradient><linearGradient x1="50%" y1="62.9254938%" x2="55.0593971%" y2="69.1164576%" id="D"><stop stop-color="#fff" stop-opacity=".5" offset="0%"/><stop stop-opacity=".551" offset="100%"/></linearGradient><linearGradient x1="44.7932972%" y1="32.2081444%" x2="43.4117448%" y2="30.6501659%" id="E"><stop stop-color="#e92427" stop-opacity=".5" offset="0%"/><stop stop-opacity=".278" offset="100%"/></linearGradient><linearGradient x1="52.6249702%" y1="85.9933603%" x2="61.7098594%" y2="100%" id="F"><stop stop-color="#e92427" stop-opacity=".46" offset="0%"/><stop stop-opacity=".552" offset="100%"/></linearGradient><linearGradient x1="44.7986147%" y1="32.2081444%" x2="43.4184731%" y2="30.6501659%" id="G"><stop stop-color="#af2025" stop-opacity=".5" offset="0%"/><stop stop-opacity=".278" offset="100%"/></linearGradient><linearGradient x1="52.6222894%" y1="85.9933603%" x2="61.6979006%" y2="100%" id="H"><stop stop-color="#af2025" stop-opacity=".46" offset="0%"/><stop stop-opacity=".552" offset="100%"/></linearGradient><linearGradient x1="54.8203874%" y1="23.5587948%" x2="58.0835528%" y2="4.45373145e-15%" id="I"><stop stop-color="#ae1f24" stop-opacity="0" offset="0%"/><stop offset="100%"/></linearGradient><linearGradient x1="47.8776256%" y1="16.2612995%" x2="45.3120751%" y2="13.7338965%" id="J"><stop stop-color="#fff" stop-opacity="0" offset="0%"/><stop stop-opacity=".714" offset="100%"/></linearGradient><path id="K" d="M38.835.036L48 28.44l-3.376 2.472-8.981-28.086z"/><path id="L" d="M26.444 10.883l5.693 19.761h-8.088v-4.602l2.381-15.088z"/><path id="M" d="M13.649 38.426L3.432 30.951l.021-.029 8.793-11.49 3.727 11.211h.003z"/><path id="N" d="M10.193 18.943L0 11.479 8.778 0l3.727 11.211z"/><path id="O" d="M9.169.025l3.266 2.84-9.002 28.086L0 28.44z"/><path id="P" d="M38.828 0l.007.025-8.513 7.453-6.25 5.468.001.016-.01-.008-.005-.004L9.197.025 24.058.024 24.059 0h14.77z"/></defs><g fill="none"><path fill="#35c287" d="M48 36L24 48l-9-4.5v-24l9-4.5 6 3V9H12l6 3-9 4.5v24L0 36V12L24 0l24 12v9l-18 9v6l18-9z"/><g fill="#9fa9b5"><path d="M60 21h19v6H60z"/><path d="M84 24L72 12v24.089z"/></g><g transform="translate(96 1)"><g fill="#e92427"><use href="#K"/><use href="#K"/></g><use href="#K" fill="url(#A)" fill-opacity=".7"/><path fill="#af2025" d="M44.634 30.908l-10.196 7.467-2.299-7.732 3.723-11.194z"/><path fill="#fff" d="M35.646 2.826l-5.325 4.652-2.168 1.897 7.705 10.075 8.768 11.462.004-.004z"/><path fill="#e92427" d="M34.437 38.376L24.05 45.983v-4.838-.032-10.468h8.088z"/><use href="#L" fill="#e3e3e2"/><use href="#L" fill="url(#B)" fill-opacity=".8"/><path fill="#b2b0b2" d="M26.376 10.926l-2.317 2.033V22.98v3.062l2.37-15.088.007-.075.007-.011z"/><path fill="#af2025" d="M24.045 41.144v4.838l-.021.018-10.37-7.574 2.328-7.782h8.063v10.468l-.021.018z"/><path d="M19.94 9.382l1.732 1.511-5.686 19.75h-.003l-3.727-11.211z" fill="#c9c9c8"/><path d="M19.94 9.382l1.732 1.511-5.686 19.75h-.003l-3.727-11.211z" fill="url(#C)"/><path d="M19.94 9.382l1.732 1.511-5.686 19.75h-.003l-3.727-11.211z" fill="url(#D)"/><g transform="matrix(-1 0 0 1 35.8514 9.382)"><path d="M7.684 0l1.732 1.511-5.686 19.75h-.003L0 10.05z" fill="#c9c9c8"/><path d="M7.684 0l1.732 1.511-5.686 19.75h-.003L0 10.05z" fill="url(#C)"/><path d="M7.684 0l1.732 1.511-5.686 19.75h-.003L0 10.05z" fill="url(#D)"/></g><path fill="#fff" d="M17.768 7.517L12.44 2.865 3.459 30.923l8.793-11.49 7.674-10.036z"/><use href="#M" fill="#e92427"/><use href="#M" fill="url(#E)"/><use href="#M" fill="url(#F)"/><g transform="matrix(-1 0 0 1 44.6304 19.433)"><use href="#N" fill="#af2025"/><use href="#N" fill="url(#G)"/><use href="#N" fill="url(#H)"/></g><use href="#O" fill="#af2025"/><use href="#O" fill="url(#I)" fill-opacity=".7"/><path fill="#e92427" d="M38.828 0h-14.77v12.959l6.263-5.481L38.835.025z"/><use href="#P" fill="#000"/><use href="#P" fill="#e92427"/><path d="M21.672 10.887l-5.686 19.757h8.059l.018-4.605z" fill="#fff"/><path d="M2.391 0l5.686 19.757H.018L0 15.152z" fill="url(#J)" fill-opacity=".8" transform="matrix(-1 0 0 1 24.0634 10.887)"/><path fill="#af2025" d="M24.073 12.962L9.197.025h14.876z"/><path fill="#e3e3e2" d="M21.757 10.986l-.074-.061-.021-.018h.007l2.395 15.131V22.98 12.962z"/></g></g></svg>