<?xml version="1.0" encoding="UTF-8"?>
<svg width="48px" height="48px" viewBox="0 0 48 48" version="1.1" xmlns="http://www.w3.org/2000/svg" xmlns:xlink="http://www.w3.org/1999/xlink">
    <title>Artboard</title>
    <g id="Artboard" stroke="none" stroke-width="1" fill="none" fill-rule="evenodd">
        <path d="M28.245092,38.9496569 L28.245092,28.9861645 L19.7722073,28.9861645 L19.7722073,38.9496569 L13.3102158,38.9496569 L21.1759307,46.8138052 C21.5514201,47.1898571 21.9973335,47.4881051 22.4882931,47.6916082 C22.9791468,47.8952158 23.5053184,48 24.036777,48 C24.5682357,48 25.0944072,47.8952158 25.585261,47.6916082 C26.0762205,47.4881051 26.522134,47.1898571 26.8976234,46.8138052 L34.7633382,38.9496569 L28.245092,38.9496569 Z M9.05457074,34.7066289 L9.05457074,13.272613 L1.18884529,21.1367613 C0.812044704,21.5117674 0.513059562,21.9574663 0.309041194,22.4483416 C0.105022827,22.9391123 1.45661261e-13,23.4654385 1.45661261e-13,23.9969935 C1.45661261e-13,24.5285484 0.105022827,25.0548747 0.309041194,25.54575 C0.513059562,26.0365207 0.812044704,26.4822195 1.18884529,26.8572256 L9.05457074,34.7066289 Z M19.7722073,9.04443459 L19.7722073,19.0078224 L28.245092,19.0078224 L28.245092,9.04443459 L34.7189266,9.04443459 L26.8532118,1.18613204 C26.4777224,0.810121993 26.0318089,0.511821665 25.5408494,0.308287246 C25.0499956,0.104752827 24.5238241,0 23.9923654,0 C23.4609068,0 22.9347352,0.104752827 22.4438815,0.308287246 C21.952922,0.511821665 21.5070085,0.810121993 21.1315191,1.18613204 L13.2658042,9.05029079 L19.7722073,9.04443459 Z M46.8136819,21.1367613 L38.9478613,13.272613 L38.9478613,34.7066289 L46.8136819,26.8572256 C47.1897,26.4819058 47.4881036,26.0359978 47.6916567,25.5452271 C47.8952098,25.0544564 48,24.5283393 48,23.9969935 C48,23.4656476 47.8952098,22.9396351 47.6916567,22.4487599 C47.4881036,21.9579892 47.1897,21.5121857 46.8136819,21.1367613 L46.8136819,21.1367613 Z" id="Shape" fill="#DA291C" fill-rule="nonzero"></path>
    </g>
</svg>