<?xml version="1.0" encoding="UTF-8"?>
<svg width="48px" height="38px" viewBox="0 0 48 38" version="1.1" xmlns="http://www.w3.org/2000/svg" xmlns:xlink="http://www.w3.org/1999/xlink">
    <title>Group</title>
    <g id="Page-1" stroke="none" stroke-width="1" fill="none" fill-rule="evenodd">
        <g id="Artboard" transform="translate(0, -5)" fill="#0291CD" fill-rule="nonzero">
            <g id="Group" transform="translate(0, 5)">
                <path d="M46.9941324,0 C47.5466381,0.00716599677 47.9927768,0.449770364 48,0.99789916 L48,37.0021008 C47.9927768,37.5502296 47.5466381,37.992834 46.9941324,38 L12.9823973,38 C6.39493528,37.9725206 0.847727709,33.1066572 0.0134115675,26.6239496 L0.0134115675,26.3711485 C-0.0599175111,25.8486017 0.294957142,25.3615807 0.818105616,25.2668067 C1.37233898,25.2123418 1.86802404,25.6093033 1.93126572,26.1582633 L1.93126572,26.3711485 C2.63717734,31.8564062 7.3280645,35.9753522 12.9019279,36.0042017 L45.988,36.004 L45.9882649,1.99579832 L2.01173512,1.99579832 L2.01173512,11.5357143 C2.01173512,12.0868388 1.56139287,12.5336134 1.00586756,12.5336134 C0.450342247,12.5336134 0,12.0868388 0,11.5357143 L0,0.99789916 C0.00722321852,0.449770364 0.453361859,0.00716599677 1.00586756,0 L46.9941324,0 Z M42.6219614,25.5861345 L42.6219614,32.5980392 L15.1148365,32.5980392 C10.6514129,32.8165342 6.65140392,29.8834271 5.55238894,25.5861345 L42.6219614,25.5861345 Z M22.4210526,17.1359126 L22.5984912,17.1505602 C23.6177703,17.1505602 24.0603521,17.5364146 24.0335289,18.3480392 C24.017305,18.7400669 23.9357313,19.1267203 23.7921207,19.4922969 C23.6982397,19.6918768 23.5775356,19.6918768 23.1483655,19.6918768 L21.176865,19.6918768 L21.0963956,20.0511204 C21.0844208,20.1394248 21.0844208,20.2289225 21.0963956,20.3172269 C21.0726197,20.475598 21.1465369,20.6327372 21.2841576,20.7163866 C21.5069173,20.8153768 21.752684,20.8521798 21.9949707,20.8228291 C22.7728416,20.8228291 22.9606035,20.7296919 23.2020117,20.3704482 L23.4702431,20.3704482 L23.3093043,20.9957983 C23.1886002,21.4481793 23.1483655,21.5147059 22.9874267,21.6078431 C22.5604916,21.7703916 22.101786,21.8341017 21.6462699,21.7941176 C21.2261699,21.8230082 20.8048272,21.7593988 20.4124057,21.6078431 C20.0396961,21.3871422 19.8302879,20.9716435 19.875943,20.5434174 C19.922739,19.5991607 20.2137151,18.6827448 20.7208718,17.8823529 C21.1805656,17.3375017 21.8878995,17.0618218 22.5984912,17.1505602 Z M35.2321878,17.8823529 C35.6961032,17.3352969 36.4084563,17.05963 37.1232188,17.1505602 C38.1424979,17.1505602 38.5582565,17.4964986 38.5582565,18.3214286 L38.5582565,18.3613445 C38.5341727,18.7521368 38.438743,19.1353399 38.2766136,19.4922969 C38.1827326,19.6918768 38.0620285,19.6918768 37.6328583,19.6918768 L35.6613579,19.6918768 L35.5808885,20.0511204 C35.5689137,20.1394248 35.5689137,20.2289225 35.5808885,20.3172269 C35.563848,20.4745569 35.6361605,20.6282847 35.7686505,20.7163866 C35.9914102,20.8153768 36.2371769,20.8521798 36.4794635,20.8228291 C37.2573345,20.8228291 37.4450964,20.7296919 37.6999162,20.3704482 L37.9815591,20.3704482 L37.8206203,20.9957983 C37.6999162,21.4481793 37.673093,21.5147059 37.4987427,21.6078431 C37.0718076,21.7703916 36.613102,21.8341017 36.1575859,21.7941176 C35.7374859,21.8230082 35.3161432,21.7593988 34.9237217,21.6078431 C34.5509066,21.3883567 34.3453198,20.9699811 34.4006706,20.5434174 C34.4428239,19.6002599 34.7292002,18.6837835 35.2321878,17.8823529 Z M42.7158424,17.1904762 L42.5683152,17.7359944 C42.551944,17.8425501 42.4928312,17.9380083 42.4044215,18.0006578 C42.3160117,18.0633074 42.2058207,18.0878225 42.0989103,18.0686275 L41.2539816,18.0686275 C40.8784577,18.0686275 40.7577536,18.0952381 40.650461,18.1883754 C40.5789837,18.2795365 40.5411201,18.3922275 40.5431685,18.5077031 C40.5297569,18.6540616 40.5968148,18.6939776 40.8113998,18.7605042 L41.6563286,19.0133053 C42.233026,19.1862745 42.3939648,19.3592437 42.3939648,19.8116246 C42.3943283,20.3425936 42.245727,20.8631851 41.9647946,21.3151261 C41.7160421,21.6322302 41.3221735,21.8025565 40.9186924,21.767507 L38.853311,21.767507 C38.7892098,21.769823 38.7278379,21.7416743 38.6880917,21.6917279 C38.6483455,21.6417815 38.63499,21.5760254 38.6521375,21.5147059 L38.9203688,20.5035014 L39.161777,20.5035014 C39.2288349,20.7296919 39.3763621,20.7962185 39.7116513,20.7962185 L40.5565801,20.7962185 C40.8516345,20.7962185 40.9991618,20.7563025 41.0796312,20.6498599 C41.1724178,20.54735 41.2248017,20.4150655 41.2271584,20.2773109 C41.2271584,20.0910364 41.1601006,20.0378151 40.7577536,19.9313725 L39.9664711,19.7184874 C39.5104778,19.5987395 39.3227158,19.372549 39.3227158,18.9866947 C39.345852,18.5646702 39.4699816,18.1541827 39.6848282,17.7892157 C39.944691,17.3801575 40.4229179,17.1611859 40.9052808,17.2303922 L42.7158424,17.1904762 Z M12.0167645,20.1841737 L11.6144174,21.767507 L10.7829003,21.767507 L9.46856664,20.530112 L9.46856664,20.1841737 L12.0167645,20.1841737 Z M13.2908634,20.1841737 L12.8885163,21.767507 L12.0704107,21.767507 L12.4593462,20.1841737 L13.2908634,20.1841737 Z M19.8958814,16.0466551 C19.9418731,16.0528232 19.9845593,16.0757913 20.0149779,16.1120045 C20.0555362,16.1602888 20.0688157,16.2256084 20.0502934,16.2857143 C20.0502934,16.2857143 19.7786644,17.3201587 19.4889269,18.4343839 L19.3643841,18.9140102 C19.0746465,20.0315468 18.8030176,21.0924837 18.8030176,21.1421569 C18.7761945,21.2885154 18.6957251,21.5280112 18.8432523,21.5945378 L18.8432523,21.7542017 L17.582565,21.7542017 C17.5196322,21.7614373 17.4572651,21.7367 17.4167069,21.6884157 C17.3761487,21.6401314 17.3628691,21.5748118 17.3813915,21.5147059 L18.0251467,19.0798319 L16.3084661,19.0798319 L15.7720034,21.1953782 C15.7451802,21.2885154 15.6781224,21.5280112 15.8927075,21.5945378 L15.8927075,21.7542017 L14.6320201,21.7542017 C14.5713583,21.7567284 14.5132091,21.7299987 14.4759336,21.6824526 C14.438658,21.6349066 14.4268575,21.5724134 14.4442582,21.5147059 C14.4442582,21.5147059 15.5171836,17.4033613 15.6915339,16.6715686 C15.7183571,16.5651261 15.7854149,16.3256303 15.5708298,16.2591036 L15.5708298,16.0994398 L16.8717519,16.0994398 C16.9328702,16.0982119 16.9912356,16.1246208 17.0303706,16.1712108 C17.0695056,16.2178008 17.0851641,16.2795168 17.0729254,16.3389356 L16.590109,18.17507 L18.2531433,18.17507 C18.2531433,18.17507 18.7091366,16.7247899 18.7225482,16.6183473 C18.7359598,16.5119048 18.8164292,16.272409 18.5884325,16.2058824 L18.5884325,16.0462185 Z M30.3135621,17.144949 L30.417435,17.1505602 L30.9673093,17.1505602 C31.5708298,17.1505602 31.7451802,17.5098039 31.7451802,17.8690476 L31.9731769,17.5231092 C32.1004103,17.269433 32.373129,17.1208912 32.6571668,17.1505602 L33.2472758,17.1505602 C34.0653814,17.1505602 34.1056161,17.9222689 34.0653814,18.0553221 C34.0251467,18.1883754 33.2740989,21.0889356 33.2740989,21.1953782 L33.2740989,21.4348739 C33.2740989,21.4880952 33.3143336,21.5546218 33.300922,21.5679272 L33.300922,21.7408964 L32.1743504,21.7408964 C32.1102492,21.7432124 32.0488773,21.7150637 32.0091311,21.6651173 C31.9693849,21.6151708 31.9560294,21.5494147 31.9731769,21.4880952 L32.7376362,18.5077031 C32.7912825,18.2815126 32.6974015,18.0952381 32.3755239,18.0952381 L32.1475272,18.0952381 C31.8256496,18.1351541 31.6647108,18.2016807 31.503772,18.8004202 L30.8600168,21.2086835 C30.8517141,21.2705018 30.8517141,21.3331396 30.8600168,21.394958 C30.8807392,21.4684598 30.9355334,21.5277617 31.007544,21.5546218 L31.007544,21.727591 L29.8943839,21.727591 C29.8302828,21.729907 29.7689109,21.7017583 29.7291646,21.6518119 C29.6894184,21.6018655 29.6760629,21.5361094 29.6932104,21.4747899 L30.4576697,18.4943978 C30.511316,18.2682073 30.417435,18.0819328 30.0955574,18.0819328 L29.8675608,18.0819328 C29.5456832,18.1218487 29.3713328,18.1883754 29.2372171,18.7871148 L28.5934619,21.1953782 L28.5934619,21.3816527 C28.5934619,21.4348739 28.6336966,21.5413165 28.7409891,21.5413165 L28.7409891,21.7142857 L27.6144174,21.7142857 C27.5503163,21.7166017 27.4889444,21.688453 27.4491982,21.6385066 C27.4094519,21.5885602 27.3960965,21.5228041 27.4132439,21.4614846 L28.3922883,17.6960784 C28.3976665,17.6429909 28.3976665,17.5895021 28.3922883,17.5364146 C28.3893426,17.4417863 28.3237603,17.360458 28.2313495,17.3368347 L28.2313495,17.1771709 L29.4046828,17.1776074 C29.4506745,17.1837756 29.4933606,17.2067437 29.5237793,17.2429569 C29.5643375,17.2912412 29.5776171,17.3565608 29.5590947,17.4166667 L29.4518022,17.8291317 L29.7200335,17.4831933 C29.8659677,17.2454983 30.1391716,17.1151908 30.417435,17.1505602 Z M26.139145,17.1239496 C26.2020778,17.116714 26.2644449,17.1414513 26.3050031,17.1897356 C26.3455613,17.2380199 26.3588409,17.3033395 26.3403185,17.3634454 L26.233026,17.7759104 L26.5683152,17.3368347 C26.7024308,17.1239496 26.729254,17.1239496 27.0108969,17.1239496 L27.8826488,17.1239496 L27.7351215,17.7226891 C27.6680637,18.0420168 27.5473596,18.0420168 27.2120704,18.0420168 L26.7694887,18.0420168 C26.2732607,18.0420168 26.1257334,18.17507 25.9916178,18.7205882 L25.2942163,21.1421569 C25.2859136,21.2039752 25.2859136,21.266613 25.2942163,21.3284314 C25.3149387,21.4019332 25.3697329,21.4612351 25.4417435,21.4880952 L25.4417435,21.6610644 L24.3285834,21.6610644 C24.2644823,21.6633804 24.2031104,21.6352317 24.1633641,21.5852853 C24.1236179,21.5353389 24.1102624,21.4695828 24.1274099,21.4082633 L25.1064543,17.6428571 C25.1259654,17.5822742 25.1259654,17.5171656 25.1064543,17.4565826 C25.10111,17.3756223 25.0397621,17.3092275 24.9589271,17.2969188 L24.9589271,17.1239496 Z M13.8139145,18.1617647 L13.4115675,19.7051821 L12.5934619,19.7051821 L12.9823973,18.1617647 L13.8139145,18.1617647 Z M12.5398156,18.1617647 L12.1508801,19.7051821 L8.58340319,19.7051821 L7.30930427,18.5077031 L7.30930427,18.1617647 L12.5398156,18.1617647 Z M22.4241408,17.9754902 C21.8340319,17.9754902 21.6060352,18.2016807 21.4048617,18.9201681 L22.9606035,18.9201681 L22.9606035,18.960084 C23.0183355,18.7974521 23.0500136,18.6268472 23.0544845,18.4544818 C23.0544845,18.1351541 23.0142498,17.9754902 22.4241408,17.9754902 Z M36.9354568,17.9754902 C36.3453479,17.9754902 36.1173512,18.2016807 35.9161777,18.9201681 L37.4853311,18.9201681 L37.4853311,18.960084 C37.5329449,18.7954598 37.5599709,18.6256512 37.5658005,18.4544818 C37.5658005,18.1351541 37.5255658,17.9754902 36.9354568,17.9754902 Z M14.3369656,16.0994398 L13.9346186,17.6694678 L13.1031014,17.6694678 L13.5054484,16.0994398 L14.3369656,16.0994398 Z M13.0628667,16.0994398 L12.6605197,17.6694678 L6.41072925,17.6694678 L5.19027661,16.5252101 L5.19027661,16.0994398 L13.0628667,16.0994398 Z M42.6219614,5.25560224 L42.6219614,12.227591 L5.29756915,12.2142857 L5.29756915,5.25560224 L42.6219614,5.25560224 Z" id="Combined-Shape"></path>
            </g>
        </g>
    </g>
</svg>