<svg height="48" viewBox="0 0 48 48" width="48" xmlns="http://www.w3.org/2000/svg"><g fill="none" fill-rule="nonzero"><g><path d="m2 2h44v14h-44z" fill="#fff"/><path d="m38.8343086 11.1014476c.411651 0 .8121538-.2085344 1.2019604-.6260573.389882-.4163119.6700908-.9932444.8401746-1.73117608.170159-.73702338.1639824-1.44876526-.018756-2.13401458-.2661984-.99771028-.7396158-1.49683036-1.4192728-1.49683036-.4119522 0-.8111744.21209198-1.198872.63703284-.3877728.42441102-.6655714.9943041-.8321148 1.7090737-.1733228.75942852-.1686526 1.48123758.014387 2.16694106.2624322.98348002.7329872 1.47503072 1.4124936 1.47503072m-5.4444878-1.15560598c-.3306766 1.08596838-.941336 1.95288108-1.8317524 2.60043518-.8907176.6470244-1.8848564.9709907-2.9828682.9709907-.6383036 0-1.261467-.1124799-1.870394-.3349418-1.8477212-.6846438-3.0291178-1.9939067-3.545169-3.92847008-.2776478-1.04183934-.2575362-2.06097076.0617664-3.05837828.3297726-1.08566562.9407334-1.95272968 1.8308484-2.599754.8907176-.64679724 1.8849316-.97174756 2.9829436-.97174756.6383036 0 1.2637268.11929226 1.8770226.35772542 1.843503.66973224 3.0232424 1.97127448 3.5390678 3.90591352.278175 1.04214212.25731 2.06104646-.0614652 3.0582269m-10.7846506-.03883054c-.3301494 1.08649822-.9405828 1.95341092-1.8313004 2.60066232-.890567.6478569-1.8848564.9703094-2.9830943.9703094-.6378517 0-1.261693-.1111931-1.869942-.3341092-1.0775235-.3989782-1.6539854-.8778882-2.4339-1.6691078-.2707932.2211752-1.1253549.9262561-2.829356 1.5808497-.0674159.0264169-.3369286.1140694-.3925937.1267102-.59657368.165465-1.11473406.2033115-1.74188964.1822689-.63913226-.0214969-1.2244825-.1117987-1.81450288-.3346391-1.84146922-.6693537-3.0176684-1.9634024-3.52920018-3.88267572-.27395688-1.02609518-.26092566-2.03796008.03947026-3.0352162.33798308-1.05569118.94683472-1.90754092 1.82678086-2.55509508.88077472-.64664586 1.86866152-.97076356 2.96592016-.97076356 1.34394788 0 3.05728932.3045889 4.26949382 1.60204372l.2945959.34569022s-.2353151.37278834-.3217882.5468067c-.0710314.14336266-.2039046.4658908-.3212609.79515564-.1173563.32918914-.2536191 1.02511118-.2536191 1.02511118l-.239684-.38769988c-.9743284-1.25983536-1.4256002-1.3872268-2.23443956-1.47419812-.0836107-.00272496-.24571-.00650962-.3335389-.00083264-.35756758.02376762-.85064474.20104078-1.2757788.60266818-.4660355.44727032-.7630418 1.0282146-.89147086 1.74275712-.11133028.58109566-.0911432 1.15409216.0594314 1.71989782.1068861.40140032.27704518.77418866.51085386 1.11647272.34476232.4134355.7609327.6341565 1.27171124.6841139.97018544.0940865 1.90737852-.4366733 2.79854812-1.46322262.1799513-.22859306.2444295-.34152712.2444295-.34152712.2690607-.446362.4360561-.96198316.5631293-1.64594568.0119767-.06388496.006252-.12141168.0277196-.18582648.0616912-.3852777.1401044-.74466836.2569335-1.11019018.3302999-1.0860441.940884-1.95265398 1.830999-2.59998108.8907929-.6471757 1.885685-.9712934 2.9833956-.9712934.6378517 0 1.2635008.11936796 1.876194.35757404 1.8441055.6689753 3.0239203 1.97135018 3.5396703 3.90561074.278175 1.04206642.257536 2.0617277-.061917 3.05762136m22.3129846-9.90701108h-41.83630952c-1.70211805 0-3.08184528 1.38639417-3.08184528 3.09675466v9.80656634c0 1.7101334 1.37972723 3.096679 3.08184528 3.096679h30.68866792c-.0075326-1.152654-.0378886-6.30273442.031561-7.51503454-.0772834-.73596366-.0045948-1.46049768.2240918-2.17428328.3302246-1.08649824.9403568-1.95303244 1.8310744-2.60051092.890341-.64694862 1.8844798-.97099064 2.9833202-.97099064.6375504 0 1.2631996.11921658 1.8758928.35719558 1.8438796.66988362 3.023845 1.97188002 3.5396702 3.90621628.2778738 1.04191504.2570842 2.06104646-.0613898 3.05799982-.3307518 1.085817-.941336 1.952654-1.8320536 2.6004352-.890567.6473271-1.8846304.9704608-2.9828682.9704608-.6380778 0-1.2615424-.1116473-1.8704694-.3341092-.1382966-.0515469-.2718478-.1077112-.4029884-.1657678l.0122026 2.8683887h7.799598c1.7020426 0 3.0818452-1.3865456 3.0818452-3.096679v-9.80656634c0-1.71036049-1.3798026-3.09675466-3.0818452-3.09675466m-26.9911164 4.98143628c-.4118016 0-.8117771.21231904-1.198872.63763838-.3885262.42433532-.6657973.99384994-.8331694 1.70869524-.1730967.75920144-.1678993 1.48222158.0149144 2.16678966.2619048.98302584.7327611 1.47480364 1.4127195 1.47480364.411199 0 .8121537-.2086857 1.2019603-.6253004.3900327-.41714446.6697896-.99460684.8397227-1.7317059.170385-.73725046.1644343-1.44876526-.0186806-2.1337875-.2657465-.99786166-.7394651-1.49713312-1.4185949-1.49713312m10.7841986.03837638c-.4118014 0-.8112498.2129246-1.1993992.6373356-.3877728.4245624-.6648934.99392564-.8321902 1.70937648-.1733226.75882298-.16805 1.48123758.0144624 2.16663828.261905.98325288.7332132 1.47450088 1.4127196 1.47450088.411425 0 .8119278-.2083073 1.2022616-.6252247.3898068-.4169174.6697896-.994077.8394214-1.73170592.170385-.73709906.1644344-1.44868956-.01853-2.13416596-.2661984-.9975589-.7396158-1.49675466-1.4187456-1.49675466" fill="#c02233"/></g><g transform="translate(0 18)"><path d="m42.8955816 0c3.7213154 0 5.1044184 2.26548468 5.1044184 4.40071512 0 7.66720498-22.477181 20.53444608-28.2286793 23.69737508-1.7262735.9491012-3.8422491 1.9019098-5.3739139 1.9019098-8.04826842 0-14.3974068-14.4043402-14.3974068-21.80930646 0-5.15183972 1.94511736-8.19069354 6.54568588-8.19069354z" fill="#98c766"/><path d="m13.3191827 23.9895204c-3.92973814-2.3272752-10.23501082-7.9168384-11.1069934-16.02473272-.37540329-3.49165416.70427498-6.28334623 4.33349658-6.28334623h36.34989572c3.007104 0 3.45594 1.70343885 3.45594 2.71927367 0 1.21628302-1.09737 4.83596698-11.260887 12.16480748-3.7007154 2.6686055-9.0479706 5.986505-13.5845582 8.2104664-2.2473303 1.1016-4.477696 1.4100578-8.1868937-.7864686" fill="#dc3e37"/><g fill="#fffffe" transform="translate(.755775 1.394734)"><path d="m11.6384714 23.7900608c-3.70192723-2.443194-10.06051735-7.896571-11.0529489-16.96913773-.16673819-1.52053914-.01381407-3.07024338.42969014-4.3633937.29300361-.85344956.82399689-1.79958478 1.78128739-2.45752937-1.89446578.97208719-2.79650003 3.09965561-2.79650003 6.50035427 0 6.82636063 6.17609905 20.00650853 13.6417532 20.00650853.5995789 0 1.4894956-.246173 2.5720821-.6680782-1.3835878-.2617442-2.8922291-.9384732-4.5753639-2.0487238"/><path d="m16.6157034 3.09520671h-2.9593606l-1.7660192 4.6819852-.0109059-4.6819852h-2.95936055l-3.10186358 9.81850089h2.88835146l1.16110858-4.41851079.17134289 4.41851079h1.7778944l1.8275767-4.41851079-.4946405 4.41851079h2.8878667z"/><path d="m24.027313 3.44662129c-1.910461-1.16091878-4.649766-.0652507-6.1179345 2.44739574-1.4693803 2.51264644-1.110457 5.49119277.8000041 6.65211157 1.9102186 1.1621546 4.6485542.0662394 6.1179346-2.4469014 1.4686532-2.51264643 1.1099722-5.49069847-.8000042-6.65260591m-1.0949464 4.55519122c-.2016368 1.07490648-1.0530196 1.94689318-1.9027058 1.94689318-.8487168 0-1.374136-.8719867-1.1720144-1.94689318.2011522-1.07515364 1.0527772-1.94639884 1.9019788-1.94639884.8487168 0 1.3743782.8712452 1.1727414 1.94639884"/><path d="m25.4232122 12.9136087h3.26739l2.2550856-2.99115161h-1.9994042l1.2788918-6.82734924h-2.9625112z"/></g></g></g></svg>