<?xml version="1.0" encoding="UTF-8"?>
<svg width="144px" height="48px" viewBox="0 0 144 48" version="1.1" xmlns="http://www.w3.org/2000/svg" xmlns:xlink="http://www.w3.org/1999/xlink">
    <title>icon-kvikk-dhl</title>
    <g id="Dashboard" stroke="none" stroke-width="1" fill="none" fill-rule="evenodd">
        <g id="Artboard" transform="translate(-349, -717)" fill-rule="nonzero">
            <g id="icon-kvikk-dhl" transform="translate(349, 717)">
                <polygon id="Path" fill="#35C287" points="48 36 24 48 15 43.5 15 19.5 24 15 30 18 30 9 12 9 18 12 9 16.5 9 40.5 0 36 0 12 24 0 48 12 48 21 30 30 30 36 48 27"></polygon>
                <polygon id="Path" fill="#9FA9B5" points="60 21 79 21 79 27 60 27"></polygon>
                <polygon id="Path" fill="#9FA9B5" points="84 24 72 12 72 36.0894508"></polygon>
                <g id="icon-gls-locker" transform="translate(104, 0)">
                    <path d="M30.2125652,7.35704361 C31.1994382,7.35704361 32,8.16946591 32,9.17183044 C32,10.174195 31.1994382,10.9866173 30.2125652,10.9866173 C29.2253081,10.9866173 28.4251304,10.174195 28.4251304,9.17183044 C28.4251304,8.16946591 29.2253081,7.35704361 30.2125652,7.35704361" id="Path" fill="#FBC808"></path>
                    <path d="M15.9998656,15.969578 C24.7115838,15.969578 31.7737376,23.1397996 31.7737376,31.98475 C31.7737376,40.8297784 24.7115838,48 15.9998656,48 C7.28830093,48 0.22599353,40.8297784 0.22599353,31.98475 C0.22599353,23.1397996 7.28830093,15.969578 15.9998656,15.969578 Z M15.9998655,21.1662726 C12.3906916,21.1662726 9.46472273,24.1367038 9.46472273,27.8013797 C9.46472273,30.6906467 11.2841569,33.1470248 13.8226755,34.0578115 L11.2462033,39.4818906 C10.9239041,40.1604953 11.4108101,40.947527 12.1528664,40.947527 L19.9656045,40.947527 C20.7074687,40.947527 21.1944131,40.1604953 20.8720755,39.4818906 L18.2782015,34.0215391 C20.7638998,33.0822807 22.5350084,30.6521122 22.5350084,27.8013797 C22.5350084,24.1367038 19.6091931,21.1662726 15.9998655,21.1662726 Z M6.23969557,0 C6.70831618,0 7.25034724,0.04446286 7.86540459,0.14859957 C8.46594119,0.25273627 8.93471546,0.35687298 9.24234017,0.49065159 L9.24234017,3.33120444 C8.1730293,2.98915243 7.17709045,2.79569997 6.41540429,2.79569997 C4.49662971,2.79569997 3.52996285,3.76257221 3.52996285,5.65107379 C3.52996285,7.36133388 4.26237703,8.20885844 5.72693649,8.20885844 C6.16182902,8.20885844 6.80270104,7.96782293 7.08693121,7.51500378 L5.1411127,7.51500378 L5.1411127,5.14053092 L10.3605529,5.14053092 L10.3605529,10.8559589 L8.1905848,10.8559589 L8.20018847,9.24047486 C7.75603801,10.2440095 6.37775791,11.0345904 4.8774728,11.0345904 C3.38348769,11.0345904 2.19701206,10.5587597 1.31827638,9.60670843 C0.43938705,8.67025815 -1.77635684e-15,7.3909758 -1.77635684e-15,5.77003145 C-1.77635684e-15,4.00048753 0.57126462,2.60224752 1.69911946,1.56166053 C2.82693589,0.52068352 4.33548016,0 6.23969557,0 L6.23969557,0 Z M23.7938573,0 C24.7311753,0 26.1663475,0.19345245 27.0452753,0.41654681 L27.0452753,3.19742584 C26.5912138,3.07846818 26.0491828,2.95951052 25.3903711,2.85537382 C24.7311753,2.75123711 24.2183394,2.70677425 23.83765,2.70677425 C23.1200639,2.70677425 22.7097951,2.91465763 22.7097951,3.28674159 C22.7097951,3.50983595 22.9003319,3.65843551 23.2956189,3.76257222 L24.6578033,4.08941326 C26.6499883,4.56563392 27.5727088,5.60661093 27.5727088,7.37615484 C27.5727088,8.5064476 27.1624401,9.39843503 26.3568843,10.0528972 C25.5513286,10.7073593 24.4380713,11.0345904 23.0174967,11.0345904 C21.6697947,11.0345904 20.3077256,10.8411379 19.5460394,10.5884016 L19.5460394,7.673744 C20.0440856,7.83716452 20.6299094,7.97094313 21.2891052,8.08990079 C21.9481474,8.20885844 22.5192584,8.26853229 23.0028991,8.26853229 C23.8230524,8.26853229 24.2479187,8.06025888 24.2479187,7.68856495 C24.2479187,7.45064964 24.1157722,7.33130195 23.5153509,7.19791337 L22.3437033,6.92996612 C20.3369975,6.46895644 19.3995642,5.44280038 19.3995642,3.70289837 C19.3995642,2.55778466 19.7949665,1.65058625 20.5713655,0.9816932 C21.3476108,0.32723107 22.4316729,0 23.7938573,0 L23.7938573,0 Z M14.8000216,0.1786315 L14.8000216,8.07507984 L18.4764212,8.07507984 L18.4764212,10.8559589 L11.4310931,10.8559589 L11.4310931,0.1786315 L14.8000216,0.1786315 Z" id="Shape" fill="#061AB1"></path>
                </g>
            </g>
        </g>
    </g>
</svg>