<svg height="48" viewBox="0 0 48 48" width="48" xmlns="http://www.w3.org/2000/svg"><g fill="none" transform="translate(0 9)"><path d="m42.8955816 0c3.7213154 0 5.1044184 2.26548468 5.1044184 4.40071512 0 7.66720498-22.477181 20.53444608-28.2286793 23.69737508-1.7262735.9491012-3.8422491 1.9019098-5.3739139 1.9019098-8.04826842 0-14.3974068-14.4043402-14.3974068-21.80930646 0-5.15183972 1.94511736-8.19069354 6.54568588-8.19069354z" fill="#98c766"/><path d="m13.3191827 23.9895204c-3.92973814-2.3272752-10.23501082-7.9168384-11.1069934-16.02473272-.37540329-3.49165416.70427498-6.28334623 4.33349658-6.28334623h36.34989572c3.007104 0 3.45594 1.70343885 3.45594 2.71927367 0 1.21628302-1.09737 4.83596698-11.260887 12.16480748-3.7007154 2.6686055-9.0479706 5.986505-13.5845582 8.2104664-2.2473303 1.1016-4.477696 1.4100578-8.1868937-.7864686" fill="#dc3e37"/><g fill="#fffffe"><path d="m12.3942462 25.1847946c-3.70192724-2.443194-10.06051736-7.896571-11.05294891-16.96913772-.16673819-1.52053914-.01381407-3.07024338.42969014-4.3633937.29300361-.85344956.82399689-1.79958478 1.78128739-2.45752937-1.89446578.97208719-2.79650003 3.09965561-2.79650003 6.50035427 0 6.82636062 6.17609905 20.00650852 13.64175321 20.00650852.5995789 0 1.4894956-.246173 2.5720821-.6680782-1.3835878-.2617442-2.8922291-.9384732-4.5753639-2.0487238"/><path d="m17.3714782 4.48994052h-2.9593606l-1.7660192 4.6819852-.0109059-4.6819852h-2.95936056l-3.10186358 9.81850088h2.88835146l1.16110858-4.41851078.1713429 4.41851078h1.7778944l1.8275767-4.41851078-.4946405 4.41851078h2.8878667z"/><path d="m24.7830878 4.8413551c-1.910461-1.16091878-4.649766-.0652507-6.1179345 2.44739574-1.4693803 2.51264644-1.110457 5.49119276.8000041 6.65211156 1.9102186 1.1621546 4.6485542.0662394 6.1179346-2.4469014 1.4686532-2.51264642 1.1099722-5.49069846-.8000042-6.6526059m-1.0949464 4.55519122c-.2016368 1.07490648-1.0530196 1.94689318-1.9027058 1.94689318-.8487168 0-1.374136-.8719867-1.1720144-1.94689318.2011522-1.07515364 1.0527772-1.94639884 1.9019788-1.94639884.8487168 0 1.3743782.8712452 1.1727414 1.94639884"/><path d="m26.178987 14.3083425h3.26739l2.2550856-2.9911516h-1.9994042l1.2788918-6.82734924h-2.9625112z"/></g></g></svg>