<?xml version="1.0" encoding="UTF-8"?>
<svg width="48px" height="48px" viewBox="0 0 48 48" version="1.1" xmlns="http://www.w3.org/2000/svg" xmlns:xlink="http://www.w3.org/1999/xlink">
    <title>Artboard</title>
    <g id="Artboard" stroke="none" stroke-width="1" fill="none" fill-rule="evenodd">
        <path d="M23.5010395,10 C30.7359667,10 36.6735967,15.6810256 37.2224532,22.934478 C36.2744283,24.4054578 35.1767152,25.7242674 33.97921,26.8401831 C32.4823285,28.2097161 30.8856549,29.2749084 29.1891892,30.03576 C30.7359667,28.5140567 31.7338877,26.3836721 31.7338877,23.9996703 C31.7338877,19.3331135 27.991684,15.5795787 23.4511435,15.5795787 C18.8607069,15.5795787 15.1683992,19.383837 15.1683992,23.9996703 C15.1683992,28.6662271 18.9106029,32.4197618 23.4511435,32.4197618 C31.8336798,32.4197618 38.968815,25.4199267 41.6133056,15.6303022 L36.5239085,15.6303022 C36.024948,15.6303022 35.5758836,15.2245146 35.5758836,14.6665568 L35.5758836,11.3188095 C35.5758836,10.8115751 35.975052,10.3550641 36.5239085,10.3550641 L47.0519751,10.3550641 C47.5509356,10.3550641 48,10.7608516 48,11.3188095 L48,11.4202564 C46.3534304,26.485119 36.024948,38.1007875 23.5010395,37.9993406 C15.9168399,37.9993406 9.72972973,31.7096336 9.72972973,23.9996703 C9.72972973,16.2897069 15.9168399,10 23.5010395,10 Z M4.54054054,10.3550641 L4.65380026,10.3621058 C5.09884486,10.4177931 5.4425076,10.7959679 5.48856549,11.2173626 L5.57770591,11.8485529 C6.11657812,15.4089351 7.22661123,18.6877986 8.78170478,21.5142216 C8.63201663,22.3765201 8.58212058,23.2388186 8.58212058,24.1011172 C8.58212058,27.2459706 9.48024948,30.1879303 11.2266112,32.6733791 C5.23908524,28.1589926 0.997920998,20.3983058 0,11.369533 L0,11.3188095 C0,10.8115751 0.399168399,10.3550641 0.948024948,10.3550641 L4.54054054,10.3550641 Z" id="Combined-Shape" fill="#000000"></path>
    </g>
</svg>