<svg height="48" viewBox="0 0 48 48" width="48" xmlns="http://www.w3.org/2000/svg" xmlns:xlink="http://www.w3.org/1999/xlink"><linearGradient id="a" x1="13.528206%" x2="50.816381%" y1="84.862397%" y2="48.403969%"><stop offset="0" stop-color="#a90034"/><stop offset=".2717" stop-color="#b03"/><stop offset=".7226" stop-color="#d30032"/><stop offset="1" stop-color="#dc0032"/></linearGradient><path d="m28.6171152 21.4218649c-.1939668.1131267-.4981026.104254-.6873865-.0128161l-1.1145077-.6624937c-.0906985-.0561937-.1740031-.1461528-.2368513-.2543503-.003697-.0061615-.0073939-.0125696-.0110909-.0189776-.0712279-.1160843-.1116479-.2385766-.1158378-.350964l-.0283433-1.2993551c-.0083797-.2188596.1360478-.4857795.3307539-.5993991l13.3982449-7.8054968-18.8014626-10.24720987c-.2070293-.11485196-.4801107-.17030623-.7534387-.17080233-.2735744-.00048975-.5471488.0564433-.7544245.17080233l-18.80170905 10.24745637 21.06276455 12.2615555c.195199.1067187.34357.3600831.34357.5888012v17.8873297c0 .2245281-.1606942.4825754-.357372.5875688l-1.1334853.6294676c-.094149.050032-.2139303.0768966-.3391337.0768966-.0071474 0-.0145413 0-.0216888 0-.1360478.003204-.2624835-.0236605-.3615618-.0768966l-1.1371823-.6297141c-.1932273-.1027752-.3512103-.3620548-.3512103-.5873223l.0002464-15.9456909c-.010105-.1168236-.0956278-.2592795-.1892839-.3130085l-18.5567245-10.8022456v21.1583923c0 .4734563.33371162 1.0575746.74284091 1.2968906l19.11151359 11.2712655c.2043181.1197812.4734562.1794253.7423478.1784515.2691381-.0007514.5382761-.0569451.7421014-.1782051l19.1144711-11.2715119c.4076505-.2417806.7406226-.8226949.7401302-1.2968906v-21.1581458z" fill="url(#a)" transform="translate(3)"/></svg>