<?xml version="1.0" encoding="UTF-8"?>
<svg width="48px" height="48px" viewBox="0 0 48 48" version="1.1" xmlns="http://www.w3.org/2000/svg" xmlns:xlink="http://www.w3.org/1999/xlink">
    <title>Artboard</title>
    <defs>
        <linearGradient x1="0.673332069%" y1="75.7%" x2="97.5365872%" y2="23.8%" id="linearGradient-1">
            <stop stop-color="#F37021" offset="0%"></stop>
            <stop stop-color="#F47421" offset="16.8%"></stop>
            <stop stop-color="#F58022" offset="38.7%"></stop>
            <stop stop-color="#F79323" offset="63.6%"></stop>
            <stop stop-color="#FBAD26" offset="90.3%"></stop>
            <stop stop-color="#FDB927" offset="100%"></stop>
        </linearGradient>
    </defs>
    <g id="Artboard" stroke="none" stroke-width="1" fill="none" fill-rule="evenodd">
        <path d="M23.344742,0.166975373 L4.5382398,10.5765993 L25.6186966,22.5613933 C25.8243268,22.6863744 25.9531712,22.906975 25.9612858,23.1479566 L25.9612858,41.1499003 C25.9524354,41.3922312 25.8210426,41.613333 25.6127125,41.7364636 L24.4847114,42.3635313 C24.38054,42.4168511 24.2650585,42.4441287 24.1481063,42.4430399 L24.1256659,42.4430399 C24.0017131,42.4493476 23.8781873,42.424058 23.7666204,42.3695319 L22.6386193,41.7379637 C22.4335877,41.6123924 22.3049509,41.3921473 22.2960301,41.1514004 L22.2960301,25.0996673 C22.2802634,24.9746826 22.2129768,24.8620465 22.1105232,24.7891338 L3.51645625,14.2114917 L3.5,35.2512634 C3.53038207,35.7785748 3.80778999,36.2603747 4.24801138,36.5504037 L23.3971028,47.8181202 C23.8595878,48.0606266 24.4111924,48.0606266 24.8736773,47.8181202 L43.7639568,36.5339019 C44.198383,36.2380175 44.4705095,35.7560414 44.5,35.2302611 L44.5,13.9864674 L31.9244326,21.568286 C31.8230015,21.6236652 31.7093025,21.6525555 31.5938116,21.6522951 L31.5938116,21.6522951 C31.4693906,21.6548012 31.3468619,21.6214811 31.2407502,21.5562848 L30.1456615,20.8737111 C29.9476103,20.7368393 29.8251773,20.514628 29.8150405,20.2736463 L29.8150405,18.9700055 C29.8268096,18.7301 29.9547232,18.511093 30.1576297,18.3834422 L30.1695979,18.3834422 C30.2119553,18.3238632 30.2652714,18.2729455 30.3266803,18.233426 L43.2597971,10.4325837 L24.8587171,0.175976345 C24.6271192,0.0579044595 24.3705019,-0.00231012588 24.1107057,0 C23.8512376,-0.00581064756 23.5942572,0.0524276054 23.3626943,0.169975697" id="Path" fill="url(#linearGradient-1)" fill-rule="nonzero"></path>
    </g>
</svg>