<?xml version="1.0" encoding="UTF-8"?>
<svg width="144px" height="48px" viewBox="0 0 144 48" version="1.1" xmlns="http://www.w3.org/2000/svg" xmlns:xlink="http://www.w3.org/1999/xlink">
    <title>icon-kvikk-dhl</title>
    <g id="Dashboard" stroke="none" stroke-width="1" fill="none" fill-rule="evenodd">
        <g id="Artboard" transform="translate(-349, -612)" fill-rule="nonzero">
            <g id="icon-kvikk-dhl" transform="translate(349, 612)">
                <polygon id="Path" fill="#35C287" points="48 36 24 48 15 43.5 15 19.5 24 15 30 18 30 9 12 9 18 12 9 16.5 9 40.5 0 36 0 12 24 0 48 12 48 21 30 30 30 36 48 27"></polygon>
                <polygon id="Path" fill="#9FA9B5" points="60 21 79 21 79 27 60 27"></polygon>
                <polygon id="Path" fill="#9FA9B5" points="84 24 72 12 72 36.0894508"></polygon>
                <g id="icon-dhl" transform="translate(96, 0)">
                    <rect id="Rectangle" fill="#FFCC00" x="0" y="0" width="48" height="48"></rect>
                    <path d="M10.19,26.31 L0.01,26.31 L0.01,28.31 L8.73,28.31 L10.19,26.31 Z M0.01,31.99 L6.02,31.99 L7.48,30.01 L0.01,30.01 L0.01,31.99 Z M12.91,22.61 L0.01,22.61 L0.01,24.6 L11.46,24.6 L12.91,22.61 Z M30.1,21.94 C29.61,22.61 28.78,23.77 28.28,24.45 C28.03,24.79 27.56,25.43 29.09,25.43 L36.85,25.43 C36.85,25.43 38.15,23.66 39.23,22.19 C40.71,20.18 39.36,16 34.06,16 L13.24,16 L9.63,20.91 L29.62,20.91 C30.61,20.9 30.59,21.29 30.1,21.94 Z M41.08,22.61 L39.63,24.59 L48,24.59 L48,22.61 L41.08,22.61 Z M35.59,27.13 L26.64,27.13 L23.24,27.13 C21.71,27.13 22.17,26.5 22.43,26.16 C22.93,25.48 23.78,24.32 24.28,23.65 C24.77,22.99 25.07,22.62 24.07,22.62 L15.06,22.62 L8.16,31.99 L25.86,31.99 C31.11,31.99 34.27,28.79 35.59,27.13 Z M36.9,28.29 L47.99,28.29 L47.99,26.3 L38.36,26.3 L36.9,28.29 Z M34.18,31.99 L47.99,31.99 L47.99,30 L35.64,30 L34.18,31.99 Z" id="Shape" fill="#D40511"></path>
                </g>
            </g>
        </g>
    </g>
</svg>