<svg height="48" viewBox="0 0 48 48" width="48" xmlns="http://www.w3.org/2000/svg"><g fill="none" transform="translate(6)"><path d="m5.90307024 15.079483.6235332-7.46630644 3.92444946 4.44883804c-1.67288218.7687348-3.20157532 1.786019-4.54798266 3.0174684m23.58624016-7.46532404.6341424 7.60875574c-1.357981-1.2663249-2.904517-2.3209407-4.5966886-3.1162006zm-7.589455 23.93147704c3.2271338-3.285666 8.3190804-4.0632426 14.0316668-2.7296228l.0684778-.0731894c0-.0751542-.0110914-.14687-.0110914-.2215332-.038579-3.2105118-.8921396-6.2181562-2.350426-8.8298897l-1.6425012-19.6914009-9.6688636 10.9631904c-1.3893264-.3497375-2.8316991-.5545698-4.3266356-.5545698-1.4944542 0-2.939238.1974642-4.3290467.5354128l-9.65053854-10.9440334-1.62899856 19.4909895c-1.47130686 2.6161545-2.33644108 5.6670249-2.37936022 8.9949345-.00144672.0854694-.01253818.1704478-.01253818.2568998l.04195467.0427348c5.66002251-1.2913764 10.69892303-.5029932 13.90194503 2.7600774 3.2271339 3.2866484 3.9866581 8.4727842 2.6769008 14.2901176l1.3791995 1.4210542 1.2514065-1.2879378c-1.3526764-5.8718572-.602797-11.1100606 2.6484489-14.423234" fill="#b72328"/><g fill="#151819"><path d="m14.4989552 33.3547416c0 .9303412-.7416814 1.6853222-1.6564861 1.6853222-.9119113 0-1.6531105-.754981-1.6531105-1.6853222 0-.9318146.740717-1.6853222 1.6531105-1.6853222.9148047 0 1.6564861.7535076 1.6564861 1.6853222"/><path d="m24.7079248 33.3547416c0 .9303412-.7411992 1.6853222-1.6564862 1.6853222-.9109468 0-1.6531104-.754981-1.6531104-1.6853222 0-.9318146.7421636-1.6853222 1.6531104-1.6853222.915287 0 1.6564862.7535076 1.6564862 1.6853222"/><path d="m19.5759524 46.3141866c0 .9308322-.7402347 1.6858134-1.6531104 1.6858134-.9143225 0-1.6545572-.7549812-1.6545572-1.6858134 0-.9313234.740717-1.6853226 1.6545572-1.6853226.9128757-.0004908 1.6531104.753508 1.6531104 1.6853226"/></g></g></svg>