<svg height="48" viewBox="0 0 48 48" width="48" xmlns="http://www.w3.org/2000/svg"><g fill="#ba1b02" transform="translate(2)"><path d="m23.1127503 19.2513785-1.1127503.5371392-1.1127503-.5371392-15.55532135-7.7612715 7.37197045-2.84138822 15.9571479 7.82354852zm15.5707762-7.7690561-5.5637513 2.7324035-16.1426063-7.2474862 5.0228311-1.95394097z"/><path d="m22.6027397 0 20.408149 7.97145637-2.8668775 2.31981833-18.1440112-7.0995783-18.14401124 7.0995783-2.86687741-2.31981833 20.42360375-7.97145637zm18.0203723 10.9763218 3.376888-1.31560172-2.5423253 21.13525782-.5100105.9419397-17.9121883 16.2620824-.5795574-3.7444048 15.9571479-14.4716186zm-37.57077621 20.7615958-.51001054-.9419397-2.54232525-21.13525782 3.37688795 1.31560172 2.22550053 18.8232241 15.94169302 14.4794032-.5641026 3.7210509z"/><path d="m33.5525114 14.8842037 5.14647-3.1761272-2.0245873 17.0249757-14.56621 13.2338631.8036529-20.5047032 6.3905866-3.9623743-.4250088 10.0499514 3.9796277-2.8180344z"/><path d="m21.088163 21.4622121.8036529 20.489134-14.55075513-13.2182939-2.04776959-17.0249757z"/></g></svg>