<?xml version="1.0" encoding="UTF-8"?>
<svg width="48px" height="48px" viewBox="0 0 48 48" version="1.1" xmlns="http://www.w3.org/2000/svg" xmlns:xlink="http://www.w3.org/1999/xlink">
    <title>Artboard</title>
    <g id="Artboard" stroke="none" stroke-width="1" fill="none" fill-rule="evenodd">
        <g id="Group" transform="translate(0, 8.0969)" fill-rule="nonzero">
            <g transform="translate(0, 0.0517)" fill="#2CCECE" id="Path">
                <path d="M9.28246154,0 L1.032,0 C0.461538462,0 0,0.461538462 0,1.032 L0,9.27507692 C0,9.84553846 0.461538462,10.3089231 1.032,10.3089231 L9.28246154,10.3089231 C9.85292308,10.3089231 10.3144615,9.84553846 10.3144615,9.27507692 L10.3144615,1.032 C10.3144615,0.461538462 9.85292308,0 9.28246154,0 Z"></path>
            </g>
            <g transform="translate(0, 11.4517)" fill="#DBE254" id="Path">
                <path d="M9.28246154,0 L1.032,0 C0.461538462,0 0,0.461538462 0,1.032 L0,9.27507692 C0,9.84553846 0.461538462,10.3089231 1.032,10.3089231 L9.28246154,10.3089231 C9.85292308,10.3089231 10.3144615,9.84553846 10.3144615,9.27507692 L10.3144615,1.032 C10.3144615,0.461538462 9.85292308,0 9.28246154,0 Z"></path>
            </g>
            <g transform="translate(16.3828, 0.0517)" fill="#E4375C" id="Path">
                <path d="M9.28246154,0 L1.032,0 C0.461538462,0 0,0.461538462 0,1.032 L0,9.27507692 C0,9.84553846 0.461538462,10.3089231 1.032,10.3089231 L9.28246154,10.3089231 C9.85292308,10.3089231 10.3144615,9.84553846 10.3144615,9.27507692 L10.3144615,1.032 C10.3144615,0.461538462 9.85292308,0 9.28246154,0 Z"></path>
            </g>
            <g transform="translate(16.3828, 11.4517)" fill="#46C2F9" id="Path">
                <path d="M19.1778462,0 L1.032,0 C0.461538462,0 0,0.461538462 0,1.032 L0,9.27507692 C0,9.84553846 0.461538462,10.3089231 1.032,10.3089231 L19.1778462,10.3089231 C19.7483077,10.3089231 20.2116923,9.84553846 20.2116923,9.27507692 L20.2116923,1.032 C20.2116923,0.461538462 19.7483077,0 19.1778462,0 Z"></path>
            </g>
            <g transform="translate(37.6855, 11.3982)" fill="#B31864" id="Path">
                <path d="M1.032,10.3089231 L9.28246154,10.3089231 C9.85292308,10.3089231 10.3144615,9.84738462 10.3144615,9.27692308 L10.3144615,1.032 C10.3144615,0.461538462 9.85292308,0 9.28246154,0 L1.032,0 C0.461538462,0 0,0.461538462 0,1.032 L0,9.27692308 C0,9.84738462 0.461538462,10.3089231 1.032,10.3089231 Z"></path>
            </g>
            <g transform="translate(27.7902, 0)" fill="#243A82" id="Path">
                <path d="M1.032,10.3089231 L19.1778462,10.3089231 C19.7483077,10.3089231 20.2098462,9.84738462 20.2098462,9.27692308 L20.2098462,1.032 C20.2098462,0.461538462 19.7483077,0 19.1778462,0 L1.032,0 C0.461538462,0 0,0.461538462 0,1.032 L0,9.27692308 C0,9.84738462 0.461538462,10.3089231 1.032,10.3089231 Z"></path>
            </g>
            <g transform="translate(11.4074, 0.0517)" fill="#22DDB9" id="Path">
                <path d="M2.85230769,7.75021073e-16 L1.032,7.75021073e-16 C0.461538462,7.75021073e-16 0,0.461538462 0,1.032 L0,20.6750769 C0,21.2436923 0.461538462,21.7070769 1.032,21.7070769 L2.85230769,21.7070769 C3.42276923,21.7070769 3.88615385,21.2436923 3.88615385,20.6750769 L3.88615385,1.032 C3.88615385,0.461538462 3.42276923,7.75021073e-16 2.85230769,7.75021073e-16 Z"></path>
            </g>
            <g transform="translate(28.8868, 23.3594)" fill="#2CCECE" id="Path">
                <path d="M18.6793846,0 L0.433846154,0 C0.193846154,0 0,0.193846154 0,0.432 L0,1.72246154 C0,1.96061538 0.193846154,2.15446154 0.433846154,2.15446154 L18.6793846,2.15446154 C18.9193846,2.15446154 19.1132308,1.96061538 19.1132308,1.72246154 L19.1132308,0.432 C19.1132308,0.193846154 18.9193846,0 18.6793846,0 Z"></path>
            </g>
            <g transform="translate(0, 23.3594)" fill="#182641" id="Path">
                <path d="M6.58153846,0 L6.58153846,1.18892308 L4.57476923,1.18892308 L4.57476923,3.74769231 L6.58153846,3.74769231 L6.58153846,4.94769231 L4.57476923,4.94769231 L4.57476923,9.11076923 L0.367384615,9.11076923 C0.164307692,9.11076923 0,8.94646154 0,8.74523077 L0,0.465230769 C0,0.208615385 0.208615385,0 0.465230769,0 L6.58153846,0 Z"></path>
            </g>
            <g transform="translate(5.5422, 23.3594)" fill="#182641" id="Shape">
                <path d="M1.37353846,9.11076923 L0,9.11076923 L3.47446154,0 L5.73230769,0 L9.42276923,9.11076923 L4.70584615,9.11076923 L4.35876923,8.38523077 L1.69661538,8.38523077 L1.37353846,9.11076923 Z M3.22523077,4.47138462 L2.256,6.99323077 L3.94153846,6.99323077 L3.22338462,4.47138462 L3.22523077,4.47138462 Z"></path>
            </g>
            <g transform="translate(15.2917, 23.3594)" fill="#182641" id="Path">
                <polygon points="0 0 3.20123077 0 6.97661538 3.55569231 6.97661538 0 8.35015385 0 8.37415385 9.11076923 5.57907692 9.11076923 1.37538462 4.94769231 1.37538462 9.11076923 0.00184615385 9.11076923 0.00184615385 0"></polygon>
            </g>
            <g transform="translate(24.3342, 23.3594)" fill="#182641" id="Shape">
                <path d="M0,0 L3.63138462,0 C3.85846154,0 4.04123077,0.182769231 4.04123077,0.408 L4.04123077,2.86892308 C5.44061538,2.86892308 6.47446154,3.072 7.14461538,3.47815385 C8.00123077,3.99692308 8.43138462,4.89784615 8.43138462,6.17907692 C8.43138462,8.14892308 6.96738462,9.13292308 4.04123077,9.13292308 L0,9.13292308 L0,0 Z M4.68553846,7.944 C4.95323077,7.848 5.08615385,7.71138462 5.08615385,7.53415385 L5.08615385,4.90707692 C5.08615385,4.56369231 4.74461538,4.392 4.06338462,4.392 L4.06338462,8.06030769 C4.25907692,8.06030769 4.46769231,8.02153846 4.68553846,7.944 L4.68553846,7.944 Z"></path>
            </g>
            <g transform="translate(33.2935, 26.2911)" fill="#182641" id="Shape">
                <path d="M6.66092308,0.830769231 C7.53969231,1.45476923 7.97907692,2.24492308 7.97907692,3.20492308 C7.97907692,4.16676923 7.53969231,4.95138462 6.66092308,5.56061538 C5.89292308,6.08492308 4.99938462,6.34892308 3.97846154,6.34892308 C2.95938462,6.34892308 2.08615385,6.08307692 1.32,5.54953846 C0.441230769,4.92738462 0,4.14646154 0,3.20676923 C0,2.26707692 0.433846154,1.45476923 1.29784615,0.830769231 C2.06584615,0.278769231 2.95938462,0 3.97846154,0 C4.99938462,0 5.88553846,0.278769231 6.66092308,0.830769231 L6.66092308,0.830769231 Z M3.51507692,1.104 C3.46523077,1.19446154 3.44123077,1.38646154 3.44123077,1.68184615 L3.44123077,4.76123077 C3.44123077,5.08984615 3.49846154,5.31138462 3.61107692,5.42215385 L3.74769231,5.496 L4.00061538,5.50707692 C4.22584615,5.51446154 4.37723077,5.448 4.45476923,5.30769231 C4.49723077,5.22461538 4.51938462,5.04184615 4.51938462,4.76123077 L4.51938462,1.72430769 C4.51938462,1.42338462 4.50092308,1.22584615 4.46584615,1.13538462 C4.38830769,0.965538462 4.23323077,0.882461538 4.00246154,0.882461538 C3.75507692,0.882461538 3.59446154,0.956307692 3.51692308,1.10215385 L3.51507692,1.104 Z"></path>
            </g>
            <g transform="translate(40.9698, 26.5422)" fill="#182641" id="Path">
                <polygon points="4.04307692 0.00184615385 4.824 1.57846154 5.81538462 0.00184615385 7.03015385 0.00184615385 5.38338462 2.74523077 6.94523077 5.95015385 2.72307692 5.95015385 2.03815385 4.42523077 1.12984615 5.95015385 0 5.95015385 1.51015385 3.28061538 0 0 4.04307692 0"></polygon>
            </g>
        </g>
    </g>
</svg>