<?xml version="1.0" encoding="UTF-8"?>
<svg width="138px" height="48px" viewBox="0 0 138 48" version="1.1" xmlns="http://www.w3.org/2000/svg" xmlns:xlink="http://www.w3.org/1999/xlink">
    <title>icon-kvikk-packeta-zpont</title>
    <g id="Dashboard" stroke="none" stroke-width="1" fill="none" fill-rule="evenodd">
        <g id="Artboard" transform="translate(-349, -507)" fill-rule="nonzero">
            <g id="icon-kvikk-packeta-zpont" transform="translate(349, 507)">
                <polygon id="Path" fill="#35C287" points="48 36 24 48 15 43.5 15 19.5 24 15 30 18 30 9 12 9 18 12 9 16.5 9 40.5 0 36 0 12 24 0 48 12 48 21 30 30 30 36 48 27"></polygon>
                <polygon id="Path" fill="#9FA9B5" points="60 21 79 21 79 27 60 27"></polygon>
                <g id="icon-foxpost" transform="translate(102, 0)">
                    <path d="M5.90307024,15.079483 L6.52660344,7.61317656 L10.4510529,12.0620146 C8.77817072,12.8307494 7.24947758,13.8480336 5.90307024,15.079483 M29.4893104,7.61415896 L30.1234528,15.2229147 C28.7654718,13.9565898 27.2189358,12.901974 25.5267642,12.1067141 L29.4893104,7.61415896 Z M21.8998554,31.545636 C25.1269892,28.25997 30.2189358,27.4823934 35.9315222,28.8160132 L36,28.7428238 C36,28.6676696 35.9889086,28.5959538 35.9889086,28.5212906 C35.9503296,25.3107788 35.096769,22.3031344 33.6384826,19.6914009 L31.9959814,0 L22.3271178,10.9631904 C20.9377914,10.6134529 19.4954187,10.4086206 18.0004822,10.4086206 C16.506028,10.4086206 15.0612442,10.6060848 13.6714355,10.9440334 L4.02089696,0 L2.3918984,19.4909895 C0.92059154,22.107144 0.05545732,25.1580144 0.01253818,28.485924 C0.01109146,28.5713934 0,28.6563718 0,28.7428238 L0.04195467,28.7855586 C5.70197718,27.4941822 10.7408777,28.2825654 13.9438997,31.545636 C17.1710336,34.8322844 17.9305578,40.0184202 16.6208005,45.8357536 L18,47.2568078 L19.2514065,45.96887 C17.8987301,40.0970128 18.6486095,34.8588094 21.8998554,31.545636" id="Shape" fill="#B72328"></path>
                    <g id="Group" transform="translate(11.1894, 31.6694)" fill="#151819">
                        <path d="M3.3095966,1.6853222 C3.3095966,2.6156634 2.5679152,3.3706444 1.6531105,3.3706444 C0.7411992,3.3706444 0,2.6156634 0,1.6853222 C0,0.7535076 0.740717,0 1.6531105,0 C2.5679152,0 3.3095966,0.7535076 3.3095966,1.6853222" id="Path"></path>
                        <path d="M13.5185662,1.6853222 C13.5185662,2.6156634 12.777367,3.3706444 11.86208,3.3706444 C10.9511332,3.3706444 10.2089696,2.6156634 10.2089696,1.6853222 C10.2089696,0.7535076 10.9511332,0 11.86208,0 C12.777367,0 13.5185662,0.7535076 13.5185662,1.6853222" id="Path"></path>
                        <path d="M8.3865938,14.6447672 C8.3865938,15.5755994 7.6463591,16.3305806 6.7334834,16.3305806 C5.8191609,16.3305806 5.0789262,15.5755994 5.0789262,14.6447672 C5.0789262,13.7134438 5.8196432,12.9594444 6.7334834,12.9594444 C7.6463591,12.9589538 8.3865938,13.7129526 8.3865938,14.6447672" id="Path"></path>
                    </g>
                </g>
                <polygon id="Path" fill="#9FA9B5" points="84 24 72 12 72 36.0894508"></polygon>
            </g>
        </g>
    </g>
</svg>