<?xml version="1.0" encoding="UTF-8"?>
<svg width="48px" height="48px" viewBox="0 0 48 48" version="1.1" xmlns="http://www.w3.org/2000/svg" xmlns:xlink="http://www.w3.org/1999/xlink">
    <title>Artboard</title>
    <defs>
        <path d="M41.7777778,0 C44.6619328,0 47,2.38781333 47,5.33333333 L47,42.6666667 C47,45.6121853 44.6619328,48 41.7777778,48 L5.22222222,48 C2.33806853,48 0,45.6121853 0,42.6666667 L0,5.33333333 C0,2.38781333 2.33806853,0 5.22222222,0 L41.7777778,0 Z" id="path-1"></path>
        <linearGradient x1="50.685%" y1="0%" x2="50.685%" y2="1422.222%" id="linearGradient-3">
            <stop stop-color="#FBE800" offset="0%"></stop>
            <stop stop-color="#E4CE0C" offset="100%"></stop>
        </linearGradient>
        <linearGradient x1="50.685%" y1="0%" x2="50.685%" y2="100%" id="linearGradient-4">
            <stop stop-color="#FBE800" offset="0%"></stop>
            <stop stop-color="#E4CE0C" offset="100%"></stop>
        </linearGradient>
        <path d="M12.2183888,0 C18.7314123,0 23,2.13308262 23,8.67569723 C23,15.2227072 18.7314123,17.3513945 12.2183888,17.3513945 L7.36097427,17.3513945 L7.36097427,27 L0,27 L0,0 L12.2183888,0 Z M11.1501609,5.2376039 L7.36097427,5.2376039 L7.36097427,12.1167163 L11.1501609,12.1167163 C14.0568336,12.0055256 15.2747864,10.6580853 15.2747864,8.67569723 C15.2747864,6.69623492 14.0568336,5.3517203 11.1501609,5.2376039 Z" id="path-5"></path>
        <linearGradient x1="53.334%" y1="22.363%" x2="53.334%" y2="1444.585%" id="linearGradient-7">
            <stop stop-color="#0553C4" offset="0%"></stop>
            <stop stop-color="#00479A" offset="100%"></stop>
        </linearGradient>
        <path d="M12.2183888,0 C18.7314123,0 23,2.13308262 23,8.67569723 C23,15.2227072 18.7314123,17.3513945 12.2183888,17.3513945 L7.36097427,17.3513945 L7.36097427,27 L0,27 L0,0 L12.2183888,0 Z M11.1501609,5.2376039 L7.36097427,5.2376039 L7.36097427,12.1167163 L11.1501609,12.1167163 C14.0568336,12.0055256 15.2747864,10.6580853 15.2747864,8.67569723 C15.2747864,6.69623492 14.0568336,5.3517203 11.1501609,5.2376039 Z" id="path-8"></path>
        <linearGradient x1="53.334%" y1="22.363%" x2="53.334%" y2="77.388%" id="linearGradient-10">
            <stop stop-color="#0553C4" offset="0%"></stop>
            <stop stop-color="#00479A" offset="100%"></stop>
        </linearGradient>
    </defs>
    <g id="Artboard" stroke="none" stroke-width="1" fill="none" fill-rule="evenodd">
        <g id="Group">
            <g transform="translate(1, 0)" id="Clipped">
                <mask id="mask-2" fill="white">
                    <use xlink:href="#path-1"></use>
                </mask>
                <g id="a"></g>
                <polygon id="Path" fill="url(#linearGradient-3)" fill-rule="nonzero" mask="url(#mask-2)" points="-0.653 48 47 48 47 0 -0.653 0"></polygon>
            </g>
            <polygon id="Path" fill="url(#linearGradient-4)" fill-rule="nonzero" points="0 48 48 48 48 0 0 0"></polygon>
            <g transform="translate(14, 11)" id="Clipped">
                <g>
                    <mask id="mask-6" fill="white">
                        <use xlink:href="#path-5"></use>
                    </mask>
                    <g id="e"></g>
                    <polygon id="Path" fill="url(#linearGradient-7)" fill-rule="nonzero" mask="url(#mask-6)" points="-14.438 37.857 34.196 37.857 34.196 -10.905 -14.438 -10.905"></polygon>
                </g>
                <g>
                    <mask id="mask-9" fill="white">
                        <use xlink:href="#path-8"></use>
                    </mask>
                    <g id="h"></g>
                    <polygon id="Path" fill="url(#linearGradient-10)" fill-rule="nonzero" mask="url(#mask-9)" points="-14.438 37.857 34.196 37.857 34.196 -10.905 -14.438 -10.905"></polygon>
                </g>
            </g>
        </g>
    </g>
</svg>