<svg height="48" viewBox="0 0 143.62294 48" width="143.62294" xmlns="http://www.w3.org/2000/svg"><g fill="none" fill-rule="evenodd"><path d="m48 36-24 12-9-4.5v-24l9-4.5 6 3v-9h-18l6 3-9 4.5v24l-9-4.5v-24l24-12 24 12v9l-18 9v6l18-9z" fill="#35c287"/><path d="m60 21h19v6h-19z" fill="#9fa9b5"/><path d="m84 24-12-12v24.0894508z" fill="#9fa9b5"/><g fill-rule="nonzero" transform="matrix(0 -1 -1 0 143.62294 46.343175)"><g fill="#ef352f" transform="translate(31.298053 23.433912)"><path d="m12.388296 11.2566882c0-.0952003-.04284-.1956069-.0819222-.2335383-.0383307-.0386749-.2848488-.3012196-.33295-.3681572-.0481011-.0661939-.1104822-.128669-.1202529-.2714694-.0097704-.1435441.0338213-.56822681.0338213-.68276452 0-.11453781-.0293118-.22461309-.077413-.28634462-.0496041-.06470632-.31867-.34435705-.3765416-.40162605-.0578717-.05726891-.1638443-.11453791-.1924045.03867498-.0293115.15246927-.0631327.42021997-.0916927.51542024-.0293118.09520036-.0871834.1145379-.159335.057269-.1089791-.08627522-.3953312-.32427588-.5020556-.40088243-.1059728-.07660654-.1924045-.10189405-.2412573.04760004-.0428401.13387545-.1585834.525089-.1976656.65896445-.0383305.13387541-.05261054.24320691.0578717.33394471.0631327.051319.4825145.3964198.5599272.4536888.0766612.0572689.1202529.185938.0916928.3198134-.0293115.1338755-.1668508.5421952-.2029265.6537582-.0435917.1338753-.0142802.2127131.0390821.2915508.048101.0714002.4336618.3517947.5832262.4150137.1691056.0721438.2412572.0148749.2803393-.0907378.0255537-.0706566.1548257-.4804639.1683541-.6016956.0097704-.0855314.0871832-.0758627.1450548-.0089248.0578719.0669375.2344931.2164317.308148.2960132.0533622.0572689.1886465.0647065.2269772-.0862753.0390822-.152469.0819222-.5154201.0819222-.6492955"/><path d="m7.04606417 8.56579299c.06313277-.14131276.10221492-.55112033.09394755-.69466445-.01127371-.18965681-.06839382-.30642588-.2314868-.39046974-.55466612-.28634472-1.57831818-.63888309-2.53282512-.78763366-1.16269462-.18147548-1.98717798-.27593183-3.18895476-.24320691-.17812451.00446263-.35700063.15767552-.37128056.37187612-.01427993.21494442-.00300623.64557688.04359169.83077106.03382101.13387545.16835383.29601339.38556049.29601339.73354224 0 1.97064344-.04016262 2.7620573.08330014.83726018.13164418 1.73389539.26551963 2.6846443.62698306.16459609.06247515.31115421.0037189.35474591-.09296901"/><path d="m2.26751742 14.5314288c.09695378.1145377.25177928.168088.44418392.1532129 2.09540536-.1636255 3.85335147-1.293385 4.78531101-2.2148939 1.31225897-1.298591 2.23820565-3.15127753 2.23820565-5.13709574 0-1.98581802-.85830456-3.79016075-2.17056354-5.08875182-1.31225908-1.29859136-3.36707917-2.24390024-4.9499071-2.24390024-.52084491 0-.91166675.0751189-1.28294731.69689582-.3765416.63070166-1.10933234 1.88094897-1.33180005 4.22004928.61779889-1.36478512 1.25438735-2.19555618 1.77523247-2.6351135.52159642-.43881379.87859725-.37187621 1.20628611-.29601339.32768887.07660645 2.01648955.22907552 3.60833636 1.80508626 1.35058962 1.33652263 1.52420459 2.81658928 1.54374587 3.79016084.02705674 1.35957878-.53888308 2.84410809-1.71736084 4.00956759-1.5572741 1.5410543-3.24908111 2.025237-4.32233752 2.1769625-.26981744.038675-.25102787.1532128-.19315625.2863445.05787163.1338752.36677122.4774889.36677122.4774889"/></g><path d="m3.86838317 31.711873c1.42048654-2.3294316 2.23895735-5.1846959 2.23895735-7.8384034 0-1.4659355-.29010994-3.55216-1.47610348-6.435687-.39157325-.9505152-.60802835-1.947143-.60802835-2.63437-.29912891 1.8326052.23148668 4.305581.23148668 6.873757 0 1.7217862-.21720665 4.2825247-.83951504 6.8454945-.62230839 2.5637134-1.89548521 5.5000468-3.41518033 7.332652 1.48361927-1.014478 2.84397939-2.4625633 3.86838317-4.1434431" fill="#3ba445"/><path d="m31.2597227 8.24351902c.673416.90217131 1.6422028 1.73814872 2.590697 2.62841998 3.487332 3.2747405 7.2114116 5.0009891 8.2831651 3.8831297 1.0725049-1.1186031-.8853614-4.680432-4.3734452-7.95517251-3.4873319-3.2754843-7.0047272-5.25088989-8.0764805-4.13303047-.2352445.24469444-.3802995.621033-.4644765 1.12306568-.6418495 3.80949831-2.5403411 8.0064915-4.7327004 11.2135506 1.4377729-3.1029338 2.9980534-7.5141276 2.9529584-12.33066626-.0082674-.82482109.2480215-1.67790476.698218-2.12341227 1.6745208-1.65782345 6.2163198.58310165 10.4251687 4.74811345 4.2080975 4.16426806 6.2260901 8.92056278 4.5064747 10.62226758-.3863121.3822887-.9364689.6016955-1.5918466.6016955-.2946196 0-.6899508.0290063-.9266985.0290063-5.1310379 0-13.2856829 4.7020009-13.2856829 14.0063398 0 4.5830004 2.0029612 7.4189272 3.7398631 9.1793885 1.6234132 1.6459233 3.3001886 2.3264566 4.7409677 2.8314642.4547059.1591631 1.1822357.2625445 1.4858739.4484825.2367478.1450317.4486936.3250197.4486936.8114337 0 .6307018-.3276892 1.3365225-.8778457 2.1100246-.5501566.7735023-1.3167686 1.30826-1.7654618 1.30826-.1691056 0-.3088996-.0907377-.3427206-.2246131-.0150316-.0580128-.0097705-.1145379.0533621-.081069.0623811.0334689.2442637.0959441.5787167-.1428004.2600469-.1866817.8026877-.7601148.9357174-1.9047492.0586232-.501289.0157833-.7839146-.8154645-1.0933156-.7403064-.275932-3.0408933-.8902713-5.6150554-2.8738582-2.6906571-2.0735807-5.2580549-5.6264845-5.2580549-10.3262541 0-8.0392166 5.7488367-12.4050415 11.6284484-14.3425157.5388829-.1777568 1.6136426-.4655889 2.0450497-.4752576.0608779-.0014876.0556168-.0141313.0097704-.0401627-.0488525-.0282625-.160838-.0922252-.2194613-.119744-2.7064403-1.2576848-5.8946433-4.4989565-6.7777501-7.37802098" fill="#3ba445"/><g fill="#005d26" transform="translate(8.683006 9.54211)"><path d="m9.03098743 11.8487149-.51408085-.0074376v-.8092023c-.00450944-.2075067.07140014-.3317135.04058536-.3622073-.02856005-.0282625-.10522125.0542941-.38405747.0617314h-6.40797259c-.49153346 0-1.73615025-.2008131-1.73615025-1.75451117 0-1.56113562 1.3889202-2.05052453 2.60497691-2.05052453l.31791838.00297499v.57268914c-1.46182343 0-1.98943271.37261983-1.98943271.78019595 0 .40831993.38330587.65227056.82448346.65227056h6.41248204c.20893929-.00148744.32468264.06396269.34647853.04239389.02104419-.0215688-.02329901-.11825661-.02931166-.27221322v-1.49642931l.71625588-.00669369v1.50014791c-.00450944.13238791-.06914533.2142007-.04284009.23948821.02104429.0215688.13378131-.04165007.2314867-.0357001l3.54520373.0319814v.65822053c-1.01313 0-3.10628086.46707634-3.93602537 2.25282524"/><path d="m6.01564774 28.0416858-4.62597596-.0014875c-.50205559.0431376-.63734001-.6098769-.63734001-.939359h-.52084505v3.8422235h.52084505c0-.3019635.13077494-.7690397.64184945-.7928397h11.43303768c.2795879.0238.511826.3101445.5163356.7928397h.5501566l.0007515-3.7849545c0-3.2360655-2.5080229-3.7373545-3.680488-3.7373545-.93346251 0-4.02320867.4722828-4.02320867 4.0601428 0 .1011504.00751576.2246131.01878947.321301.01052219.0966877.08041912.2313069.03682743.264032-.04284009.0319814-.11198541-.0245438-.23073509-.0245438zm6.67328036.0044625-5.57747644-.0029751c-.15181918 0-.21946139.0617314-.24802145.0267751-.0330696-.0401627.02480213-.0944565.02329901-.2469256-.00751586-1.1966972.49378817-2.0825061 3.35580548-2.0825061 2.0645907 0 3.0687019.4871578 3.0687019 1.5752672 0 .3793134-.1307751.7303645-.6223085.7303645"/><path d="m9.4360891 21.0429783c0-.9453089-.99885004-2.9787272-4.7176687-2.9787272-2.31561856 0-4.7184204 1.1171158-4.7184204 2.9504648 0 1.985818 2.3975408 3.0642587 4.67933815 3.0642587 3.75339147 0 4.75675095-2.0140807 4.75675095-3.0359963zm-4.84318263 1.0405093c-2.44864816 0-4.03523396-.1881693-4.03523396-1.0330716 0-.8114336 1.78725771-.981009 4.01569288-.981009 2.6966697 0 4.34187869.1718066 4.34187869 1.0025779 0 .6991268-1.10031336 1.0115027-4.32233761 1.0115027"/><path d="m3.37910448 14.2473153c.06914543.1033816.78389809 1.1565347.96277421 1.4324665.55692094.8590338 1.38892017 1.410898 2.63353694 1.410898 1.24461676 0 2.39528607-.7735022 2.39528607-1.9910245 0-.9237401-.54264091-1.1810784-.54264091-1.4465979 0-.221638.40510167-.5012888.54264091-.5726891v-.47972h-3.21976953v.5585577c1.93907684.5585579 2.64856856 1.1602533 2.6410528 1.9047492-.00601266.6515269-.45620923.945309-1.02064594.945309s-.97630264-.3220447-1.424996-.9594403c-.05336218-.0758627-1.06874707-1.5841921-1.11459338-1.647411-.33971428-.4655887-1.15743348-1.2673535-2.4967494-1.2673535-1.33856431 0-2.65533275.9096089-2.65533275 2.2840627 0 .8739087.52084508 1.1818221.52084508 1.5113043 0 .3220447-.29612261.4797202-.51332927.6232643v.5079827h3.63990282v-.5444265c-1.15066931-.3146072-3.03939025-.8300274-3.03939025-2.1048185 0-.8017648.57871673-1.1312469 1.15743342-1.1312469.68769592 0 1.19426101.4581513 1.53397518.9661338"/><path d="m9.38798796 3.5521601c0-1.37966024-.68018006-2.32050659-2.0217506-2.32050659-1.22958522 0-4.53428323 0-5.63459659 0-.29762579 0-.56894623-.06619395-.56894623-.35253847 0-.28708834.54038617-.37708236 1.10482288-.37708236v-.50203268c-.3757901 0-.76135069.03123758-1.1003134.12197535-.57871673.15544414-1.15743346.72069577-1.15743346 1.38189139 0 .67830199.64410421 1.17215332 1.15517873 1.28222871.04284007.00892495.03607584.03198129.00225473.04983129-.53287034.28411336-1.09956179.85233997-1.09956179 1.83334905 0 .88803997.67266425 1.72550482 2.05482018 1.72550482 1.49113509 0 2.72823609-.97357147 3.53167526-2.92145832.07290326-.17775668.27432678-.47972003.66514852-.47972003h1.2160567c.57871674 0 1.23033674.27221322 1.23033674 1.00257778 0 .51988276-.23900256.92374017-.44869336 1.11711568-.08943801.08181279-.12476233.04611269-.05261058-.06842521.03457261-.05503765.05411369-.16957545.05411369-.24469446 0-.27890701-.2547856-.73259581-.89137407-.73259581-.63733996 0-1.016888.57268913-1.016888.99514037 0 .45592006.29537107 1.04794674 1.13488607 1.04794674.89212568 0 1.84287458-.83077116 1.84287458-2.55850725zm-5.02656819.60615798c-.39683429.29006332-1.12436397.47748877-1.73690182.47748877-.46297339 0-1.52420456-.06693767-1.52420456-.76383339 0-.71623326 1.01388164-.8783712 1.24461683-.8783712h2.55161459c.21720677 0 .33595634-.11825661.36902594-.09668781.03682744.02454379-.01728635.10858784-.04584641.16362548-.13678754.26551954-.45620913.8032523-.85830457 1.09777815"/></g></g></g></svg>