<svg xmlns="http://www.w3.org/2000/svg" width="118" height="40" fill-rule="evenodd" xmlns:v="https://vecta.io/nano"><path d="M55.234 10v9.653l3.954-4.028h5.461l-5.171 5.511L65.277 30h-5.612L56.2 24.568l-.966.998V30H50.84V12.187L55.234 10zm37.032 0v9.653l3.954-4.028h5.461l-5.171 5.511L102.309 30h-5.612l-3.464-5.432-.966.998V30h-4.394V12.187L92.264 10zm15.69 0l.001 9.653 3.954-4.028h5.461l-5.171 5.511L118 30h-5.612l-3.464-5.432-.966.998V30h-4.394V12.187L107.956 10zm-22.595 5.625V30h-4.394V15.625h4.394zm-16.317 0l3.136 7.811 3.14-7.811h4.392L73.622 30H70.11l-5.461-14.375h4.396zm14.12-6.25c1.56 0 2.824 1.119 2.824 2.5s-1.265 2.5-2.824 2.5-2.824-1.119-2.824-2.5 1.265-2.5 2.824-2.5z" fill="#2c3f56"/><path d="M40.17 30L20.085 40l-7.532-3.75v-20l7.532-3.75 5.021 2.5V7.5H10.043l5.02 2.5-7.531 3.75-.001 20L0 30V10L20.085 0 40.17 10v7.5L25.106 25v5l15.064-7.5V30z" fill="#35c287"/></svg>